<?xml version="1.0" standalone="no"?>
<!DOCTYPE svg PUBLIC "-//W3C//DTD SVG 20010904//EN"
 "http://www.w3.org/TR/2001/REC-SVG-20010904/DTD/svg10.dtd">
<svg version="1.0" xmlns="http://www.w3.org/2000/svg"
 width="2000.000000pt" height="2000.000000pt" viewBox="0 0 2000.000000 2000.000000"
 preserveAspectRatio="xMidYMid meet">
<metadata>
Created by potrace 1.14, written by Peter Selinger 2001-2017
</metadata>
<g transform="translate(0.000000,2000.000000) scale(0.100000,-0.100000)"
fill="#000000" stroke="none">
<path d="M9640 19994 c-723 -34 -1310 -114 -1965 -270 -1143 -271 -2255 -758
-3235 -1415 -795 -532 -1498 -1164 -2107 -1890 -1138 -1359 -1901 -3016 -2193
-4758 -99 -591 -134 -1031 -134 -1661 0 -450 7 -608 45 -990 294 -2975 1911
-5668 4399 -7327 1365 -910 2921 -1467 4560 -1632 355 -36 558 -45 990 -45
520 0 875 22 1335 85 3127 424 5862 2287 7397 5039 666 1192 1080 2512 1217
3880 36 355 45 558 45 990 0 520 -22 875 -85 1335 -326 2409 -1514 4614 -3342
6206 -694 604 -1541 1154 -2347 1525 -1156 531 -2303 823 -3585 914 -151 11
-855 21 -995 14z m6409 -5958 c268 -41 375 -86 422 -177 99 -195 -97 -547
-586 -1048 -128 -132 -6127 -5617 -6254 -5719 -197 -158 -455 -318 -742 -461
-489 -245 -952 -383 -1499 -448 -200 -23 -618 -23 -825 1 -675 78 -1550 294
-2395 591 -371 131 -971 363 -993 384 -4 4 123 179 284 389 l291 382 1601 0
1602 0 260 217 c285 238 1658 1387 1834 1535 61 51 109 93 108 95 -2 2 -3124
481 -4009 615 -120 18 -218 37 -218 42 0 4 156 287 348 627 l347 619 2894 0
2893 0 382 328 c684 587 1088 944 1351 1193 61 57 147 132 192 165 451 340
1200 603 1933 679 179 18 633 13 779 -9z"/>
</g>
</svg>
