<?xml version="1.0" encoding="UTF-8" standalone="no"?>
<svg
   data-name="Layer 1"
   height="32"
   id="Layer_1"
   viewBox="0 0 32 32"
   width="32"
   version="1.1"
   sodipodi:docname="altiport.svg"
   xml:space="preserve"
   inkscape:version="1.2 (dc2aedaf03, 2022-05-15)"
   xmlns:inkscape="http://www.inkscape.org/namespaces/inkscape"
   xmlns:sodipodi="http://sodipodi.sourceforge.net/DTD/sodipodi-0.dtd"
   xmlns="http://www.w3.org/2000/svg"
   xmlns:svg="http://www.w3.org/2000/svg"><sodipodi:namedview
     id="namedview285"
     pagecolor="#ffffff"
     bordercolor="#000000"
     borderopacity="0.25"
     inkscape:showpageshadow="2"
     inkscape:pageopacity="0.0"
     inkscape:pagecheckerboard="0"
     inkscape:deskcolor="#d1d1d1"
     showgrid="false"
     inkscape:zoom="25.1875"
     inkscape:cx="14.630273"
     inkscape:cy="16"
     inkscape:window-width="1920"
     inkscape:window-height="1009"
     inkscape:window-x="1912"
     inkscape:window-y="-8"
     inkscape:window-maximized="1"
     inkscape:current-layer="g314" /><defs
     id="defs279"><style
       id="style277">
      .cls-1 {
        fill: none;
      }
    </style><style
       id="style299">
      .cls-1 {
        fill: none;
      }
    </style></defs><path
     d="M30,14H27.8193A12.0112,12.0112,0,0,0,18,4.1807V2H14V4.1807A12.0112,12.0112,0,0,0,4.1807,14H2v4H4.1807A12.0112,12.0112,0,0,0,14,27.8193V30h4V27.8193A12.0112,12.0112,0,0,0,27.8193,18H30ZM16,26A10,10,0,1,1,26,16,10.0114,10.0114,0,0,1,16,26Z"
     transform="translate(0 0)"
     id="path281"
     style="fill:#f5c100;fill-opacity:1" /><rect
     class="cls-1"
     data-name="&lt;Transparent Rectangle&gt;"
     height="32"
     id="_Transparent_Rectangle_"
     transform="translate(32 32) rotate(-180)"
     width="32" /><g
     id="g314"
     transform="matrix(0.5176799,0,0,0.5176799,7.7171216,6.0496278)"><path
       d="m 27.6343,25.987376 -9.8455,-20.8945 a 2,2 0 0 0 -3.5879,0.021 l -9.8352,20.8735 H 2 v 2 h 28 v -2 z m -11.6443,-20.021 4.9573,10.521 -1.9473,1.2979 -3,-2 -3,2 -1.9551,-1.3033 z m -5.8054,12.3457 2.8154,1.8774 3,-2 3,2 2.8091,-1.873 3.6142,7.6709 H 6.5752 Z"
       id="path305"
       style="stroke:#f5c100;stroke-width:1.15902;stroke-dasharray:none;stroke-opacity:1;fill:#f5c100;fill-opacity:1" /><rect
       class="cls-1"
       data-name="&lt;Transparent Rectangle&gt;"
       height="32"
       id="_Transparent_Rectangle_-1"
       width="32"
       x="0"
       y="0" /></g></svg>
