<?xml version="1.0" encoding="UTF-8" standalone="no"?>
<svg
   data-name="Layer 1"
   height="32"
   id="Layer_1"
   viewBox="0 0 32 32"
   width="32"
   version="1.1"
   sodipodi:docname="dme.svg"
   inkscape:version="1.2 (dc2aedaf03, 2022-05-15)"
   xmlns:inkscape="http://www.inkscape.org/namespaces/inkscape"
   xmlns:sodipodi="http://sodipodi.sourceforge.net/DTD/sodipodi-0.dtd"
   xmlns="http://www.w3.org/2000/svg"
   xmlns:svg="http://www.w3.org/2000/svg">
  <sodipodi:namedview
     id="namedview15176"
     pagecolor="#ffffff"
     bordercolor="#000000"
     borderopacity="0.25"
     inkscape:showpageshadow="2"
     inkscape:pageopacity="0.0"
     inkscape:pagecheckerboard="0"
     inkscape:deskcolor="#d1d1d1"
     showgrid="false"
     inkscape:zoom="25.90625"
     inkscape:cx="9.6308806"
     inkscape:cy="16.0193"
     inkscape:window-width="1920"
     inkscape:window-height="1009"
     inkscape:window-x="1912"
     inkscape:window-y="-8"
     inkscape:window-maximized="1"
     inkscape:current-layer="Layer_1" />
  <defs
     id="defs15166">
    <style
       id="style15164">
      .cls-1 {
        fill: #171717;
      }

      .cls-2 {
        fill: none;
      }
    </style>
  </defs>
  <path
     class="cls-1"
     d="M16,20a4,4,0,1,1,4-4A4.0045,4.0045,0,0,1,16,20Zm0-6a2,2,0,1,0,2,2A2.0021,2.0021,0,0,0,16,14Z"
     transform="translate(0 0)"
     id="path15168"
     style="fill:#77ff44;fill-opacity:1" />
  <path
     class="cls-1"
     d="M24,24H8a2.0021,2.0021,0,0,1-2-2V10A2.0021,2.0021,0,0,1,8,8H24a2.0021,2.0021,0,0,1,2,2V22A2.0021,2.0021,0,0,1,24,24ZM8,10V22H24V10Z"
     transform="translate(0 0)"
     id="path15170"
     style="fill:#77ff44;fill-opacity:1" />
  <path
     class="cls-1"
     d="M28,28H4a2.0021,2.0021,0,0,1-2-2V6A2.0021,2.0021,0,0,1,4,4H28a2.0021,2.0021,0,0,1,2,2V26A2.0021,2.0021,0,0,1,28,28ZM4,6V26H28V6Z"
     transform="translate(0 0)"
     id="path15172"
     style="fill:#77ff44;fill-opacity:1" />
  <rect
     class="cls-2"
     data-name="&lt;Transparent Rectangle&gt;"
     height="32"
     id="_Transparent_Rectangle_"
     transform="translate(32 32) rotate(-180)"
     width="32" />
</svg>
