<?xml version="1.0" encoding="UTF-8" standalone="no"?>
<svg
   data-name="Layer 1"
   height="32"
   id="Layer_1"
   viewBox="0 0 32 32"
   width="32"
   version="1.1"
   sodipodi:docname="ndb.svg"
   inkscape:version="1.2 (dc2aedaf03, 2022-05-15)"
   xmlns:inkscape="http://www.inkscape.org/namespaces/inkscape"
   xmlns:sodipodi="http://sodipodi.sourceforge.net/DTD/sodipodi-0.dtd"
   xmlns="http://www.w3.org/2000/svg"
   xmlns:svg="http://www.w3.org/2000/svg">
  <sodipodi:namedview
     id="namedview10879"
     pagecolor="#ffffff"
     bordercolor="#000000"
     borderopacity="0.25"
     inkscape:showpageshadow="2"
     inkscape:pageopacity="0.0"
     inkscape:pagecheckerboard="0"
     inkscape:deskcolor="#d1d1d1"
     showgrid="false"
     inkscape:zoom="25.90625"
     inkscape:cx="9.6308806"
     inkscape:cy="16.0193"
     inkscape:window-width="1920"
     inkscape:window-height="1009"
     inkscape:window-x="1912"
     inkscape:window-y="-8"
     inkscape:window-maximized="1"
     inkscape:current-layer="Layer_1" />
  <defs
     id="defs10855">
    <style
       id="style10853">
      .cls-1 {
        fill: none;
      }
    </style>
  </defs>
  <path
     d="M16,24a8,8,0,1,1,8-8A8.0092,8.0092,0,0,1,16,24Zm0-14a6,6,0,1,0,6,6A6.0067,6.0067,0,0,0,16,10Z"
     transform="translate(0 0)"
     id="path10857"
     style="fill:#ffffff;fill-opacity:1" />
  <circle
     cx="16"
     cy="16"
     r="2"
     id="circle10859"
     style="fill:#ffffff;fill-opacity:1" />
  <circle
     cx="16"
     cy="4"
     r="2"
     id="circle10861"
     style="fill:#ffffff;fill-opacity:1" />
  <circle
     cx="16"
     cy="28"
     r="2"
     id="circle10863"
     style="fill:#ffffff;fill-opacity:1" />
  <circle
     cx="28"
     cy="16"
     r="2"
     id="circle10865"
     style="fill:#ffffff;fill-opacity:1" />
  <circle
     cx="4"
     cy="16"
     r="2"
     id="circle10867"
     style="fill:#ffffff;fill-opacity:1" />
  <circle
     cx="7.5147"
     cy="7.5147"
     r="2"
     id="circle10869"
     style="fill:#ffffff;fill-opacity:1" />
  <circle
     cx="24.4853"
     cy="24.4853"
     r="2"
     id="circle10871"
     style="fill:#ffffff;fill-opacity:1" />
  <circle
     cx="24.4853"
     cy="7.5147"
     r="2"
     id="circle10873"
     style="fill:#ffffff;fill-opacity:1" />
  <circle
     cx="7.5147"
     cy="24.4853"
     r="2"
     id="circle10875"
     style="fill:#ffffff;fill-opacity:1" />
  <rect
     class="cls-1"
     data-name="&lt;Transparent Rectangle&gt;"
     height="32"
     id="_Transparent_Rectangle_"
     transform="translate(32 32) rotate(-180)"
     width="32" />
</svg>
