<?xml version="1.0" encoding="UTF-8" standalone="no"?>
<svg
   data-name="Layer 1"
   height="32"
   id="Layer_1"
   viewBox="0 0 32 32"
   width="32"
   version="1.1"
   sodipodi:docname="ndbdme.svg"
   inkscape:version="1.2 (dc2aedaf03, 2022-05-15)"
   xmlns:inkscape="http://www.inkscape.org/namespaces/inkscape"
   xmlns:sodipodi="http://sodipodi.sourceforge.net/DTD/sodipodi-0.dtd"
   xmlns="http://www.w3.org/2000/svg"
   xmlns:svg="http://www.w3.org/2000/svg">
  <sodipodi:namedview
     id="namedview26185"
     pagecolor="#ffffff"
     bordercolor="#000000"
     borderopacity="0.25"
     inkscape:showpageshadow="2"
     inkscape:pageopacity="0.0"
     inkscape:pagecheckerboard="0"
     inkscape:deskcolor="#d1d1d1"
     showgrid="false"
     inkscape:zoom="25.90625"
     inkscape:cx="9.6308806"
     inkscape:cy="16.0193"
     inkscape:window-width="1920"
     inkscape:window-height="1009"
     inkscape:window-x="1912"
     inkscape:window-y="-8"
     inkscape:window-maximized="1"
     inkscape:current-layer="Layer_1" />
  <defs
     id="defs26137">
    <style
       id="style26135">
      .cls-1 {
        fill: #171717;
      }

      .cls-2 {
        fill: none;
      }
    </style>
  </defs>
  <path
     class="cls-1"
     d="M4,12H2V4A2.0021,2.0021,0,0,1,4,2h8V4H4Z"
     transform="translate(0 0)"
     id="path26139"
     style="fill:#ff88ee;fill-opacity:1" />
  <path
     class="cls-1"
     d="M12,30H4a2.0021,2.0021,0,0,1-2-2V20H4v8h8Z"
     transform="translate(0 0)"
     id="path26141"
     style="fill:#ff88ee;fill-opacity:1" />
  <path
     class="cls-1"
     d="M28,30H20V28h8V20h2v8A2.0021,2.0021,0,0,1,28,30Z"
     transform="translate(0 0)"
     id="path26143"
     style="fill:#ff88ee;fill-opacity:1" />
  <path
     class="cls-1"
     d="M30,12H28V4H20V2h8a2.0021,2.0021,0,0,1,2,2Z"
     transform="translate(0 0)"
     id="path26145"
     style="fill:#ff88ee;fill-opacity:1" />
  <path
     class="cls-1"
     d="M16,22a6,6,0,1,1,6-6A6.0067,6.0067,0,0,1,16,22Zm0-10a4,4,0,1,0,4,4A4.0045,4.0045,0,0,0,16,12Z"
     transform="translate(0 0)"
     id="path26147"
     style="fill:#ff88ee;fill-opacity:1" />
  <circle
     cx="16"
     cy="16"
     r="2"
     id="circle26149"
     style="fill:#ff88ee;fill-opacity:1" />
  <circle
     cx="16"
     cy="7"
     r="1"
     id="circle26151"
     style="fill:#ff88ee;fill-opacity:1" />
  <circle
     cx="16"
     cy="3"
     r="1"
     id="circle26153"
     style="fill:#ff88ee;fill-opacity:1" />
  <circle
     cx="16"
     cy="25"
     r="1"
     id="circle26155"
     style="fill:#ff88ee;fill-opacity:1" />
  <circle
     cx="16"
     cy="29"
     r="1"
     id="circle26157"
     style="fill:#ff88ee;fill-opacity:1" />
  <circle
     cx="25"
     cy="16"
     r="1"
     id="circle26159"
     style="fill:#ff88ee;fill-opacity:1" />
  <circle
     cx="29"
     cy="16"
     r="1"
     id="circle26161"
     style="fill:#ff88ee;fill-opacity:1" />
  <circle
     cx="7"
     cy="16"
     r="1"
     id="circle26163"
     style="fill:#ff88ee;fill-opacity:1" />
  <circle
     cx="3"
     cy="16"
     r="1"
     id="circle26165"
     style="fill:#ff88ee;fill-opacity:1" />
  <circle
     cx="9.636"
     cy="9.636"
     r="1"
     id="circle26167"
     style="fill:#ff88ee;fill-opacity:1" />
  <circle
     cx="7"
     cy="7"
     r="1"
     id="circle26169"
     style="fill:#ff88ee;fill-opacity:1" />
  <circle
     cx="22.364"
     cy="22.364"
     r="1"
     id="circle26171"
     style="fill:#ff88ee;fill-opacity:1" />
  <circle
     cx="25"
     cy="25"
     r="1"
     id="circle26173"
     style="fill:#ff88ee;fill-opacity:1" />
  <circle
     cx="22.364"
     cy="9.636"
     r="1"
     id="circle26175"
     style="fill:#ff88ee;fill-opacity:1" />
  <circle
     cx="25"
     cy="7"
     r="1"
     id="circle26177"
     style="fill:#ff88ee;fill-opacity:1" />
  <circle
     cx="9.636"
     cy="22.364"
     r="1"
     id="circle26179"
     style="fill:#ff88ee;fill-opacity:1" />
  <circle
     cx="7"
     cy="25"
     r="1"
     id="circle26181"
     style="fill:#ff88ee;fill-opacity:1" />
  <rect
     class="cls-2"
     data-name="&lt;Transparent Rectangle&gt;"
     height="32"
     id="_Transparent_Rectangle_"
     transform="translate(32 32) rotate(-180)"
     width="32" />
</svg>
