<?xml version="1.0" encoding="UTF-8" standalone="no"?>
<svg
   height="32"
   id="icon"
   viewBox="0 0 32 32"
   width="32"
   version="1.1"
   sodipodi:docname="point.svg"
   inkscape:version="1.2 (dc2aedaf03, 2022-05-15)"
   xmlns:inkscape="http://www.inkscape.org/namespaces/inkscape"
   xmlns:sodipodi="http://sodipodi.sourceforge.net/DTD/sodipodi-0.dtd"
   xmlns="http://www.w3.org/2000/svg"
   xmlns:svg="http://www.w3.org/2000/svg">
  <sodipodi:namedview
     id="namedview12"
     pagecolor="#ffffff"
     bordercolor="#000000"
     borderopacity="0.25"
     inkscape:showpageshadow="2"
     inkscape:pageopacity="0.0"
     inkscape:pagecheckerboard="0"
     inkscape:deskcolor="#d1d1d1"
     showgrid="false"
     inkscape:zoom="25.90625"
     inkscape:cx="9.6308806"
     inkscape:cy="16.0193"
     inkscape:window-width="1920"
     inkscape:window-height="1009"
     inkscape:window-x="1912"
     inkscape:window-y="-8"
     inkscape:window-maximized="1"
     inkscape:current-layer="icon" />
  <defs
     id="defs4">
    <style
       id="style2">
      .cls-1 {
        fill: none;
      }
    </style>
  </defs>
  <rect
     height="11.3137"
     transform="translate(-6.6274 16) rotate(-45)"
     width="11.3137"
     x="10.3431"
     y="10.3431"
     id="rect6"
     style="fill:#ffff00;fill-opacity:1" />
  <path
     d="M16,30a2.0763,2.0763,0,0,1-1.4732-.6094L2.6094,17.4732a2.0855,2.0855,0,0,1,0-2.9464L14.5268,2.6094a2.0855,2.0855,0,0,1,2.9464,0L29.3906,14.5268a2.0855,2.0855,0,0,1,0,2.9464L17.4732,29.3906A2.0763,2.0763,0,0,1,16,30ZM16,3.9992a.0841.0841,0,0,0-.0591.0244L4.0236,15.9409a.0838.0838,0,0,0,0,.1182L15.9409,27.9764a.0842.0842,0,0,0,.1182,0L27.9764,16.0591a.0838.0838,0,0,0,0-.1182L16.0591,4.0236A.0841.0841,0,0,0,16,3.9992Z"
     id="path8"
     style="fill:#ffff00;fill-opacity:1" />
  <rect
     class="cls-1"
     data-name=" Transparent Rectangle "
     height="32"
     id="_Transparent_Rectangle_"
     width="32" />
</svg>
