<?xml version="1.0" encoding="UTF-8" standalone="no"?>
<svg
   data-name="Layer 1"
   height="32"
   id="Layer_1"
   viewBox="0 0 32 32"
   width="32"
   version="1.1"
   sodipodi:docname="seaplane.svg"
   inkscape:version="1.2 (dc2aedaf03, 2022-05-15)"
   xmlns:inkscape="http://www.inkscape.org/namespaces/inkscape"
   xmlns:sodipodi="http://sodipodi.sourceforge.net/DTD/sodipodi-0.dtd"
   xmlns="http://www.w3.org/2000/svg"
   xmlns:svg="http://www.w3.org/2000/svg">
  <sodipodi:namedview
     id="namedview203"
     pagecolor="#ffffff"
     bordercolor="#000000"
     borderopacity="0.25"
     inkscape:showpageshadow="2"
     inkscape:pageopacity="0.0"
     inkscape:pagecheckerboard="0"
     inkscape:deskcolor="#d1d1d1"
     showgrid="false"
     inkscape:zoom="25.90625"
     inkscape:cx="9.1290712"
     inkscape:cy="16.0193"
     inkscape:window-width="1920"
     inkscape:window-height="1009"
     inkscape:window-x="1912"
     inkscape:window-y="-8"
     inkscape:window-maximized="1"
     inkscape:current-layer="Layer_1" />
  <defs
     id="defs195">
    <style
       id="style193">
      .cls-1 {
        fill: none;
      }
    </style>
  </defs>
  <path
     d="M20,18a3.9962,3.9962,0,0,1-3,3.8579V17h2V15H17V13.8159a3.0007,3.0007,0,1,0-2,0V15H13v2h2v4.8579A3.9962,3.9962,0,0,1,12,18H10a6,6,0,0,0,12,0Zm-4-8a1,1,0,1,1-1,1A1.0009,1.0009,0,0,1,16,10Z"
     transform="translate(0 0)"
     id="path197"
     style="fill:#77eeff;fill-opacity:1" />
  <path
     d="M30,14H27.8193A12.0112,12.0112,0,0,0,18,4.1807V2H14V4.1807A12.0112,12.0112,0,0,0,4.1807,14H2v4H4.1807A12.0112,12.0112,0,0,0,14,27.8193V30h4V27.8193A12.0112,12.0112,0,0,0,27.8193,18H30ZM16,26A10,10,0,1,1,26,16,10.0114,10.0114,0,0,1,16,26Z"
     transform="translate(0 0)"
     id="path199"
     style="fill:#77eeff;fill-opacity:1" />
  <rect
     class="cls-1"
     data-name="&lt;Transparent Rectangle&gt;"
     height="32"
     id="_Transparent_Rectangle_"
     transform="translate(32 32) rotate(-180)"
     width="32" />
</svg>
