<?xml version="1.0" encoding="UTF-8" standalone="no"?>
<svg
   data-name="Layer 1"
   height="32"
   id="Layer_1"
   viewBox="0 0 32 32"
   width="32"
   version="1.1"
   sodipodi:docname="tacan.svg"
   inkscape:version="1.2 (dc2aedaf03, 2022-05-15)"
   xmlns:inkscape="http://www.inkscape.org/namespaces/inkscape"
   xmlns:sodipodi="http://sodipodi.sourceforge.net/DTD/sodipodi-0.dtd"
   xmlns="http://www.w3.org/2000/svg"
   xmlns:svg="http://www.w3.org/2000/svg">
  <sodipodi:namedview
     id="namedview19595"
     pagecolor="#ffffff"
     bordercolor="#000000"
     borderopacity="0.25"
     inkscape:showpageshadow="2"
     inkscape:pageopacity="0.0"
     inkscape:pagecheckerboard="0"
     inkscape:deskcolor="#d1d1d1"
     showgrid="false"
     inkscape:zoom="25.90625"
     inkscape:cx="9.6308806"
     inkscape:cy="16.0193"
     inkscape:window-width="1920"
     inkscape:window-height="1009"
     inkscape:window-x="1912"
     inkscape:window-y="-8"
     inkscape:window-maximized="1"
     inkscape:current-layer="Layer_1" />
  <defs
     id="defs19587">
    <style
       id="style19585">
      .cls-1 {
        fill: none;
      }
    </style>
  </defs>
  <circle
     cx="16"
     cy="14"
     r="2"
     id="circle19589"
     style="fill:#77eeff;fill-opacity:1" />
  <path
     d="M20,28H12a1,1,0,0,1-1-1V21.2656L7.2612,14.7231,2.4854,11.8574a1,1,0,0,1-.3536-1.3535l4-7a1,1,0,0,1,1.3828-.3613L12.2769,6h7.4462l4.7623-2.8574a1,1,0,0,1,1.3828.3613l4,7a1,1,0,0,1-.3536,1.3535l-4.7758,2.8657L21,21.2656V27A1,1,0,0,1,20,28Zm-7-2h6V20.7346l4.2616-7.4578,4.3844-2.6306L24.6387,5.3831,20.277,8H11.723L7.3613,5.3831,4.354,10.6462l4.3844,2.6306L13,20.7346Z"
     transform="translate(0 0)"
     id="path19591"
     style="fill:#77eeff;fill-opacity:1" />
  <rect
     class="cls-1"
     data-name="&lt;Transparent Rectangle&gt;"
     height="32"
     id="_Transparent_Rectangle_"
     transform="translate(32 32) rotate(-180)"
     width="32" />
</svg>
