<?xml version="1.0" encoding="UTF-8" standalone="no"?>
<svg
   data-name="Layer 1"
   height="32"
   id="Layer_1"
   viewBox="0 0 32 32"
   width="32"
   version="1.1"
   sodipodi:docname="vor.svg"
   inkscape:version="1.2 (dc2aedaf03, 2022-05-15)"
   xmlns:inkscape="http://www.inkscape.org/namespaces/inkscape"
   xmlns:sodipodi="http://sodipodi.sourceforge.net/DTD/sodipodi-0.dtd"
   xmlns="http://www.w3.org/2000/svg"
   xmlns:svg="http://www.w3.org/2000/svg">
  <sodipodi:namedview
     id="namedview17140"
     pagecolor="#ffffff"
     bordercolor="#000000"
     borderopacity="0.25"
     inkscape:showpageshadow="2"
     inkscape:pageopacity="0.0"
     inkscape:pagecheckerboard="0"
     inkscape:deskcolor="#d1d1d1"
     showgrid="false"
     inkscape:zoom="25.90625"
     inkscape:cx="9.1290712"
     inkscape:cy="16.0193"
     inkscape:window-width="1920"
     inkscape:window-height="1009"
     inkscape:window-x="1912"
     inkscape:window-y="-8"
     inkscape:window-maximized="1"
     inkscape:current-layer="Layer_1" />
  <defs
     id="defs17132">
    <style
       id="style17130">
      .cls-1 {
        fill: #171717;
      }

      .cls-2 {
        fill: none;
      }
    </style>
  </defs>
  <circle
     cx="16"
     cy="16"
     r="2"
     id="circle17134"
     style="fill:#77eeff;fill-opacity:1" />
  <path
     class="cls-1"
     d="M30.8638,15.4961l-7-12A1,1,0,0,0,23,3H9a1,1,0,0,0-.8638.4961l-7,12a1,1,0,0,0,0,1.0078l7,12A1,1,0,0,0,9,29H23a1,1,0,0,0,.8638-.4961l7-12a1,1,0,0,0,0-1.0078ZM22.4258,27H9.5742L3.1577,16,9.5742,5H22.4258l6.4165,11Z"
     transform="translate(0 0)"
     id="path17136"
     style="fill:#77eeff;fill-opacity:1" />
  <rect
     class="cls-2"
     data-name="&lt;Transparent Rectangle&gt;"
     height="32"
     id="_Transparent_Rectangle_"
     transform="translate(32 32) rotate(-180)"
     width="32" />
</svg>
