<?xml version="1.0" encoding="UTF-8" standalone="no"?>
<svg
   data-name="Layer 1"
   height="32"
   id="Layer_1"
   viewBox="0 0 32 32"
   width="32"
   version="1.1"
   sodipodi:docname="vordme.svg"
   inkscape:version="1.2 (dc2aedaf03, 2022-05-15)"
   xmlns:inkscape="http://www.inkscape.org/namespaces/inkscape"
   xmlns:sodipodi="http://sodipodi.sourceforge.net/DTD/sodipodi-0.dtd"
   xmlns="http://www.w3.org/2000/svg"
   xmlns:svg="http://www.w3.org/2000/svg">
  <sodipodi:namedview
     id="namedview22062"
     pagecolor="#ffffff"
     bordercolor="#000000"
     borderopacity="0.25"
     inkscape:showpageshadow="2"
     inkscape:pageopacity="0.0"
     inkscape:pagecheckerboard="0"
     inkscape:deskcolor="#d1d1d1"
     showgrid="false"
     inkscape:zoom="25.90625"
     inkscape:cx="9.6308806"
     inkscape:cy="16.0193"
     inkscape:window-width="1920"
     inkscape:window-height="1009"
     inkscape:window-x="1912"
     inkscape:window-y="-8"
     inkscape:window-maximized="1"
     inkscape:current-layer="Layer_1" />
  <defs
     id="defs22054">
    <style
       id="style22052">
      .cls-1 {
        fill: #171717;
      }

      .cls-2 {
        fill: none;
      }
    </style>
  </defs>
  <circle
     cx="16"
     cy="16"
     r="2"
     id="circle22056"
     style="fill:#ff88ee;fill-opacity:1" />
  <path
     class="cls-1"
     d="M30,6a2.0023,2.0023,0,0,0-2-2H4A2.0023,2.0023,0,0,0,2,6V26a2.0023,2.0023,0,0,0,2,2H28a2.0023,2.0023,0,0,0,2-2Zm-2,6.9258L22.9636,6H28ZM27.7637,16,20.491,26H11.509L4.2363,16,11.509,6h8.982ZM9.0364,6,4,12.9248V6ZM4,19.0752,9.0364,26H4ZM22.9636,26l5.0374-6.9263L28,26Z"
     transform="translate(0 0)"
     id="path22058"
     style="fill:#ff88ee;fill-opacity:1" />
  <rect
     class="cls-2"
     data-name="&lt;Transparent Rectangle&gt;"
     height="32"
     id="_Transparent_Rectangle_"
     transform="translate(32 32) rotate(-180)"
     width="32" />
</svg>
