<?xml version="1.0" encoding="UTF-8" standalone="no"?>
<svg
   data-name="Layer 1"
   height="32"
   id="Layer_1"
   viewBox="0 0 32 32"
   width="32"
   version="1.1"
   sodipodi:docname="vortac.svg"
   inkscape:version="1.2 (dc2aedaf03, 2022-05-15)"
   xmlns:inkscape="http://www.inkscape.org/namespaces/inkscape"
   xmlns:sodipodi="http://sodipodi.sourceforge.net/DTD/sodipodi-0.dtd"
   xmlns="http://www.w3.org/2000/svg"
   xmlns:svg="http://www.w3.org/2000/svg">
  <sodipodi:namedview
     id="namedview21921"
     pagecolor="#ffffff"
     bordercolor="#000000"
     borderopacity="0.25"
     inkscape:showpageshadow="2"
     inkscape:pageopacity="0.0"
     inkscape:pagecheckerboard="0"
     inkscape:deskcolor="#d1d1d1"
     showgrid="false"
     inkscape:zoom="25.90625"
     inkscape:cx="9.1290712"
     inkscape:cy="16.0193"
     inkscape:window-width="1920"
     inkscape:window-height="1009"
     inkscape:window-x="1912"
     inkscape:window-y="-8"
     inkscape:window-maximized="1"
     inkscape:current-layer="Layer_1" />
  <defs
     id="defs21913">
    <style
       id="style21911">
      .cls-1 {
        fill: none;
      }
    </style>
  </defs>
  <circle
     cx="16"
     cy="14"
     r="2"
     id="circle21915"
     style="fill:#77ff44;fill-opacity:1" />
  <path
     d="M29.8682,10.5039l-4-7a.9992.9992,0,0,0-1.3828-.3613L19.7231,6H12.2769L7.5146,3.1426a.9992.9992,0,0,0-1.3828.3613l-4,7a1,1,0,0,0,.3536,1.3535l4.7758,2.8657L11,21.2656V27a1,1,0,0,0,1,1h8a1,1,0,0,0,1-1V21.2656l3.7388-6.5425,4.7758-2.8657A1,1,0,0,0,29.8682,10.5039ZM18.8484,21H13.1516L8.5757,12.9922,11.4287,8h9.1426l2.853,4.9922Z"
     transform="translate(0 0)"
     id="path21917"
     style="fill:#77ff44;fill-opacity:1" />
  <rect
     class="cls-1"
     data-name="&lt;Transparent Rectangle&gt;"
     height="32"
     id="_Transparent_Rectangle_"
     transform="translate(32 32) rotate(-180)"
     width="32" />
</svg>
