<?xml version="1.0" encoding="UTF-8"?>
<svg width="100" height="100" version="1.1" viewBox="0 0 26.458 26.458" xmlns="http://www.w3.org/2000/svg">
<path d="m13.229 3.3073a9.9219 9.9219 0 0 0-9.9219 9.9219 9.9219 9.9219 0 0 0 9.9219 9.9219 9.9219 9.9219 0 0 0 9.9219-9.9219 9.9219 9.9219 0 0 0-9.9219-9.9219zm0 3.3073a6.6146 6.6146 0 0 1 6.6146 6.6146 6.6146 6.6146 0 0 1-6.6146 6.6146 6.6146 6.6146 0 0 1-6.6146-6.6146 6.6146 6.6146 0 0 1 6.6146-6.6146zm0 1.3229a5.2917 5.2917 0 0 0-5.2917 5.2917 5.2917 5.2917 0 0 0 5.2917 5.2917 5.2917 5.2917 0 0 0 5.2917-5.2917 5.2917 5.2917 0 0 0-5.2917-5.2917zm0 1.7637a3.5278 3.5278 0 0 1 3.528 3.528 3.5278 3.5278 0 0 1-3.528 3.528 3.5278 3.5278 0 0 1-3.528-3.528 3.5278 3.5278 0 0 1 3.528-3.528z" fill="#2e313b"/>
</svg>