<?xml version="1.0" encoding="UTF-8"?>
<svg version="1.1" viewBox="0 0 26.458 26.458" xmlns="http://www.w3.org/2000/svg">
<path d="m13.229 3.3072c-5.4797-2e-7 -9.9218 4.4421-9.9218 9.9218 0 5.4797 4.4421 9.9223 9.9218 9.9223 5.4797 0 9.9218-4.4426 9.9218-9.9223 0-5.4797-4.4421-9.9218-9.9218-9.9218zm0 1.4552c4.676 1e-7 8.4666 3.7906 8.4666 8.4666 0 4.676-3.7906 8.4671-8.4666 8.4671-4.676 0-8.4666-3.7911-8.4666-8.4671-4e-7 -4.676 3.7906-8.4666 8.4666-8.4666zm-0.7555 2.4148-4.5935 10.52h1.7931l1.1849-2.7559h4.7118l1.2004 2.7559h1.8076l-4.5935-10.52h-1.511zm0.74051 2.3409 1.6893 3.8819h-3.378l1.6888-3.8819z" fill="#2e313b"/>
</svg>