<?xml version="1.0" encoding="UTF-8"?>
<svg width="100" height="100" version="1.1" viewBox="0 0 26.458 26.458" xmlns="http://www.w3.org/2000/svg">
<g stroke-linejoin="bevel">
<path d="m13.229 3.3073a9.9219 9.9219 0 0 0-9.9219 9.9219 9.9219 9.9219 0 0 0 9.9219 9.9219 9.9219 9.9219 0 0 0 9.9219-9.9219 9.9219 9.9219 0 0 0-9.9219-9.9219zm0 3.3073a6.6146 6.6146 0 0 1 6.6146 6.6146 6.6146 6.6146 0 0 1-6.6146 6.6146 6.6146 6.6146 0 0 1-6.6146-6.6146 6.6146 6.6146 0 0 1 6.6146-6.6146zm0 1.3033-4.0137 9.0501h8.0274l-4.0137-9.0501z" fill="#2e313b" stroke-width=".18461" style="paint-order:fill markers stroke"/>
<path d="m-26.735 15.575h16.801" fill="#f00" stroke-width=".15875" style="paint-order:fill markers stroke"/>
</g>
</svg>
