<?xml version="1.0" encoding="UTF-8"?>
<svg width="100" height="100" version="1.1" viewBox="0 0 26.458 26.458" xmlns="http://www.w3.org/2000/svg">
<g stroke-linejoin="bevel">
<path d="m13.229 3.3073a9.9219 9.9219 0 0 0-5.4658 1.65l2.4092 2.4092a6.6146 6.6146 0 0 1 3.0567-0.75189 6.6146 6.6146 0 0 1 3.0582 0.75034l2.4128-2.4128a9.9219 9.9219 0 0 0-5.471-1.6449zm8.277 4.4509-2.4128 2.4128a6.6146 6.6146 0 0 1 0.75034 3.0582 6.6146 6.6146 0 0 1-0.75189 3.0567l2.4092 2.4092a9.9219 9.9219 0 0 0 1.65-5.4658 9.9219 9.9219 0 0 0-1.6449-5.471zm-16.549 0.0051676a9.9219 9.9219 0 0 0-1.65 5.4658 9.9219 9.9219 0 0 0 1.65 5.4658l2.4092-2.4092a6.6146 6.6146 0 0 1-0.75189-3.0567 6.6146 6.6146 0 0 1 0.75189-3.0567l-2.4092-2.4092zm5.2152 11.329-2.4092 2.4092a9.9219 9.9219 0 0 0 5.4658 1.65 9.9219 9.9219 0 0 0 5.4658-1.65l-2.4092-2.4092a6.6146 6.6146 0 0 1-3.0567 0.75189 6.6146 6.6146 0 0 1-3.0567-0.75189z" fill="#2e313b" stroke-width=".18461" style="paint-order:fill markers stroke"/>
<path d="m-26.735 15.575h16.801" fill="#f00" stroke-width=".15875" style="paint-order:fill markers stroke"/>
</g>
</svg>
