<?xml version="1.0" encoding="UTF-8"?>
<svg width="100" height="100" version="1.1" viewBox="0 0 26.458 26.458" xmlns="http://www.w3.org/2000/svg">
<path d="m13.229 4.4979a8.7311 8.7311 0 0 0-8.7311 8.7311 8.7311 8.7311 0 0 0 8.7311 8.7311 8.7311 8.7311 0 0 0 8.7311-8.7311 8.7311 8.7311 0 0 0-8.7311-8.7311zm5.17e-4 2.1166a6.6145 6.6145 0 0 1 6.6145 6.6145 6.6145 6.6145 0 0 1-6.6145 6.6145 6.6145 6.6145 0 0 1-6.6145-6.6145 6.6145 6.6145 0 0 1 6.6145-6.6145z" stroke-linejoin="round" stroke-width="1.5994" style="paint-order:fill markers stroke"/>
</svg>
