<?xml version="1.0" encoding="UTF-8"?>
<svg width="100" height="100" version="1.1" viewBox="0 0 26.458 26.458" xmlns="http://www.w3.org/2000/svg">
<path d="m21.96 13.229a8.7311 8.7311 0 0 1-8.7311 8.7311 8.7311 8.7311 0 0 1-8.7311-8.7311 8.7311 8.7311 0 0 1 8.7311-8.7311 8.7311 8.7311 0 0 1 8.7311 8.7311z" fill="#2e313b" stroke-linejoin="round" stroke-width="1.5994" style="paint-order:fill markers stroke"/>
<path d="m19.844 13.229a6.6145 6.6145 0 0 1-6.6145 6.6145 6.6145 6.6145 0 0 1-6.6145-6.6145 6.6145 6.6145 0 0 1 6.6145-6.6145 6.6145 6.6145 0 0 1 6.6145 6.6145z" fill="#feffff" stroke-linejoin="bevel" stroke-width=".18709" style="paint-order:fill markers stroke"/>
</svg>
