<?xml version="1.0" encoding="UTF-8"?>
<svg width="100" height="100" version="1.1" viewBox="0 0 26.458 26.458" xmlns="http://www.w3.org/2000/svg">
<path d="m13.229 3.9688a9.2604 9.2604 0 0 0-9.2604 9.2604 9.2604 9.2604 0 0 0 9.2604 9.2604 9.2604 9.2604 0 0 0 9.2604-9.2604 9.2604 9.2604 0 0 0-9.2604-9.2604zm0 2.6458a6.6146 6.6146 0 0 1 6.6146 6.6146 6.6146 6.6146 0 0 1-6.6146 6.6146 6.6146 6.6146 0 0 1-6.6146-6.6146 6.6146 6.6146 0 0 1 6.6146-6.6146zm-2.6458-5.2917v2.3502a9.9219 9.9219 0 0 0-6.9102 6.9102h-2.3502v5.2917h2.3502a9.9219 9.9219 0 0 0 6.9102 6.9102v2.3502h5.2917v-2.3502a9.9219 9.9219 0 0 0 6.9102-6.9102h2.3502v-5.2917h-2.3446a9.9219 9.9219 0 0 0-6.9159-6.9159v-2.3446zm2.6458 3.9688a7.9375 7.9375 0 0 1 7.9375 7.9375 7.9375 7.9375 0 0 1-7.9375 7.9375 7.9375 7.9375 0 0 1-7.9375-7.9375 7.9375 7.9375 0 0 1 7.9375-7.9375z" stroke-linejoin="bevel" fill="#2e313b" stroke-width=".12486" style="paint-order:fill markers stroke"/>
</svg>
