<?xml version="1.0" encoding="UTF-8"?>
<svg width="100" height="100" version="1.1" viewBox="0 0 26.458 26.458" xmlns="http://www.w3.org/2000/svg">
<path d="m13.229 3.3072a9.9219 9.9216 0 0 0-9.9218 9.9218 9.9219 9.9216 0 0 0 9.9218 9.9218 9.9219 9.9216 0 0 0 9.9218-9.9218 9.9219 9.9216 0 0 0-9.9218-9.9218zm0 1.9844a7.9374 7.9372 0 0 1 7.9374 7.9374 7.9374 7.9372 0 0 1-7.9374 7.9369 7.9374 7.9372 0 0 1-7.9374-7.9369 7.9374 7.9372 0 0 1 7.9374-7.9374zm-4.0224 2.6055-1.3095 1.3095 4.0224 4.0224-4.0224 4.0224 1.3095 1.3095 4.0224-4.0224 4.0224 4.0224 1.3095-1.3095-4.0224-4.0224 4.0224-4.0224-1.3095-1.3095-4.0224 4.0224-4.0224-4.0224z" fill="#2e313b"/>
</svg>