<?xml version="1.0" encoding="UTF-8"?>
<svg width="100" height="100" version="1.1" viewBox="0 0 26.458 26.458" xmlns="http://www.w3.org/2000/svg">
<path d="m4.623 3.1264-1.4965 1.4965 8.6062 8.6062-8.6062 8.6062 1.4965 1.4965 8.6062-8.6062 8.6062 8.6062 1.4965-1.4965-8.6062-8.6062 8.6062-8.6062-1.4965-1.4965-8.6062 8.6062-8.6062-8.6062zm8.6062 0.18087c-2.0222-1e-7 -3.903 0.60548-5.4715 1.6443l1.0537 1.0537c1.2861-0.78819 2.7989-1.2428 4.4178-1.2428 1.5212 0 2.9484 0.40151 4.1822 1.1038l1.0614-1.0609c-1.5214-0.94904-3.3184-1.4981-5.2436-1.4981zm8.1261 4.2282-1.048 1.0475c0.87744 1.334 1.3885 2.9302 1.3885 4.6462 0 1.6189-0.45463 3.1317-1.2428 4.4178l1.0537 1.0537c1.0389-1.5685 1.6443-3.4493 1.6443-5.4715 0-2.1187-0.66442-4.082-1.7958-5.6937zm-16.404 0.22221c-1.0389 1.5685-1.6443 3.4493-1.6443 5.4715 0 1.9252 0.54906 3.7222 1.4981 5.2436l1.0609-1.0614c-0.7023-1.2338-1.1038-2.661-1.1038-4.1822-1e-7 -1.6189 0.45463-3.1317 1.2428-4.4178l-1.0537-1.0537zm3.6313 12.55-1.0475 1.048c1.6117 1.1313 3.575 1.7958 5.6937 1.7958 2.0222 0 3.903-0.60548 5.4715-1.6443l-1.0537-1.0537c-1.2861 0.78819-2.7989 1.2428-4.4178 1.2428-1.716 0-3.3123-0.51111-4.6462-1.3885z" fill="#2e313b" stroke-linejoin="bevel" stroke-width=".2018" style="paint-order:fill markers stroke"/>
</svg>
