<?xml version="1.0" encoding="UTF-8"?>
<svg version="1.1" viewBox="0 0 26.458 26.458" xmlns="http://www.w3.org/2000/svg">
<path d="m13.229 3.3072c-5.4797 0-9.9218 4.442-9.9218 9.9218 0 5.4797 4.442 9.9218 9.9218 9.9218 5.4797 0 9.9218-4.442 9.9218-9.9218 0-5.4797-4.442-9.9218-9.9218-9.9218zm0 1.4552c4.676 0 8.4666 3.7905 8.4666 8.4666 0 4.676-3.7905 8.4666-8.4666 8.4666-4.676 0-8.4666-3.7905-8.4666-8.4666 0-4.676 3.7905-8.4666 8.4666-8.4666zm-4.0224 3.1347-1.3095 1.3095c1.3408 1.3408 2.6816 2.6816 4.0224 4.0224l-4.0224 4.0224 1.3095 1.3095 4.0224-4.0224 4.0224 4.0224 1.3095-1.3095-4.0224-4.0224 4.0224-4.0224-1.3095-1.3095-4.0224 4.0224z" fill="#2e313b"/>
</svg>