<?xml version="1.0" encoding="UTF-8"?>
<svg version="1.1" viewBox="0 0 47.912 28.688" xmlns="http://www.w3.org/2000/svg">
<g transform="translate(-26.413 38.803)">
<path d="m27.028-27.962c0.01516 1.0219 0.31544 2.0697 0.93945 3.0137 1.053 1.5929 2.8688 2.6419 4.9219 2.8418 0.75516 0.07354 0.74402 0.05859 0.99414 1.25 0.46328 2.2068 1.868 4.0272 3.8887 5.0371 1.1457 0.57263 2.1129 0.79432 3.4434 0.79102 1.9232-0.0047 3.5663-0.6946 5.1797-2.1738 0.41376-0.37937 0.48403-0.41653 0.65234-0.33984 0.13838 0.06305 0.20426 0.1782 0.24609 0.43164 0.17563 1.0641 0.81454 2.5112 1.5078 3.4121 1.1086 1.4408 2.7332 2.4746 4.3438 2.7656 1.9233 0.34747 3.9567-0.09595 5.627-1.2266 0.95318-0.64521 2.0986-2.0678 2.5352-3.1484 0.2179-0.53946 0.38875-0.77734 0.55859-0.77734 0.05956 0 0.3154 0.19128 0.56836 0.42383 0.86552 0.7957 1.709 1.2739 2.875 1.6309 0.63096 0.19314 0.83158 0.21505 1.9434 0.21875 1.381 0.0046 1.8442-0.08516 2.8398-0.54883 1.5284-0.71177 2.6135-1.9991 3.207-3.8047 0.20703-0.62985 0.22422-0.77734 0.22852-2 7.11e-4 -0.20426-0.0012-0.33478-2e-3 -0.48438l-0.08789-0.01367c-0.0053 0.03828-0.0047 0.08448-0.01563 0.11328-0.13412 0.35276-1.1219 1.4851-1.625 1.8633-1.1216 0.84315-2.2201 1.2295-3.6875 1.2988-1.6455 0.07772-3.273-0.25796-4.9648-1.0254-0.49048-0.22248-0.94303-0.41057-1.0039-0.41797-0.06282-0.0076-0.23484 0.22903-0.39844 0.54688-0.43937 0.85363-1.3803 1.7671-2.25 2.1836-0.374 0.17911-0.89616 0.38347-1.1602 0.45508-0.65902 0.17877-2.1001 0.22398-2.8008 0.08789-2.6972-0.52384-4.8504-1.7457-5.877-3.334-0.43336-0.67049-0.58645-1.2179-0.54883-1.9629 0.01642-0.32506-0.0027-0.58984-0.04102-0.58984-0.03831 0-0.31327 0.225-0.61133 0.5-2.0453 1.8871-5.9584 2.8962-8.6074 2.2188-1.4464-0.36994-2.9013-1.5034-3.2695-2.5469-0.31889-0.90382-0.36534-3.1587-0.08203-3.957 0.07501-0.21138 0.11778-0.40175 0.0957-0.42383-0.02208-0.02209-0.26646 0.01819-0.54297 0.08984-1.7891 0.46361-3.8373 0.46025-5.3145-0.0098-1.5488-0.49279-3.4342-1.6249-3.5723-2.1445-0.01294-0.0487-0.01149-0.14153-0.01367-0.22656z" fill="#c4e3f6" stroke-width=".08"/>
<path d="m56.059-15.509c-0.82376-0.06481-2.2936-0.48293-3.3036-0.93976-1.577-0.71332-2.8574-1.8403-3.3666-2.9634-0.19827-0.43727-0.25046-0.70967-0.26779-1.3977-0.0088-0.34764-0.02351-0.63966-0.03278-0.64893-0.02812-0.02812-0.17713 0.08668-0.63319 0.48784-1.2997 1.1432-2.9939 1.915-4.9901 2.2731-1.0248 0.18384-2.2677 0.20885-3.1089 0.06257-0.68295-0.11875-1.4712-0.42129-2.0656-0.79281-0.56401-0.35253-1.1925-0.94917-1.4535-1.3797-0.30694-0.50644-0.41201-0.95142-0.48858-2.069-0.05559-0.81148-0.0029-1.7204 0.1271-2.192 0.04503-0.16337 0.09238-0.36386 0.10522-0.44554 0.02162-0.13753 0.01618-0.14852-0.0736-0.14852-0.05332 0-0.37201 0.06182-0.70818 0.13738-0.95921 0.21558-1.4772 0.27213-2.4924 0.2721-1.6107-4.3e-5 -2.5341-0.217-4.0198-0.94446-0.96774-0.47384-1.7836-1.0252-2.0184-1.364-0.05628-0.08121-0.10037-0.20044-0.10037-0.27141 0-0.09125-0.01825-0.12658-0.06537-0.12658-0.05802 0-0.06277-0.04568-0.04219-0.40594 0.08441-1.4782 0.78101-2.8007 1.9339-3.6714 0.59976-0.45296 1.5808-0.88312 2.3002-1.0086 0.50589-0.08822 1.5053-0.11928 2.1585-0.06708 0.96701 0.07728 1.381 0.19375 2.4952 0.70194 0.76783 0.35022 0.88344 0.36663 0.99823 0.14164 0.04237-0.08304 0.15074-0.39738 0.24083-0.69854 0.27513-0.91972 0.48869-1.4053 0.88914-2.0218 1.5322-2.3587 4.4781-3.4656 7.4679-2.806 1.3177 0.29068 2.4234 0.92549 3.4489 1.9801 0.68568 0.70511 1.0372 1.255 1.5028 2.3509l0.28108 0.66155 0.56182 0.02748c1.4694 0.07186 2.332 0.28219 3.5915 0.87573 0.6962 0.32808 0.88639 0.39157 0.99652 0.33263 0.04088-0.02188 0.24034-0.24837 0.44326-0.50332 0.85117-1.0694 1.8196-1.7599 3.0751-2.1924l0.37624-0.12961 1.1447-0.01503c1.3062-0.01715 1.5811 0.01015 2.1763 0.21612 1.7832 0.61711 3.0972 1.9851 3.7227 3.8755 0.19267 0.58229 0.22219 0.81033 0.22299 1.7224 3.96e-4 0.46832-0.02029 1.0457-0.046 1.283-0.04573 0.42218-0.04489 0.43302 0.03874 0.50074 0.05255 0.04255 0.21932 0.08687 0.43283 0.11502 1.7457 0.2302 2.9884 0.82956 4.1493 2.0012 0.53806 0.54303 0.88802 1.029 1.2424 1.7252 0.37556 0.7378 0.56143 1.3225 0.58938 1.854 0.01185 0.22543 0.0055 0.42146-0.01403 0.43564-0.01958 0.01418-0.07632 0.10695-0.1261 0.20616-0.13408 0.26721-0.59917 0.83094-1.0952 1.3274-1.2472 1.2484-2.9393 1.8403-4.9818 1.7425-1.3792-0.06602-2.5867-0.36134-4.0107-0.98097-0.34852-0.15165-0.74732-0.31955-0.88624-0.37312-0.2431-0.09374-0.25551-0.09474-0.33063-0.02676-0.04293 0.03885-0.1493 0.19549-0.23639 0.3481-0.50068 0.87733-1.0677 1.5069-1.8108 2.0105-0.56103 0.38023-1.4791 0.74965-2.0916 0.84158-0.37996 0.05704-1.5005 0.10199-1.8523 0.07431z" fill="#fff" stroke="#fff" stroke-linejoin="round" stroke-width=".039604"/>
<path d="m53.893-10.134c-0.154-0.01934-0.352-0.06701-0.44-0.10592-0.088-0.03891-0.40932-0.1298-0.71405-0.20198-1.9524-0.46242-3.7751-1.7637-4.9106-3.5057-0.38516-0.5909-0.8465-1.6324-0.94808-2.1403-0.08326-0.41628-0.22686-0.44875-0.60718-0.13729-0.9439 0.77302-2.0426 1.3406-3.222 1.6644-0.90576 0.24872-2.7906 0.30917-3.7273 0.11955-0.88534-0.17923-1.6677-0.48982-2.3569-0.93564-1.7765-1.1492-3.1603-2.9197-3.5228-4.5074-0.27811-1.218-0.34448-1.3926-0.57305-1.5078-0.11994-0.06043-0.44604-0.13267-0.72467-0.16052-0.59444-0.05943-1.8203-0.45279-2.3334-0.74877-1.3745-0.79287-2.624-2.2921-3.0384-3.6456-0.0972-0.31753-0.21833-0.66377-0.26917-0.76944-0.12429-0.25831-0.12288-2.1616 0.0018-2.4158 0.05183-0.10566 0.16931-0.42775 0.26108-0.71576 0.25632-0.80446 0.69906-1.4905 1.4447-2.2386 0.74984-0.75234 1.3756-1.1305 2.4-1.4504 0.54121-0.16899 0.74501-0.18693 2.08-0.18308 1.3691 0.0039 1.5318 0.02021 2.1711 0.21707 0.3801 0.11704 0.89946 0.30495 1.1541 0.41758 0.51739 0.22881 0.53511 0.22052 0.68189-0.31892 0.14289-0.52516 0.6851-1.6209 1.0626-2.1475 0.48893-0.68194 1.4914-1.6329 2.2273-2.1128 0.67171-0.43807 1.7355-0.86135 2.3793-0.94676 0.22397-0.02971 0.42653-0.08527 0.45014-0.12348 0.06054-0.09795 1.9325-0.08805 1.9935 0.01055 0.02719 0.044 0.13329 0.08 0.23577 0.08 0.3169 0 1.574 0.39213 2.1971 0.68536 0.74722 0.35162 1.4254 0.83535 2.0732 1.4787 0.63625 0.63192 1.0591 1.2525 1.508 2.213 0.41565 0.88947 0.55734 0.9829 1.4906 0.9829 0.78728 0 1.6942 0.23905 2.6016 0.68579l0.74624 0.36737 0.60318-0.64926c0.96269-1.0362 2.0383-1.7044 3.3043-2.0527 0.72748-0.20014 2.5539-0.20558 3.28-0.0098 1.1085 0.29894 2.2603 1.0205 3.1313 1.9614 1.2262 1.3247 1.8304 3.0052 1.725 4.7979-0.05107 0.86855-0.01513 0.93235 0.56872 1.0098 0.46569 0.06178 1.3504 0.35234 1.8565 0.60975 1.1084 0.56372 2.4132 1.7636 3.0743 2.8273 0.37241 0.59913 0.9219 1.9895 0.92341 2.3365 4e-4 0.0902 0.04302 0.2063 0.09472 0.25801 0.12367 0.12367 0.13386 2.0135 0.01225 2.2708-0.04867 0.10297-0.14812 0.4175-0.22098 0.69896-0.45629 1.7625-2.0613 3.6052-3.8444 4.4137-1.6186 0.73389-3.6618 0.81846-5.4392 0.22514-0.80767-0.2696-1.3607-0.56485-2.0852-1.1132-0.27207-0.20593-0.53228-0.39766-0.57824-0.42606-0.04755-0.02939-0.22095 0.19842-0.4023 0.52854-0.71507 1.3017-1.7036 2.3818-2.9025 3.1717-0.6999 0.46109-1.7143 0.8963-2.3613 1.0131-0.17167 0.03098-0.35251 0.08822-0.40187 0.12719-0.10055 0.07939-1.6768 0.153-2.1103 0.09856zm1.6247-0.75629c1.1503-0.17199 2.2929-0.61719 3.2545-1.2681 0.95318-0.64521 2.0984-2.0675 2.5349-3.1482 0.2179-0.53946 0.38914-0.7777 0.55898-0.7777 0.05956 0 0.31526 0.19027 0.56822 0.42282 0.86553 0.7957 1.7089 1.2742 2.875 1.6311 0.63096 0.19314 0.83194 0.21584 1.9437 0.21957 1.381 0.0046 1.8443-0.08486 2.84-0.54853 1.5284-0.71177 2.6138-1.9994 3.2073-3.805 0.20703-0.62985 0.22385-0.77734 0.22811-2 0.0045-1.2815-0.0027-1.3403-0.2453-2.0183-0.87165-2.4358-3.0502-4.2025-5.5501-4.5007-0.77531-0.0925-0.75085-0.06953-0.67049-0.62964 0.03877-0.2702 0.06664-0.90528 0.06193-1.4113-0.0075-0.81032-0.03909-1.0106-0.26474-1.68-0.62874-1.8652-1.9524-3.2219-3.7267-3.8197-0.59233-0.19957-0.73833-0.21564-1.96-0.21577-1.2755-1.36e-4 -1.342 0.0081-1.9732 0.24381-1.182 0.44143-2.1925 1.1948-2.8668 2.1375-0.176 0.24604-0.3841 0.46967-0.46244 0.49694-0.08908 0.03102-0.44278-0.10468-0.94421-0.36225-0.99955-0.51343-2.0245-0.78328-3.2383-0.85261l-0.90206-0.05152-0.28533-0.68818c-0.44267-1.0677-0.82964-1.6628-1.5677-2.4108-1.3573-1.3757-3.0698-2.0774-5.0696-2.0774-3.3084 0-5.9158 1.9723-6.7096 5.0753-0.10295 0.40246-0.23665 0.74246-0.31022 0.78886-0.0985 0.06213-0.30806-0.0065-0.87996-0.28807-1.1509-0.5667-1.8758-0.72876-3.2707-0.73124-1.3579-0.0024-2.0137 0.14609-3.0683 0.69474-2.6437 1.3754-3.4123 4.8617-1.6571 7.517 1.053 1.5929 2.8695 2.6415 4.9225 2.8414 0.75516 0.07354 0.74291 0.05812 0.99303 1.2495 0.46328 2.2068 1.8692 4.0273 3.8899 5.0373 1.1457 0.57263 2.1123 0.79488 3.4427 0.79162 1.9232-0.0047 3.5674-0.69463 5.1808-2.1739 0.41376-0.37936 0.48376-0.41576 0.65207-0.33908 0.13838 0.06305 0.20372 0.1778 0.24555 0.43124 0.10474 0.63464 0.44973 1.6187 0.80094 2.2848 1.5068 2.8575 4.3931 4.3875 7.4226 3.9345z" fill="#6bbce9" stroke-width=".08"/>
</g>
</svg>