<?xml version="1.0" encoding="UTF-8"?>
<svg version="1.1" viewBox="0 0 26.458 26.458" xmlns="http://www.w3.org/2000/svg">
<path d="m13.229 3.3073a9.9219 9.9219 0 0 0-9.9219 9.9219 9.9219 9.9219 0 0 0 9.9219 9.9219 9.9219 9.9219 0 0 0 9.9219-9.9219 9.9219 9.9219 0 0 0-9.9219-9.9219zm0 1.4552a8.4667 8.4667 0 0 1 8.4667 8.4667 8.4667 8.4667 0 0 1-8.4667 8.4667 8.4667 8.4667 0 0 1-8.4667-8.4667 8.4667 8.4667 0 0 1 8.4667-8.4667zm-4.101 3.175v10.583h1.5875v-4.4979h5.0271v4.4979h1.5875v-10.583h-1.5875v4.4979h-5.0271v-4.4979h-1.5875z" fill="#2e313b"/>
</svg>