<?xml version="1.0" encoding="UTF-8"?>
<svg width="1200" height="600" version="1.1" viewBox="60 10 1200 600" xmlns="http://www.w3.org/2000/svg">
<path d="m996.24 531.68-1.77 7.15 0.35 5 5.32-0.36 6.03-9.29zm-64.57-68.28-0.35 25.38-3.9 2.86-0.35 2.5 5.32 3.57 13.13-2.5h6.74l2.48-3.58 14.9-2.86 10.64 3.22-0.71 4.29 1.42 4.29 8.16-1.43 0.35 2.14-5.32 3.93 1.77 1.43 3.9-1.43-1.06 11.8 7.45 5.72 4.26-1.43 2.13 2.14 12.42-1.79 11.71-18.95 4.26-1.07 8.51-15.73 2.13-13.58-5.32-6.79 2.13-1.43-4.26-13.23-4.61-3.22 0.71-17.87-4.26-3.22-1.06-10.01h-2.13l-7.1 23.59-3.9 0.36-8.87-8.94 4.97-13.23-9.22-1.79-10.29 2.86-2.84 8.22-4.61 1.07-0.35-5.72-18.8 11.44 0.35 4.29-2.84 3.93h-7.1l-15.26 6.43z" icao="Y"/>
<path d="m328.72 84.085 1.99 3.01 1 4.02 4.98 1.25 3.49-3.76 2.99 1.51 8.47 0.75 5.98-2.51 1 8.28h3.49v-3.51l3.49 0.25 8.72 10.29 5.73 3.51-2.99 4.77 1.25 1.25 11.19 2.26 0.25 5.02 2.99 0.5 0.75-7.53 4.73-1.25 3.49 5.27 7.47 3.51 3.74 0.75 2.49-3.01 0.25-4.77 4.48-2.76 1.49 4.02-3.99 7.03 0.5 3.51 2.24-3.51 4.48-4.02 0.25-5.27-2.49-4.02 0.75-3.26 5.98-3.01 2.74 2.01 0.5 17.57 4.23-3.76 2.49 1.51-3.49 6.02 4.48 1 6.48-10.04 5.48 5.77-2.24 10.29-5.48 3.01-5.23-2.51-9.46 2.01 1 3.26-2.49 4.02-7.72 1.76-8.72 6.78-7.72 10.29-1 3.26 5.23 2.01 1.99 5.02 7.22 7.28 11.46 5.02-2.49 11.54-0.25 3.26 2.99 2.01 3.99-5.27 0.5-10.04 6.23-0.25 2.99-5.77 0.5-8.78 7.97-15.56 9.96 3.51 5.23 7.28-2.24 7.28 3.99 2.26 9.71-6.53 2.74 17.82 8.97 10.79 0.25 5.52-9.96 2.51-4.73 5.02-9.96-2.26-4.98-0.25-8.72 6.78 5.23-1.25 6.48-1.25 1.25 1.51-1.74 5.52 0.25 5.02 2.99 2.01 2.99-0.75 1.5-2.26h1.99l-3.24 6.02-6.23 0.25-2.74 4.02h-3.49l-1-3.01 4.98-5.02-5.98 2.01-0.27-8.53-1.72-1-5.23 2.26-0.5 4.27h-11.96l-10.21 7.03-13.7 4.52-1.49-2.01 6.9-10.3-3.92-3.77-2.49-4.78-5.07-3.87-5.44-0.45-9.75-6.83-70.71-11.62-1.17-4.79-6.48-6.02v-5.02l1-4.52-0.5-2.51-2.49-2.51-0.5-4.02 6.48-4.52-3.99-21.58-5.48-0.25-4.98-6.53z" icao="C"/>
<path d="m844.3 205.6 5.82-7.72 6.99 3.23 4.75 1.27 5.82-5.34-3.95-2.91 2.6-3.67 7.76 2.74 2.69 4.41 4.86 0.13 2.54-1.89 5.23-0.21 1.14 1.94 8.69 0.44 5.5-5.61 7.61 0.8-0.44 7.64 3.33 0.76 4.09-1.86 4.33 2.14-0.1 1.08-3.14 0.09-3.27 6.86-2.54 0.25-9.88 12.91-10.09 4.45-6.31 0.49-5.24-3.38-6.7 3.58-6.6-2.05-1.87-4.79-12.5-0.88-6.4-10.85-3.11-0.2zm104.48 24.1 1.84 0.77 0.56 6.44 3.65 0.21 3.44-4.03-1.19-1.06 0.14-4.32 3.16-3.82-1.61-2.9 1.05-1.2 0.58-3-1.83-0.83-1.56 0.79-1.93 5.86-3.12-0.27-3.61 4.26zm-107.88-24.2-3.46 8.7-4.77-0.25-5.03 11.01 4.27 5.44-8.8 12.15-4.52-0.76-3.02 3.8 0.75 2.28 3.52 0.25 1.76 4.05 3.52 0.76 10.81 13.93v7.09l5.28 3.29 5.78-1.01 7.29 4.3 8.8 2.53 4.27-0.51 4.78-0.51 10.05-6.58 3.27 0.51 1.25 2.97 2.77 0.83 3.77 5.57-2.51 5.57 1.51 3.8 4.27 1.52 0.75 4.56 5.03 0.51 0.75-2.28 7.29-3.8 4.52 0.25 5.28 5.82 3.52-1.52 2.26 0.25 1.01 2.79 1.76 0.25 2.51-3.54 10.05-3.8 9.05-10.89 3.02-10.38-0.25-6.84-3.77-0.76 2.26-2.53-0.5-4.05-9.55-9.62v-4.81l2.76-3.54 2.76-1.27 0.25-2.79h-7.04l-1.26 3.8-3.27-0.76-4.02-4.3 2.51-6.58 3.52-3.8 3.27 0.25-0.5 5.82 1.76 1.52 4.27-4.3 1.51-0.25-0.5-3.29 4.02-4.81 3.02 0.25 1.76-5.57 2.06-1.09 0.21-3.47-2-2.1-0.17-5.48 3.85-0.25-0.25-14.13-2.7 1.62-1.01 3.62-4.51-0.01-13.07-7.35-9.44-11.38-9.58-0.1-2.44 2.12 3.1 7.1-1.08 6.66-3.86 1.6-2.17-0.17-0.16 6.59 2.26 0.51 4.02-1.77 5.28 2.53v2.53l-3.77 0.25-3.02 6.58-2.76 0.25-9.8 12.91-10.3 4.56-7.04 0.51-4.77-3.29-6.79 3.55-7.29-2.28-1.76-4.81-12.31-0.76-6.53-10.63h-2.76l-2.22-4.93z" icao="Z"/>
<path d="m903.21 350.88 2.01 4.51 0.45 5.86 2.69 4.17 6.49 3.94 2.46 0.23-0.45-4.06-2.13-5.18-3.12-6.63-0.26 1.16-3.76-0.17-2.7-3.88zm31.43 17.47 3.02 3.49 11.58-4.01 2.29-8.84 5.16-0.37 4.72-3.42-6.12-4.46-1.4-2.45-3.02 5.57 1.11 3.2-1.84 2.67-3.47-0.89-8.41 6.17 0.22 3.57zm-41.66-15.35-0.28 2.28 6.79 11.41h1.98l14.15 23.67 5.66 0.57 2.83-8.27-4.53-2.85-0.85-4.56zm59.2 6.83-2.31 8.68-12.53 4.23-3.75-4.4-1.82 0.5 3.4 13.12 5.09 0.57 6.79 2.57v2.57l3.11-0.57 4.53-6.27v-5.13l2.55-5.13 2.83 0.57-3.4-7.13-0.52-4.59zm7.85 24.71 2.26 2.77-1.47 4.16v0.79h3.34l1.18-10.4 1.08 0.3 1.96 9.5 1.87 0.5 1.77-4.06-1.77-6.14-1.47-2.67 4.62-3.37-1.08-1.49-4.42 2.87h-1.18l-2.16-3.17 0.69-1.39 3.64-1.78 5.5 1.68 1.67-0.1 4.13-3.86-1.67-1.68-3.83 2.97h-2.46l-3.73-1.78-2.65 0.1-2.95 4.75-1.87 8.22zm42.4-9.77-4.17 0.47-2.68 1.96 1.11 2.24 4.54 0.84v0.84l-2.87 2.33 1.39 4.85 1.39 0.09 1.2-4.76h2.22l0.93 4.66 10.83 8.96 0.28 7 3.7 4.01 1.67-0.09 0.37-24.72-6.29-4.38-5.93 4.01-2.13 1.31-3.52-2.24-0.09-7.09zm-78.76 18.98-2.75 1.88 0.59 1.58 8.75 1.98 4.42 0.79 1.87 1.98 5.01 0.4 2.36 1.98 2.16-0.5 1.97-1.78-3.64-1.68-3.14-2.67-8.16-1.98zm26.6-39.07-2.88 3.49 2.36 0.74 1.33-1.86z" icao="W"/>
<path d="m1083.5 517.38 1.06 11.8-1.42 5.36-5.32 3.93 0.35 4.65v5l1.42 1.79 14.55-12.51v-2.86h-3.55l-4.97-16.8zm-10.64 25.74 2.84 5.36-7.81 7.51-0.71 3.93-5.32 0.71-8.87 8.22-8.16-3.93-0.71-2.86 14.9-6.43z" icao="N"/>
<path d="m1023.3 383.72-0.37 24.44 3.52-0.19 4.63-5.41 3.89 0.19 2.5 2.24 0.83 6.9 7.96 4.2 2.04-0.75v-2.52l-6.39-5.32-3.15-7.28 2.5-1.21-1.85-4.01-3.7-0.09-0.93-4.29-9.81-6.62z" icao="A"/>
<path d="m668.22 140 1.96 1.81h3.67l2.02 3.88 0.55 6.65-4.95 3.51v3.51l-3.49 4.81-2.02 0.18-2.75 4.62 0.18 4.44 4.77 3.51-0.37 2.03-1.83 2.77-2.75 2.4 0.18 7.95-4.22 1.48-1.47 3.14h-2.02l-1.1-5.54-4.59-7.04 3.77-6.31 0.26-15.59 2.6-1.43 0.63-8.92 7.41-10.61zm13.74 70.18 0.85 1.56 0.2 1.66-0.7 1.61-1.6 3.08-1.35 0.61-1.75-0.76-1.05 0.05-2.55 0.96-2.9-0.86-4.7-3.33-4.6-2.47-1.85-2.82-0.35-6.65 3.6-3.13 4.7-1.56 1.75-0.2-0.7 1.41 0.45 0.55 7.91 0.15 1.7-0.05 2.8 4.29-0.7 1.76 0.3 2.07zm4-72.62 2.02-1.48-0.18-1.66-1.28-0.74 0.18-2.03h1.1v-1.11l-4.77-1.29-7.15 0.74-0.73 3.14-1.65-0.55-1.1-1.85-3.49 0.18-0.37 3.51-1.65 0.74-0.92-1.85-7.34 5.91 1.47 1.66-2.75 1.29-6.24 12.38-2.2 1.48 0.18 1.11 2.2 1.11-0.55 2.4-3.67-0.19-1.1-1.29-2.38 2.77-1.47 1.11-0.37 2.59-1.28 0.74-3.3 0.74-1.65 5.18 1.1 8.5 1.28 3.88 1.47 1.48 3.3-0.18 4.77-4.62 1.83-3.14 0.55 4.62 3.12-5.54 0.18-15.53 2.54-1.6 0.76-8.57 7.7-11.09 3.67-1.29 1.65-2.03 5.5 1.29 2.75 1.66 0.92-4.62 4.59-2.77zm-45.37 66.13-4.53 2.23 0.96 0.87 0.1 2.23-0.96-0.19-1.06-1.65-2.53 4.01 3.89 0.81 1.45 1.53 0.77 0.02 0.51-3.46 2.45-1.03zm47.98-16.9-6.85-1.11 0.15 3.83 6.35 3.88 2.6-0.76-0.15-2.92zm-7.26 3.33-2.15-0.05-2.95 2.82h-2.5l0.15 3.53-1.5 2.77 5.4 0.05 1.55-0.2 1.55 1.87 3.55-0.15 3.4-4.33-0.2-2.57zm-71.3 11.85-0.91 6-8.07 2.96h-2.57l-1.83-1.29v-1.11l4.04-2.59-1.1-2.22 0.18-3.14 3.49 0.18 1.6-3.76-0.21 3.34 2.71 2.15zm6.61-17.47-1.83 2.77 0.73 1.11h4.22v1.85l-1.1 1.48 0.73 3.88 2.38 4.62 1.83 4.25 2.93 1.11 1.28 2.22-0.18 2.03-1.83 1.11-0.18 0.92 1.28 0.74-1.1 1.48-2.57 1.11-4.95-0.55-7.71 3.51-2.57-1.29 7.34-4.25-0.92-0.55-3.85-0.37 2.38-3.51 0.37-2.96 3.12-0.37-0.55-5.73-3.67-0.18-1.1-1.29 0.18-4.25-2.2 0.18 2.2-7.39 4.04-2.96zm-7.7 12.39-3.3 0.37-0.18 2.96 2.2 1.48 2.38-0.55 0.92-1.66zm68.37-44.53 2.07 0.91 1.28 2.4-1.28 1.66-6.42 7.02-1.1 3.7 1.47 5.36 4.95 3.7 6.6-3.14 5.32-0.74 4.95-7.95-3.67-8.69-3.49-8.32 0.55-5.36-2.2-0.37-0.57-3.91-2.96-4.83-3.28 2.27-1.29 5.27-3.48-2.09-4.84-1.18-1.08 1.26 1.86 1.68 3.39-0.06 2.73 4.41zm10.98 26.72-5.6-0.2-3.55 2.17-0.05 1.61 2.3 2.17 7.15 1.21zm-41 7.84-4.15 4.59-0.15 2.99 1.89 4.93 2.96-0.56-0.37-4.03 2.04-2.28-0.04-1.79-1.44-3.73zm-5.63 16.38 3.57-0.58v-2.52l2.99-0.49 1.64 1.65 1.73 0.19 2.7-1.17 2.41 0.68 2.12 1.84 0.29 6.89 2.12 2.82-2.79 0.39-4.63 2.91 0.39 0.97 4.14 3.88-0.29 1.94-3.85 1.94-3.57 0.1-0.87 1.84h-1.83l-0.87-1.94-3.18-0.78-0.1-3.2-2.7-1.84 0.29-2.33-1.83-2.52 0.48-3.3 2.5-1.17zm-9.53 8.64-0.64 1.6 6.88 4.54 1.98 0.47 0.07-2.15-1.73-1.94h-1.06l-1.45-1.65z" icao="E"/>
<path d="m580.62 325.74-3.94 2.86-0.9 1.6-0.28 1.6 1.45 1.04 4.84-0.07 3.11-0.84 0.35 1.53-0.28 2.02 2.97 1.46 0.62 0.7 3.94 0.14 0.14-1.74-3.6-4.32-4.01-5.43-2.49-1.04zm-2.09 12.91 0.69-1.86 9.34 0.85-0.62-0.7-2.97-1.46-7.68 0.16m7.14 12.91 5.65 5.46 4.03-4.89-2.52-3.95-3.47 0.35zm-9.03-36.47 2.18 2.85-0.45 12.32 3.17-2.28 2.26-0.46 3.17 1.14 3.62 5.02 3.4-2.28 16.53-0.23-4.08-27.61 4.38-0.02-8.16-6.25 0.01 4.06-10.33 0.01-0.05 7.75-2.97-0.01-0.38 5.72zm14.56 19.18 3.08-2.11 17.12-0.1-3.96-27.54 4.52-0.13 21.87 16.69 2.94 0.42-1.11 9.28-13.75 1.25-10.61 7.92-1.93 5.42-7.37 0.31-1.88-5.41-5.65 0.4 0.22-1.77zm28.83-63.56h-11.55l-2.26 5.02-5.21 2.51-4.3 11.64-8.38 5.02-11.77 19.39 11.55-0.23 0.45-5.7h2.94v-7.76h10.19l0.23-10.04 9.74-2.28 4.08-6.62 6.34-0.23zm-28.12 86.91 10.98 7.34-0.26-5.56-3.32-3.91-3.24-2.87zm-11.57-14.66 1.4 2.77 3.93-3.38 0.04-1.04-4.63-0.67zm1.82 3.41 3.04 4.68 3.96-3.44 4.06-0.18 3.38 4.49 2.87 1.89 1.08-2.1 0.96-0.54-0.07-4.62-1.91-5.48-5.86 0.65-7.25-0.58-0.04 1.86zm-3.53-9.6-0.13 1.11 6.92-0.1 0.35-1.03-0.15-1.04-1.99 0.81z" icao="G"/>
<path d="m372.15 331.7 4.7 2.34-0.07-3.71-2.41-1.47zm69.4-15.21-2.64-0.89-2.12 1.33 1.06 1.24 3.61 0.53zm-50.46 28.55-1.46 4.56 4.82 1.25 2.99 0.59 0.51-3.53 3.21-1.62 2.85 1.47 1.12 1.79 1.36-0.16 1.07-3.25-3.56-1.47-2.7-1.47-2.7 1.84-3.21 1.62-3.28-1.32zm-2.85-17.5 2.19 0.44 0.07 4.49-2.55 7.28-6.87-0.68-1.53-3.51 2.04-4.26 3.87-3.6zm-80.25-66.68 4.83 15.21-2.25 1.26 0.25 3.02 4.25 3.27v6.05l5.25 5.04-2.25-14.86-3-9.83 0.75-6.8 2.5 0.25 1 2.27-1 5.79 13 25.44v9.07l10.5 12.34 11.5 5.29 4.75-2.77 6.75 5.54 4-4.03-1.75-4.54 5.75-1.76 1.75 1.01 1.75-1.76h2.75l5-8.82-2.5-2.27-9.75 2.27-2.25 6.55-5.75 1.01-6.75-2.77-3-9.57 2.27-12.07-4.64-2.89-2.21-11.59-1.85-0.79-3.38 3.43-3.88-2.07-1.52-7.73-15.37-1.61-7.94-5.97zm101.44 54.16-3.48 0.88v0.97l2.03 1.17h2.13l1.35-1.56zm11.93-4.21 3.44 0.36-0.41 4.22-0.34 2.22-4.01-0.22-0.71 1.07-1.23-0.09-0.44-2.31 4.23-0.35-0.26-2.4-1.94-0.8zm-43.31 13.4 9.24-0.35 2.74 3.26-1.71-0.39-3.29 0.14-4.3 4.04-1.84 4.09-1.21-0.64-0.01-4.48-2.66-1.78zm-12.67 2.74 5.93 4.34 5.98-7.43-1.02-1.54-2.04-0.07v-4.35l-1.53-0.93-4.63 1.38 1.77 4.08zm81.72-8.15-1.5 0.62 0.53 1.33 1.76-1.15-0.35-0.36zm-13.49-2.93-5.29-3.46-2.5-0.85-0.84 6 0.88 1.69 1.15-1.33 3.35-0.89 2.91 0.62zm15.96 4.44-0.88 1.87 1.06 1.42 1.32-1.15zm-58.22-17.96v1.27l5.32 0.1 2.51-1.46 0.39 1.07 5.22 1.27 4.64 4.19-1.06 1.46 0.19 1.66 3.87 0.97 3.87-1.75 1.74-1.75-2.51-1.27-12.95-7.6-4.54-0.49zm-3.47 38.06 1.39 2.72 1.13 1.5-1.52 4.51-2.9-2.04-4.74-4.34v-2.87zm-12.82-22.58-0.05 3.65h0.84l2.86-5.34h-1.94z" icao="M"/>
<path d="m645.41 262.76 5.53-2.23 1.82 1.18 0.07 1.44-0.85 1.11 0.13 1.97 0.85 0.46v3.54l-0.98 1.64 0.13 1.05 3.71 1.31-2.99 4.65-1.17-0.07-0.2 3.74-1.3 0.2-1.11-0.98 0.26-3.8-3.64-3.54-0.46-3.08 1.76-1.38zm-19.69 93.92 2.68-1.57-0.06-10.35-1.74-2.82-1.12 0.94zm6.35-1.88 3.92 0.19 4.73 5.27 2.3 0.63 1.8-0.88 2.74-0.38 0.93-3.82 3.73-2.45 4.04-0.19 7.4-13.61-0.12-3.07-3.42-2.63-6.84 3.01-9.15-0.13-4.36-2.76-3.11 0.69-1.62 2.82-0.12 7.96-2.61 3.7zm-0.68-17.37 2.55-0.06 2.3-3.45 3.86-0.69 4.11 2.51 8.77 0.25 6.78-2.76 2.55-2.19 0.19-2.88 4.73-4.77 1.25-10.53-3.11-6.52-7.96-1.94-18.42 14.36-2.61-0.25-1.12 9.97-9.4 0.94zm-16.55 15.05 1.12 2.63 2.92 4.58 1.62-0.06 4.42-2.51-0.31-14.29-3.42-1-4.79 0.13zm29.54-89.56-4.08-1.37-16.98 3.19-3.7 2.81 2.26 11.67-6.75 0.27-4.06 6.53-9.67 2.32 0.03 4.75 31.85 24.35 5.43 0.46 18.11-14.15-1.81-2.28-3.4-0.46-2.04-3.42v-14.15l-1.36-1.37 0.23-3.65-3.62-3.65-0.45-3.88 1.58-1.14-0.68-4.11zm-41.81 99.26 4.28-3.03 5.32-0.93 5.43 1.17-2.77-4.19-0.81-2.56 0.81-7.57-4.85 0.23-2.2-2.1-4.62 0.12-2.2 0.35 0.23 5.12-1.16 0.47-1.39 2.56 3.58 4.19zm26.64-7.26h2.12l0.12-6.02 2.68-3.89-0.12-6.77-2.43-0.06-4.17 3.26 1.74 3.32zm-8.12-25.21 3.64-0.29 5.97 8.44-5.54 4.18-4.01-1.03-5.39 0.07-0.87 3.16-4.52 0.22-1.24-1.69 1.6-5.14z" icao="D"/>
<path d="m729.2 244.62-2.23 2.36-8.2-0.24-4.92-2.95-4.8-0.12-5.51 3.9-5.16 0.24-0.47 2.95h-5.86l-2.34 2.13v1.18l1.41 1.18v1.3l-0.59 1.54 0.59 1.3 1.88-0.94 1.88 2.01-0.47 1.42-0.7 0.95 1.05 1.18 5.16 1.06 3.63-1.54v-2.24l1.76 0.35 4.22 2.48 4.57-0.71 1.99-1.89 1.29 0.47v2.13h1.76l1.52-2.95 13.36-1.42 5.83-0.71-1.54-2.02-0.03-2.73 1.17-1.4-4.26-3.42 0.23-2.95h-2.34zm-62.86-22.06 0.69 0.61 0.09 1.04 7.63-0.17 5.64-2.43-0.09-2.47-1.08 0.48-1.55-0.83-0.95-0.04-2.5 1-3.4-0.82zm-1.04 4.86-2.54 1.52-4.74 1.04 0.95 2.74 3.32 0.04 3.06-2.56zm10.751 2.5491-2.0508 1.541h-1l-0.67969 2.1191 2.4199 2.8106 0.16016 2.2305-0.3418 0.48243 1.6367 2.2988 0.0566 1.2188 1.1777 1.1406 3.8398-1.1699-0.32031-5.4609zm6.6292-6.9391-0.26 1.48-5.79 4.82 4.84 7.1 3.1 2.17h5.58l1.84-1.54 2.47-0.32 1.84 1.11 3.26-3.71-0.63-1.86-3.31-0.85-2.26-0.11 0.11-3.18-3-4.72zm-81.25 23.64-0.62 8.65-1.77 1.6 0.18 0.98 1.24 2.05-0.8 2.5 1.33 0.45 3.1-0.36-0.18-2.5 2.03-11.59-0.44-1.6zm79.99-3.23-3.37 1.11 0.16 2.86 0.79 1.01 4-1.86zm-6.0177-0.76195-0.0449-0.93555-1.3203-1.8535-2.1367 3.0215 0.41992 1.2695 1.7402 0.32031zm15.848-19.538 3.1 4.77-0.26 2.7 1.11 0.05 2.63-4.45-3.16-3.92-1.79-0.74zm-48.48 9.27-0.62 1.57 0.17 1.71 2.39 2.79 3.76-0.13 8.3 9.64 5.18 1.5 3.06 2.89 0.73 6.59 1.64-0.96 1.42-3.59-0.35-2.58 2.43-0.22 0.35-1.46-6.85-3.28-6.5-6.39-2.59-3.82-0.63-3.63 3.31-0.79-0.85-2.39-2.03-1.71-1.75-0.08-2.44 0.67-2.3 3.22-1.39 0.92-2.15-1.32zm73.05 41.08-1.58 5.03 2.05 6.03 2.35-8.81v-1.89zm-48.58-48.46-1.16 1.82 0.09 2.78 1.85 0.95 5.69 0.17 7.93-6.68 0.04-1.48-0.86-0.43-5.73 2.6zm-1.12 5.56-3.53 2.91h-3.58l-0.43 2.52 1.64 0.43 0.82-1.22 1.29 1.13 1.03 3.6 7.07 3.3 0.7-0.8-7.17-7.4 0.73-1.35 6.81-0.26 0.69-2.17-4.44 0.13zm11.09 22.44-0.11 1.33 4.63 2.33 2.21 0.85-1.16 1.22-2.58 0.26-0.37 1.17 0.89 2.01 2.89 1.54 1.26 0.11 0.16-3.45 1.89-2.28-5.16-6.1 0.68-2.07 1.21-0.05 1.84 1.48 1.16-0.58 0.37-2.07 5.42 0.05 0.21-3.18-2.26 1.59-6.63-0.16-4.31 2.23zm-46.31-38.9-2.21 0.54-4.42 4.81-1.33 0.09-1.77-1.25-1.15 0.27-0.88 2.76-6.46 0.18 0.18 1.43 4.42 2.94 5.13 4.1-0.09 4.9-2.74 4.81 5.93 2.85 6.02 0.18 1.86-2.14 3.8 0.09 1.06 0.98 3.8-0.27 1.95-2.5-2.48-2.94-0.18-1.87 0.53-2.05-1.24-1.78-2.12 0.62-0.27-1.6 4.69-5.17v-3.12l-3.1-1.78-1.59-0.27zm-12.04 26.3h-12.74l-2.57-1.16-1.24 0.09-1.5 3.12 0.53 3.21 4.87 0.45 0.62 2.05-2.12 11.95 0.09 2.14 3.45 1.87 3.98 0.27 7.96-1.96 3.89-4.9 0.09-4.99 6.9-6.24 0.35-2.76-6.28-0.09zm40.07-20.13h4.43l2.37 1.69 4.39-3.65-4.26-3.04-4.22-2.04-2.89 0.52-3.92 2.52zm54.78 44.97 1.23 0.89-3.81 3.61-1.82-0.06-1.35-0.95 0.18-1.77 2.76-0.18zm-70.3-40.46-4.36 4.64 0.09 0.47 1.79-0.56 1.61 2.24 2.72-0.96 1.88 1.46 0.77-0.44 2.32-3.64-0.59-0.56-2.29-0.06-1.11-2.27zm38.53 13.01 0.16 4.98 1.68 3.5 6.31 0.11 2.84-2.01 2.79-1.11-0.68-3.18 0.63-1.7-1.42-0.74-1.95 0.16-1.53 1.54-6.42 0.05zm-16.64-3.45-0.37 0.61 6.71 6.92 2.46-3.62-0.09-1.43-2.15-2.61zm-14.17-8.82-0.65 1.35 0.56 0.96 2.33-0.48h1.98l2.15 1.82 4.57-0.83 3.36-2 0.86-1.35-0.13-1.74-3.02-2.26-4.05 0.04-0.34 2.3-4.26 2.08zm23.39 19.64v4.61l1.32 2.49 0.95-0.11 1.63-2.97-0.95-1.33-0.37-3.29-1.26-1.17z" icao="L"/>
<path d="m957.96 283.74-3.54 2.7-0.19 5.2 3.06 3.56 0.76-0.67zm3.92 24.66-2.58 1.83-0.29 5.78 4.02 7.8 1.34 1.06 1.72-1.16 2.96 0.48 0.57 2.6 2.2 0.19 1.05-1.44-1.34-1.83-1.63-1.54-3.44-0.38-1.82-2.99 2.1-3.18 0.19-2.79-1.43-3.56zm10.9 24.18-0.1 4.43 1.05 1.73 1.82-2.12-0.48-3.85zm4.68 5.2 0.38 2.89-3.35 2.7-2.77 0.29-2.96 3.18 0.1 1.45 2.77-0.87 1.91-1.25 1.63 4.14 2.87 2.02 1.15-0.39 1.05-1.25-2.29-2.31 1.34-1.06 1.53 1.25 1.05-1.73-1.05-2.12-0.19-4.72zm-18.62-104.15 6.18 5.04 1.05 4.88-0.21 2.62-3.02 3.4-2.6 0.14-2.95-6.37-1.12-3.04 1.19-0.92-0.28-1.27-1.47-0.66zm28.09-34.76-1.53 1.35 0.77 2.89 1.34 1.35-0.1 4.43-1.72 0.67-1.34 2.99 3.92 5.39 2.58-0.87 0.48-1.35-2.77-2.5 1.72-2.22 1.82 0.29 1.43 1.54 0.1-3.18 3.92-3.18 2.2-0.58-1.82-3.08-0.86-1.35-1.43 0.96-1.24 1.54-2.68-0.58-2.77-1.83zm-8.23 43.54-4.88 5.59 0.86 1.35 2.39 0.29 4.49-3.47 3.16-0.58 2.87 3.37 2.2-0.77 0.86-3.28 4.11-0.1 4.02-4.82-2.1-8-0.96-4.24 2.1-1.73-4.78-7.22-1.24 0.1-2.58 2.89v2.41l1.15 1.35 0.38 6.36-2.96 3.66-1.72-1.06-1.34 2.99-0.29 2.79 1.05 1.64-0.67 1.25-2.2-1.83h-1.53l-1.34 0.77zm3.83 6.17-2.77 2.6-0.1 2.99 0.67 0.87 3.73-3.18-0.29-3.18zm-8.8 3.27-1.63 1.64 0.67 2.31 1.43 0.1 0.96 5.01 1.15 1.25 2.01-1.83 0.86-3.28-2.49-3.56z" icao="R"/>
<path d="m708.8 374.52 3.03 2.84 1.9-1.21 5.14-0.84 0.88 0.09 0.33-1.95 2.9-6.1-2.44-5.08-7.91 0.05-0.05 2.09 1.06 1.02-0.16 2.09zm12.27 32.33 17.47-2.14-3.93-7.6-0.21-7.28 1.27-3.48-16.62-10.44-5.21 0.86-1.81 1.34-0.16 3.05-1.17 4.23-1.22 1.45-1.75 0.16 3.35 11.61 5.47 2.57 3.77 0.11zm-1.486-61.08-2.9434-4.9434-0.30859-3.5957-0.70703 0.13477-0.19141 1.1074-3.8574 5.6348-3.0781-1.4688-3.0703 2.5723-6.3516-0.36523-2.8106-2.2461-4.0332 2.0645-0.15234 1.375-1.2305 0.74023 12.32 12.68 6.7109 0.38086 0.97852 1.4902 9.6016 0.16992 0.0781-2.1504 0.82032-1.4902 3.2012-0.41016-3.9902-5.7891h-2.9394l-0.75-4.1113 2.3594-1.0391zm26.656-5.2998 4.08 2.78 1.21-0.06 10.13-3.48 1.15 3.71-0.81 3.13-2.19 1.74-5.47-0.35-7.83-4.81zm-23.74-34.431-3.6894 3.7207-25.801-0.23047 0.27929 6.5703-2.459-0.0703-0.17969 11.83-3.7305 3.2109-0.15039 4.9395 2.6914 5.3105 2.9492 1.7402-0.0449 0.41406 4.0195-2.0586 3.0664 2.4492 5.6387 0.32422 3.2578-2.7285 2.8867 1.375 3.25-4.748 0.27343-1.5762 2.4766-0.4707 0.38476 4.4707 2.4766 4.1602 6.0039-12.912v-7.8496l4.3613-5.1406zm-14.18 69.291 2.81 2.59-0.12 2.77-4.36 0.09v-3.06zm-57.77-91.87 1.56-0.26 0.46-3.6h0.78l3.19-5.24 7.87 2.29 2.15 3.34 7.74 3.54 4.03-1.7-0.39-1.7-1.76-1.7 0.2-1.18 2.86-2.42h5.66l2.15 2.88 4.55 0.66 0.59 36.89-3.38-0.13-20.42-10.62-2.21 1.25-8.39-2.1-2.28-3.01-3.32-0.46-1.69-3.01zm70.78 78.49 2.66 5.19-3.19 6.69-0.42 2.03 15.93 9.85 4.94-7.76-2.5-2.03-0.05-10.22 3.13-3.42-4.99 1.66-3.77 0.05-5.9-4.98-1.86-0.8-3.45 0.32-0.61 1.02zm-1.34-14.76 7.28-16.2 7.23 0.04 6.41 5.57-0.45 4.59h4.97l0.51 2.76 8.04 4.81 4.96 0.25-9.43 10.13-12.95 3.99h-3.21l-5.72-4.88-2.26-0.95-4.38-6.45-2.89 0.04-0.34-2.96zm7.22-17.06-0.25-5.89 3.96-4.62 1.07 0.82 1.95 6.52 9.36 6.97-1.7 2.09-6.85-5.89zm-34.78-51.64 2.67 0.07 5.2 1.44 2.47 0.07 3.06-2.56h1.43l2.6 1.44h3.29l0.59-0.04 2.08 5.98 0.59 1.93 0.55 2.89-0.98 0.72-1.69-0.85-1.95-6.36-1.76-0.13-0.13 2.16 1.17 3.74 9.37 11.6 0.2 4.98-2.73 3.15-25.64-0.29zm14.28 103.15 4.27-0.09-1.11 3.74-1.08 0.94h-1.32l-0.94-2.53z" icao="H"/>
<path d="m319.26 193.76-1 4.02-3.49-2.26h-1.74l-1 4.27-12.21 27.36 3.24 23.84 3.99 2.01 0.75 6.53h8.22l7.97 6.02 15.69 1.51 1.74 8.03 2.49 1.76 3.49-3.51 2.74 1.25 2.49 11.54 4.23 2.76 3.49-6.53 10.71-7.78 6.97 3.26 5.98 0.5 0.25-3.76 12.45 0.25 2.49 2.76 0.5 6.27-1.49 3.51 1.74 6.02h3.74l3.74-5.77-1.49-2.76-1.49-6.02 2.24-6.78 10.21-8.78 7.72-2.26-1-7.28 10.71-11.55 10.71-1.76-1.74-6.01 10.46-6.02v-8.03l-1-0.5-3.74 1.25-0.5 4.92-12.43 0.15-9.74 6.47-15.29 5-2.44-2.99 6.94-10.5-3.43-3.27-2.33-4.44-4.83-3.88-5.25-0.44-9.92-6.77z" icao="K"/>
<path d="m799.42 254.48 3.08 0.16v-5.27l-2.92-1.7 4.92-6.2h2l2 2.33 5.23-2.01-7.23-2.48-0.28-1.5-1.72 0.42-1.69 2.94-7.29-0.24-5.35-7.57-9.4 0.93-4.48-4.44-6.2-1.05-4.5 1.83 2.61 8.68 0.03 2.92 1.9 0.04 2.33-4.44 6.2 0.08 0.92 3.41 13.29 8.82 5.14 1.18zm-113.35-45.91-2.9 1.63 0.72 3.08-2.68 5.65 0.02 2.49 1.26 0.8 8.08 0.4 2.26-1.87 2.42 0.81 3.47 4.63-2.54 4.56 3.02 0.88 3.95-4.55 2.26 0.41 2.1 1.46-1.85 2.44 2.5 3.9h2.66l1.37-2.6 2.82-0.57 0.08-2.11-5.24-0.81 0.16-2.27h5.08l5.48-4.39 2.42-2.11 0.4-6.66-10.8-0.97-4.43-6.25-3.06-1.05-3.71 0.16-1.67 4.13-7.6 0.1-2.47-1.14zm78.28 34.44-0.62 2.63h-4.15v3.56l4.46 2.94-1.38 4.03v1.86l1.85 0.31 2.46-3.25 5.54-1.24 11.84 4.49 0.15 3.25 6.61 0.62 7.38-7.75-0.92-2.48-4.92-1.08-13.84-8.99-0.62-3.25h-5.23l-2.31 4.34h-2.31zm36.34 4.25 4.11-5.1h1.55l0.54 1.14-1.9 1.38v1.14l1.25 0.9 6.01 0.36 1.96-0.84 0.89 0.18 0.6 1.92 3.57 0.36 1.79 3.78-0.54 1.14-0.71 0.06-0.71-1.44-1.55-0.12-2.68 0.36-0.18 2.52-2.68-0.18 0.12-3.18-1.96-1.92-2.98 2.46 0.06 1.62-2.62 0.9h-1.55l0.12-5.58zm187.78-138.91 1.76 6.08 3.52 1.01 3.52-5.57-2.01-3.8 0.75-3.29h5.28l-1.26 2.53 0.5 9.12-7.54 18.74 0.75 4.05-0.25 6.84 14.07 20.51 2.76 0.76 0.25-16.71 2.76-2.53-3.02-6.58 2.51-2.79-5.53-7.34-3.02 0.25-1-12.15 7.79-2.03 0.5-3.55 4.02-1.01 2.26 2.03 2.76-11.14 4.77-8.1 3.77-2.03 3.27 0.25v-3.8l-5.28-1.01-7.29-6.08 3.52-4.05-3.02-6.84 2.51-2.53 3.02 4.05 7.54 2.79 8.29 0.76 1.01-3.54-4.27-4.3 4.77-6.58-10.81-3.8-2.76 5.57-3.52-4.56-19.85-6.84-18.85 3.29-2.76 1.52v1.52l4.02 2.03-0.5 4.81-7.29-3.04-16.08 6.33-2.76-5.82h-11.06l-5.03 5.32-17.84-4.05-16.33 3.29-2.01 5.06 2.51 0.76-0.25 3.8-15.83 1.77 1.01 5.06-14.58-2.53 3.52-6.58-14.83-0.76 1.26 6.84-4.77 2.28-4.02-3.8-16.33 2.79-6.28 5.82-0.25 3.54-4.02 0.25-0.5-4.05 12.82-11.14v-7.6l-8.29-2.28-10.81 3.54-4.52-4.56h-2.01l-2.51 5.06 2.01 2.28-14.33 7.85-12.31 9.37-7.54 10.38v4.3l8.04 3.29-4.02 3.04-8.54-3.04-3.52 3.04-5.28-6.08-1.01 2.28 5.78 18.23 1.51 0.51 4.02-2.03 2.01 1.52v3.29l-3.77-1.52-2.26 1.77 1.51 3.29-1.26 8.61-7.79 0.76-0.5-2.79 4.52-2.79 1.01-7.6-5.03-6.58-1.76-11.39-8.04-1.27-0.75 4.05 1.51 2.03-3.27 2.79 1.26 7.6 4.77 2.03 1.01 5.57-4.78-3.04-12.31-2.28-1.51 4.05-9.8 3.54-1.51-2.53-12.82 7.09-0.25 4.81-5.03 0.76 1.51-3.54v-3.54l-5.03-1.77-3.27 1.27 2.76 5.32 2.01 3.54v2.79l-3.77-0.76-0.75-0.76-3.77 4.05 2.01 3.54-8.54-0.25 2.76 3.55-0.75 1.52h-4.52l-3.27-2.28-0.75-6.33-5.28-2.03v-2.53l11.06 2.28 6.03 0.51 2.51-3.8-2.26-4.05-16.08-6.33-5.55 1.38-1.9 1.63 0.59 3.75 2.36 0.41-0.55 5.9 7.28 17.1-5.26 8.34-0.36 1.88 2.67 1.88-2.41 1.59-1.6 0.03 0.3 7.35 2.21 3.13 0.03 3.04 2.83 0.26 4.33 1.65 4.58 6.3 0.05 1.66-1.49 2.55 3.42-0.19 3.33 0.96 4.5 6.37 11.08 1.01-0.48 7.58-3.82 3.27 0.79 1.28-3.77 4.05-1 3.8 2.26 3.29 7.29 2.53 3.02-1.77 19.35 7.34 0.75-2.03-4.02-3.8v-4.81l-2.51-0.76 0.5-4.05 4.02-4.81-7.21-5.4 0.5-7.51 7.71-5.07 9.05 0.51 1.51 2.79 9.3 0.51 6.79-3.8-3.52-3.8 0.75-7.09 17.59-8.61 13.53 6.1 4.52-4.05 13.32 12.66 10.05-1.01 3.52 3.54 9.55 1.01 6.28-8.61 8.04 3.55 4.27 0.76 4.27-3.8-3.77-2.53 3.27-5.06 9.3 3.04 2.01 4.05 4.02 0.25 2.51-1.77 6.79-0.25 0.75 1.77 7.79 0.51 5.28-5.57 10.81 1.27 3.27-1.27 1-6.08-3.27-7.34 3.27-2.79h10.3l9.8 11.65 12.56 7.09h3.77l0.5-3.04 4.52-2.79 0.5 16.46-4.02 0.25v4.05l2.26 2.79-0.42 3.62 1.67 0.69 1.01-2.53 1.51 0.51 1 1.01 4.52-1.01 4.52-13.17 0.5-16.46-5.78-13.17-7.29-8.86-3.52 0.51v2.79l-8.54-3.29 3.27-7.09 2.76-18.74 11.56-3.54 5.53-3.54h6.03l-1.51 2.03 1.51 2.53 5.28-5.57 3.02 0.25-0.5-3.29-4.78-1.01 3.27-11.9zm-241.28 115.69 4.1-1.75 4.58-0.16 0.32 7h-2.68l-2.05 3.34 2.68 4.45 3.95 2.23 0.36 2.55 1.45-0.48 1.34-1.59 2.21 0.48 1.11 2.23h2.84v-2.86l-1.74-5.09-0.79-4.13 5.05-2.23 6.79 1.11 4.26 4.29 9.63-0.95 5.37 7.63 6.31 0.32 1.74-2.86 2.21-0.48 0.32-3.18 3.31-0.16 1.74 2.07 1.74-4.13 14.99 2.07 2.52-3.34-4.26-5.25 5.68-12.4 4.58 0.32 3.16-7.63-6.31-0.64-3.63-3.5-10 1.16-12.88-12.45-4.54 4.03-13.77-6.25-16.89 8.27-0.47 5.88 3.95 4.61-7.7 4.35-9.99-0.22-2.09-3.07-7.83-0.43-7.42 4.77-0.16 6.52zm60.12 10.59-0.31 2.53 0.25 1.56 8.7 2.92-7.64 3.08-0.87-0.72-1.65 1.06 0.08 0.58 0.88 0.4 5.36 0.14 2.72-0.82 3.49-4.4 4.37 0.76 5.27-7.3-14.1-1.92-1.95 4.73-2.46-2.64zm-81.35 4.95 3.27 4.27 4.08 1.88 2.51-0.01 4.31-1.17 1.08-1.69-12.75-4.77zm-44.8-37.87 1.5 2.47-0.6 1.97 0.1 1.56 0.55 1.87 3.1-1.76 3.85 0.1 2.7 1.11h6.85l2-4.79 1.2-1.81v-1.21l-4.3-6.05-3.8-1.51-3.1-0.35-2.7 0.86 0.1 2.72-3.75 4.74zm60.75 41.43-1.01 1.72 4.71 6.18 1.64-0.53 2.7 2.83 1.17-4.96 2.93 0.47-0.12-1.42-4.82-4.22-0.92 2.48zm-1.69 2.17 4.8 6.26-1.41 1.65-3.4-0.59-4.22-3.78 0.23-2.48z" icao="U"/>
<path d="m420.96 341.34 0.44 2.59 3.25 1.03 0.74-4.77 3.43-3.55 3.43 4.02 7.89 2.15 6.68-1.4 4.55 5.61 3.43 2.15-3.76 5.73 1.26 4.34-2.15 2.66-2.23 1.87-4.83-2.43-1.11 1.12v3.46l3.53 1.68-5.2 5.62-3.43-0.28-3.45-3.79-0.73-14.26-11.78-4.02-2.14-6.27zm49.9 126.01-2.05 2.19 0.85 11.78 6.44 1.87 8.19-8.21zm-7.23-110.79 2.04 1.87 3.16-1.96 2.88 0.09-0.37 1.12-1.21 2.52-0.19 6.27-5.75 2.34 0.28-4.02-3.71-3.46 0.19-1.78zm-1.37 78.37 2.2 2.4-0.26 5.08 6.34-0.39 4.79 6.13-0.39 5.47-3.1 4.69-6.34 0.26-0.26-2.61 1.81-4.3-6.21-3.91h-5.17l-3.88-4.17 2.82-8.06zm-66.73-49.99-1.94 1.96 0.13 3.13 16.94 30.88 17.59 11.34 2.72-4.56 0.65-10.03-1.42-6.25-4.79-8.08-2.85 0.91-1.29 1.43-5.69-6.52 1.42-7.69 6.6-4.3-0.52-4.04-6.72-0.26-3.49-5.86-1.94-0.65 0.13 3.52-8.66 10.29-6.47-1.56zm60.02-35.39 7.22 6.54-2.87 3.32-0.23 1.97 3.77 3.89-0.09 3.74-6.56 2.5-3.93-5.31 0.84-6.38-1.68-4.75zm17.08 7.67 5.85 3.65-3.06 6.08-1.11 1.4-3.25-1.87 0.09-6.55zm-71.93 14.05-4.73 2.94-0.34 4.36-0.95 1.43 2.98 2.86-1.29 1.41 0.3 3.6 5.33 1.27 8.07-9.55-0.02-3.33-3.87-0.25zm23.53-36.07-2.06-0.21-13.62 11.23-1.44 3.95-1.86 0.21 0.83 8.73-4.75 11.65 5.16 4.37 6.61 0.42 4.54 6.66 6.6 0.21-0.21 4.99h2.47l2.68-9.15-2.48-3.12 0.62-5.82 5.16-0.42-0.62-13.52-11.56-3.74-2.68-7.28zm29.86 212.85-3.21 3.55-0.39 4.17-6.21-3.52-6.6-9.51-1.94-3.39 2.72-3.52-0.26-4.43-3.1-1.3-2.46-1.82 0.52-2.48 3.23-0.91 0.65-14.33-5.04-2.87-3.29-74.59 0.85-1.48 6.44 14.85 2.06 0.04 0.67 2.37-2.74 3.32-3.15 17.87 4.48 13.76-2.07 10.42 7.3 30.64 0.77 17.92 5.23 6.05zm30.65-73.78 6.25-12.02 0.23-10.1 11.66-7.52h6.53l5.13-8.69 0.93-16.68-2.1-4.46 12.36-11.28 0.47-12.45-16.79-8.22-20.28-6.34-9.56-0.94 2.57-5.4-0.7-8.22-2.09-0.69-3.09 6.14-1.62 2.03-4.16-1.84-13.99 4.93-4.66-5.87 0.75-6.13-4.4 4.48-4.86-2.62-0.49 0.69 0.01 2.13 4.19 2.25-6.29 6.63-3.97-0.04-4.02-4.09-4.55 0.14-0.56 4.86 2.61 3.17-3.08 9.87-3.6 0.28-5.73 3.62-1.4 7.11 4.97 5.32 0.91-1.03 3.49-0.94 2.98 5.02 8.53-3.66 3.31 0.19 2.28 8.07 12.17 3.86 2.1 6.44 5.18 0.62 2.47 6.15-1.67 5.47 2.18 2.86-0.32 4.26 5.84-0.55 5.35 6.76-0.42 4.75 3.17 2.68-7.6 11.51zm-55.53-66.06 8.23-3.59 2.72 0.26 1.81 7.56 12.54 4.17 2.07 6.39 5.17 0.65 2.2 5.47-1.55 4.95-8.41 0.65-3.1 7.95-6.6-0.13-2.07-0.39-3.81 3.7-1.88-0.18-6.47-14.99 1.79-2.68 0.63-10.6-1.6-6.31zm46.76 45.41 1.94 1.82-7.37 10.95-2.59 2.87 0.9 12.51 5.69 6.91-4.78 8.34-3.62 1.56h-4.14l1.16 6.51-6.47 2.22 1.55 5.47-3.88 12.38 4.79 3.91-2.59 6.38-4.4 6.91 2.33 4.82-5.69 0.91-4.66-5.73-0.78-17.85-7.24-30.32 2.19-10.6-4.66-13.55 3.1-17.59 2.85-3.39-0.7-2.57 3.66-3.34 8.16 0.56 4.56 4.87 5.27 0.09 5.4 3.3-1.59 3.72 0.38 3.76 7.65-0.36z" icao="S"/>
<path d="m915.56 339.88 1.19 1.87 0.22 2.14 3.13 0.34 3.8-5.07 3.58-1.01 1.9-5.18-0.89-8.34-3.69-5.07-3.89-3.11-4.95-8.5 3.55-5.94-5.08-5.83-4.07-0.18-3.66 1.97 1.09 4.71 4.88 0.86 1.31 3.63-1.72 1.12 0.11 0.9 11.45 11.2 0.45 3.29-0.69 10.4zm-15.03-33.98 3.24 4.17v5.07l1.12 0.56 5.15-2.48 1.01 0.34 6.15 7.1-0.22 4.85-2.01-0.34-1.79-1.13-1.34 0.11-2.35 3.94 0.45 2.14 1.9 1.01-0.11 2.37-1.34 0.68-4.59-3.16v-2.82l-1.9-0.11-0.78 1.24-0.4 12.62 2.97 5.42 5.26 5.07-0.22 1.47-2.8-0.11-2.57-3.83h-2.69l-3.36-2.71-1.01-2.82 1.45-2.37 0.5-2.14 1.58-2.8-0.07-6.44-3.86-5.58-0.16-0.68 1.25-1.26-0.29-4.43-5.14-6.51 0.6-3.75zm-58.84-27.91 0.46 4.27 8.08 3.66 12.95 0.96-0.49-3.13-8.65-2.38-7.34-4.37zm58.25 61.09-2.77-4.44 2.01-2.82-1.9-3.49-1.79-0.34-0.34-5.86-2.68-5.19-0.78 1.24-1.79 3.04-2.24 0.34-1.12-1.47-0.56-3.95-1.68-3.16-6.84-6.45 1.68-1.11 0.31-4.67 2.5-4.2 1.08-10.45 3.62-2.47 0.12-3.81 2.17 0.72 3.42 4.95-2.54 5.44 1.71 4.27 4.23 1.66 0.77 4.65 5.68 0.88-1.57 2.71-7.16 2.82-0.78 4.62 5.26 6.76 0.22 3.61-1.23 1.24 0.11 1.13 3.92 5.75 0.11 5.97zm-48.9 4.4 0.25 2.72 0.25 1.98-1.47 0.25 0.74 4.45 2.21 1.24 3.43-1.98-0.98-4.69 0.25-1.73-3.19-2.96zm54.93-45.12-2.42 1.23-2.01 5.86 3.36 4.28-0.56 4.73 0.56 0.23 5.59-2.71 7.5 8.38-0.18 5.28 1.63 0.88 4.03-3.27-0.33-2.59-11.63-11.05 0.11-1.69 1.45-1.01-1.01-2.82-4.81-0.79zm5.01 36.54 4.09 4.37 7.61-5.64 0.67-8.9-3.93 2.71-2.04-1.14-2.77-0.37-1.55-1.09-0.75 0.04-2.03 3.33 0.33 1.54 2.06 1.15-0.25 3.13zm-69.5 13.54 4.58-2.24 2.72-9.84-0.12-12.08 15.58-16.82v-3.99l3.21-1.25-0.12-4.61-3.46-6.73 1.98-3.61 4.33 3.99 5.56 0.25v2.24l-1.73 1.87 0.37 1 2.97 0.12 0.62 3.36h0.87l2.23-3.99 1.11-10.46 3.71-2.62 0.12-3.61-1.48-2.87-2.35-0.12-9.2 6.08 0.58 3.91-6.46-0.02-2.28-2.79-1.24 0.16 0.42 3.88-13.97-1-8.66-3.86-0.46-4.75-5.77-3.58-0.07-7.37-3.96-4.53-9.1 0.87 0.99 3.96 4.46 3.61-7.71 15.78-5.16 0.39-0.85 1.9 5.08 4.7-0.25 4.75-5.19-0.08-0.56 2.36 4.31-0.19 0.12 1.87-3.09 1.62 1.98 3.74 3.83 1.25 2.35-1.74 1.11-3.11 1.36-0.62 1.61 1.62-0.49 3.99-1.11 1.87 0.25 3.24zm24.42-64.93 1.55 2.12 5.24 0.04-0.53-2.9zm0.17 5.03-1.31 2.37 3.4 6.46 0.1 5.04 0.62 1.35 3.99 0.07 2.26-2.17 1.64 0.99 0.33 3.07 1.31-0.82 0.08-3.92-1.1-0.13-0.69-3.33-2.78-0.1-0.69-1.85 1.7-2.27 0.03-1.12h-4.94z" icao="V"/>
<path d="m742.49 324.66 1.44 4.28v4.18l3.46 3.14 24.38-9.93 0.23-2.73-3.91-7.02-9.81 3.13-5.63 5.54-6.53-3.86zm-25.32-60.1-0.35 2.54 2.82 1.18-0.12 7.04 2.82-0.06 2.82-2.13 1.06-0.18 6.4-5.09 1.29-7.39-12.79 1.3-1.35 2.96zm37.33 24.11 7.01 9.77 2.26 1.8 1.01 4.38 10.79 0.85 1.22 0.64-1.21 5.4-7.09 4.18-10.37 3.14-5.53 5.4-6.57-3.83-3.98 3.48-5.54-9.05-3.8-1.74-1.38-2.09v-4.53l-13.83-16.72-0.52-2.96h3.98l4.84-4.18 0.17-2.09-1.38-1.39 2.77-2.26 5.88 0.35 10.03 8.36 5.92-0.27 0.38 1.46zm8.63 5.78-0.52 4.01 1.54 1.17 1.4-0.13 0.52-5.05-1.21-0.87zm30.5-9.18 2.6 3.86-0.25 1.99-3.46 1.37-0.25 3.24h3.96l1.36-1.12h7.54l6.8 5.98 0.87-2.87h5.07l0.12-3.61-5.19-4.98 1.11-2.74 5.32-0.37 7.17-14.95-3.96-3.11-1.48-5.23 9.64-0.87-5.69-8.1-3.03-0.82-1.24 1.5-0.93 0.07-5.69 3.61 1.86 3.12-2.1 2.24-2.6 9.59-6.43 4.11-0.87 4.49zm-24.75 31 7.39-4.26 1.31-6.25-1.62-0.93 0.67-6.7 1.41-0.82 1.51 2.37 8.99 4.7v2.61l-10.89 16.03-5.01 0.17zm-52.18-48.4 0.06 1.95-0.82 2.96 2.82 0.24 0.18-4.2zm37.09 14.73-2.25-1.22-1.56 1.57 0.17 3.14 3.63 1.39zm-34.39-6.39-2.46 8.58-0.11 1.31h3.87l4.33-3.82 0.11-1.45-1.77-1.81 3.17-2.63-0.46-2.44-0.87 0.2-2.64 1.89zm20.75-22.83-1.22 1.27 0.12 2.01 1.52 2.13 5.39 5.9-0.82 2.36h-0.94l-0.47 2.36 3.05 3.9 2.81 0.24 5.63 7.79 3.16 0.24 2.46 1.77 0.12 3.54 9.73 5.67h3.63l2.23-1.89 2.81-0.12 1.64 3.78 10.51 1.46 0.31-3.86 3.48-1.26 0.16-1.38-2.77-3.78-6.17-4.96 3.24-2.95-0.23-1.3-4.06-0.63-1.72-13.7-0.2-3.15-11.01-4.21-4.88 1.1-2.73 3.35-2.42-0.16-0.7 0.59-5.39-0.35-6.8-4.96-2.53-2.77-1.16 0.28-2.09 2.39zm-5.34 7.08-1.56 7.71-6.46 5.38 0.41 2.54 6.31 0.43 10.05 8.18 5.62-0.16 0.15-1.89 2.06-2.21 2.88 1.63 0.38-0.36-5.57-7.41-2.64-0.16-3.51-4.51 0.7-3.32 1.07-0.14 0.37-1.47-4.78-5.03zm49.81 2.02 1.59 12.46 3.96 0.87 0.37 2.24-2.84 2.37 5.29 4.27 10.28-3.7 0.82-4.38 6.47-4.04 2.48-9.36 1.85-1.99-1.92-3.34 6.26-3.87-0.8-1.12-2.89 0.18-0.26 2.66-3.88-0.04-0.07-3.55-1.25-1.49-2.1 1.91 0.06 1.75-3.17 1.2-5.85-0.37-7.6 7.96z" icao="O"/>
<path d="m695.16 427.72 8.97 10.13 6.88 1.75 4.61-7.23-0.36-9.58-7.48-3.86-2.81 1.27-4.19 6.39-5.8-0.06zm-10.11-7.6 3.17 4.4 4.91 0.3 1.74 0.96 5.14 0.06 4.43-6.21 12.38-5.54 1.08-4.88-1.44-6.99-6.46-3.68-4.31 0.3-2.15 4.76 0.06 2.17 5.08 2.47 0.3 5.37-4.37 0.24-1.08-1.81-12.14-5.18-0.36 3.98-5.74 0.18zm19.61 18.93-7.9 7.3-1.88 4.51-6.26-0.78-5.21 4.63-3.46-0.34 0.28-6.4-1.23-0.43-0.86 13.09-6.14-0.06-1.85-2.18-2.71-0.03 2.47 7.09 4.41 4.17-3.15 3.67 2.04 4.6 4.72 1.8 3.76-3.2 10.77 0.06 0.77-0.96 4.78-0.84 16.17-16.1-0.06-5.07-1.73 2.24h-2.59l-3.15-2.64 1.6-3.98 2.75-0.56-0.25-8.18zm-3.79 18.5 1.51-0.06 2.45 2.66-0.07 3.08-2.87 1.45-0.18 1.02-4.38 0.05-1.37-3.3 1.25-2.42zm-37.58-126.13 0.13-2.95 4.74-4.61 1.27-11.32-3.16-6.04 2.21-1.13 21.4 11.15-0.13 10.94-3.77 3.21v5.64l2.47 4.78h-4.36l-7.22 7.14-0.19 2.16-5.33-0.07-0.07 0.98-3.04-0.4-2.08-3.93-1.56-0.77 0.2-1.2 1.96-1.5v-7.02l-2.71-0.42-3.27-2.43zm48.08 118-2.51 0.42-1.08 2.95 1.92 1.75h2.33l1.97-2.83zm-44.32 7.96 3.35 0.24 1.97 1.99 4.67 0.06 1.14-13.26v-8.68l2.99-0.6 1.14-9.1 7.6-0.24 2.69-2.23-4.55-0.18-6.16 0.84-6.64-2.41h-18.66l0.48 5.3 6.22 9.16-1.08 4.7 0.06 2.47zm44.62-8.68 2.69 2.23 6.34-3.86 1.02-5.73v-9.46l10.17-8.32 1.74 0.06 6.16-5.91-0.96-12.18-16.33 2.06 0.48 3.68 2.81 2.17 0.66 6.63-5.5 5.37-1.32-3.01 0.24-3.98-3.17-3.44-7.78 3.62 7.24 3.68 0.24 10.73-4.79 7.11zm5.99-33.88 3.11 3.25-0.06 4.16 0.6 1.75 4.13-4.46-0.48-5.67-2.4437-2.1574-0.71317-4.0423-1.2444 0.10106-1.0588-5.451-2.13 0.0462 1.55 6.9134zm45.14-6.48-2.13 5.06-3.65 6.44-6.39 0.46-2.74 3.22 0.46 9.82-3.96 4.6 0.46 7.82 3.35 3.83 3.96-0.46 3.96-2.92-0.91-4.6 9.13-15.8-1.83-1.99 1.83-3.83 1.98 0.61 0.61-1.53-1.83-7.82-1.07-3.22zm-64.89 52.47 3.05-2.35 1.44 0.06 1.74 2.17-0.18 2.17-2.93 1.08v0.84l-3.23-0.18-0.78-2.35zm-46.42-92.7-0.06 1.39 4.54 0.23-0.06-1.57zm5.56 20.54 1.74 2.26 2.25-2.13-0.66-2.21-0.56-0.04zm-0.16-20.6-0.12 2.49-5.64-0.12-3.45 6.67 8.11 8.87 2.01-1.68-0.06-1.74-1.38-0.64v-1.22l3.11-1.97 2.76 2.09 3.05 0.06-0.06-10.49-4.83-0.23-0.06-2.2zm-8.57-8.35 3.22 2.96-0.23 4.58 17.66-0.41 1.44-1.62-5.06-5.45-0.75-1.97 3.22-6.03-2.19-4-1.84-0.99v-2.03l2.13-1.39 0.12-6.32-1.69-0.19-0.03 3.32-7.42 13.85-4.54 0.23-3.11 2.14zm13.18 8.24-0.06 1.45 4.78 0.12 0.17 12.41-4.37-0.12-2.53-1.97-1.96 1.1-0.09 0.55 1.01 0.49 0.29 2.55-2.7 2.32 0.58 1.22 2.99-2.32h1.44l0.46 1.39 1.9 0.81 6.1-5.16-0.12-3.77 1.27-3.07 3.91-2.9 1.05-9.81-2.78 0.01-3.22 4.41zm4.66-8.47 4.66 5.04 1.84-2.38 2.93 0.12 0.63-2.32 2.88-1.8 5.98 4.12 3.45-3.42 13.39 0.59-12.42-12.82 1.67-1.04 0.23-2.26-2.82-1.33h-4.14l-6.67 6.61-0.23 2.72-5.29-0.17-0.17 1.16-3.45-0.35-3.11 5.91zm-6.28 31.66 10.31-0.18 2.09 2.977-0.08 2.19 0.77 0.7h5.12l1.47-2.89h2.09l0.85 0.86 2.87-0.08 0.85 10.08 4.96 0.16v0.78l13.33 6.01 0.62 1.17h2.79l-0.31-4.22-5.04-2.42 0.31-3.2 2.17-5.08 4.96-0.16-4.26-14.14 0.08-6.01 6.74-10.54 0.08-1.48-1.01-0.55 0.04-2.86-1.23-0.11-1.24-1.58-20.35-0.92-3.73 3.63-6.11-4.02-2.15 1.32-1.56 13.13-3.86 2.98-1.16 2.64 0.21 3.91-6.96 5.69-1.85-0.84 0.25 1.09zm19.13 55.52 2.15 0.66-0.3 6.15 2.21 0.3 5.08-4.58 6.1 0.66 1.62-4.1 7.72-7.05-9.27-10.67-0.12-1.75-1.02-0.3-2.81 2.59-7.3 0.18-1.02 9.1-2.87 0.66zm-19.89-54.52 3.41 12.73-0.08 4.02-4.99 5.36-0.75 8.71 19.2 0.17 6.24 2.26 5.15-0.67-3-3.76 0.01-10.74 5.9-0.25v-4.19l-4.79-0.2-0.96-9.92-2.02 0.03-1.09-0.98-1.19 0.06-1.58 3.06h-6.08l-1.41-1.42 0.42-2.01-1.66-2.43z" icao="F"/>
<path d="m263.62 80.445-8.39 1.99 1.73 9.45 9.13 2.49 0.48999 1.99-13.57 4.23-7.65 12.68 2.71 13.43 4.44 2.98 3.46-3.23 0.99 1.99-4.2 4.97-16.29 7.46-10.37 2.49-0.25 3.73 23.94-6.96 9.87-2.74 9.13-11.19 10.12-6.71-5.18 8.7 5.68 0.75 9.63-4.23 1.73 6.96 6.66 1.49 6.91 6.71 0.49001 4.97-0.99001 1.24 1.23 4.72h1.73l0.25-7.96h1.97l0.49001 19.64 4.94-4.23-3.46-20.39h-5.18l-5.68-7.21 27.89-47.25-27.64-21.63-30.85 5.97-1.23 9.45 6.66 3.98-2.47 6.47zm313.24 72.29-1.96-1.11-2.64 1.67-2.27 2.1 0.06 1.17 2.94 0.37-0.18 2.1-1.04 1.05 0.25 0.68 2.94 0.19v3.4l4.23 0.74 2.51 1.42 2.82 0.12 4.84-2.41 3.74-4.94 0.06-3.34-2.27-1.92-1.9-1.61-0.86 0.62-1.29 1.67-1.47-0.19-1.47-1.61-1.9 0.18-2.76 2.29-1.66 1.79-0.92-0.8-0.06-1.98 0.92-0.62zm-85.23-67.24-1.36 2.17 2.45 2.45-1.09 2.45 3.54 4.62 4.35-1.36 5.71-0.54 6.53 7.07 4.35 11.69-3.53 7.34 4.89-0.82 2.72 1.63 0.27 3.54-5.98 0.27 3.26 3.26 4.08 0.82-8.97 11.96-1.09 7.34 1.9 5.98-1.36 3.54 2.45 7.61 4.62 5.17 1.36-0.27 2.99-0.82 0.27 4.35 1.9 2.72 3.53-0.27 2.72-10.06 8.16-10.06 12.24-4.89 7.61-9.52 3.53 1.63h7.34l5.98-5.98 7.34-2.99 0.82-4.62-4.62-4.08-4.08-1.36-2.18-5.71 5.17-2.99 8.16 4.35 2.72-2.99-4.35-2.45 9.25-12.51-1.63-5.44-4.35-0.27 1.63-4.89 5.44-2.45 11.15-9.79-3.26-3.53-12.51 1.09-6.53 6.53 3.81-8.43-4.35-1.09-2.45 4.35-3.53-2.99-9.79 1.09 2.72-4.35 16.04-0.54-4.08-5.44-17.4-3.26-7.07 1.09 0.27 3.54-7.34-2.45 0.27-2.45-5.17 1.09-1.09 2.72 5.44 1.9-5.71 4.08-4.08-4.62-5.71-1.63-0.82 4.35h-5.71l-2.18-4.62-8.97-1.36-4.89 2.45-0.27 3.26-6.25-0.82-3.81 1.63 0.27 3.81v1.9l-7.07 1.36-3.26-2.17-2.18 3.53 3.26 3.54 6.8-0.82 0.54 2.18-5.17 2.45z" icao="B"/>
</svg>
