<?xml version="1.0" encoding="UTF-8"?>
<svg width="1200" height="600" version="1.1" viewBox="60 10 1200 600" xmlns="http://www.w3.org/2000/svg">
<path transform="translate(21.728)" d="m811.39 256.78-9.0996 0.8711 0.99023 3.959 4.4609 3.6094-7.7109 15.781-5.1602 0.38867-0.84961 1.9004 5.0801 4.7012-0.25 4.75-5.1895-0.0801-0.56054 2.3594 4.3105-0.18946 0.11914 1.8692-3.0898 1.6211 1.9805 3.7402 3.8301 1.25 2.3496-1.7402 1.1094-3.1113 1.3594-0.61914 1.6113 1.6191-0.49023 3.9902-1.1094 1.8711 0.25 3.2402 16.43 34.1 4.5801-2.2402 2.7188-9.8398-0.11914-12.08 15.58-16.82v-3.9902l3.209-1.25 1.1211 0.86523 0.31054 0.67579 3.9883 0.0684 2.2617-2.1699 1.6387 0.99024 0.33007 3.0703 0.36133 0.81055 6.8398 6.4492 1.6797 3.1602 0.5586 3.9512 1.1211 1.4688 2.2402-0.33984 2.1797-3.6602 0.39063-0.61914 2.6797 5.1895 0.33985 5.8594 1.7891 0.33985 1.9004 3.4902-2.0098 2.8203 2.7695 4.4395 0.31054 0.96093-0.5 2.1406-1.4492 2.3691 1.0098 2.8203 3.3594 2.709h2.6894l2.5703 3.8301 2.8008 0.11133 0.21875-1.4707-5.2598-5.0703-2.9688-5.4199 0.39843-12.619 0.39063-0.62109 0.39062-0.61914 1.9004 0.10937v2.8203l4.5898 3.1602 0.58984 0.60938 4.0898 4.3711 0.49023 0.60938 1.1894 1.8691 0.22071 2.1406 3.1289 0.33985 3.8008-5.0703 3.5801-1.0098 1.9004-5.1797-0.89062-8.3398-3.6895-5.0703-3.8906-3.1094-4.9492-8.5 3.5488-5.9394-5.0801-5.8301-4.0703-0.18164-3.6602 1.9707-0.72851 0.39062-2.4199 1.2305-0.94726 2.5996-6.0742-0.67968-0.76953-4.6504-4.2305-1.6602-1.709-4.2695 2.5391-5.4414-3.4199-4.9492-2.1699-0.7207-0.75977-0.40039-1.4805-2.8691-2.3496-0.11914-9.1992 6.0801-0.82031 0.25976-7.3398 0.83984-1.2402 0.16016-0.89062-0.0215-8.6504-2.3789-7.3398-4.3711-5.0098 0.99023-0.7793 0.0508-5.7695-3.5801-0.0703-7.3691zm5.3184 28.717h4.5586l3.3867 12.422 3.3984-12.422h4.5938l-5.7422 17.062h-4.5zm16.102 51.484-1.4902 0.71875 0.25 2.7207 0.25 1.9805-1.4688 0.25 0.74023 4.4492 2.209 1.2402 3.4297-1.9805-0.97851-4.6894 0.25-1.7305z" icao="V"/>
<path transform="translate(21.728)" d="m648.76 299.6-2.2109 1.1309 3.1602 6.0391-1.2695 11.32-4.7402 4.6094-0.13086 2.9512-2.5098 2.209 3.2715 2.4297 0.29883 0.78125-0.0293 3.3184-7.4199 13.852-4.541 0.22852-3.1094 2.1406-0.92968 3.3203 3.2188 2.959-0.22852 4.5801 0.17969 0.87109-0.0605 1.3906-0.29883 0.91992-3.4512 6.6699 8.1094 8.8691 0.83007 2.0996 0.43164 0.58984 1.7383 2.2598 0.33007 1.2207 3.4102 12.73-0.0801 4.0195-4.9883 5.3594-0.75 8.7109-0.12109 0.85938 0.48047 5.3008 6.2188 9.1602-1.0781 4.6992 0.0586 2.4707 4.7812 11.939 2.8594 8.0703 4.4102 4.1699-3.1504 3.6699 2.041 4.5996 4.7188 1.8008 3.7598-3.2012 10.771 0.0605 0.76953-0.95898 4.7793-0.83984 16.17-16.102-0.0606-5.0684-0.11914-1.8711 0.35938-0.7793 6.3398-3.8613 1.0215-5.7285v-9.4609l10.17-8.3203 1.7402 0.0606 6.1582-5.9102-0.95899-12.18-16.33 2.0606-0.69726 0.0586-1.2441 0.10157-1.0586-5.4512-2.1309 0.0469-0.9082-0.12695-6.4609-3.6797 0.01-0.71289-4.2598-14.141 0.0801-6.0098 6.7402-10.539 0.0801-1.4805-1.0098-0.55079 0.0391-2.8594-1.2305-0.10938-1.2383-1.5801-6.2598-0.28321-1.0312-0.85351-12.42-12.82 1.6699-1.041 0.23046-2.2598-2.8203-1.3301-0.13086-0.87891-2.4688-4.7812v-5.6387l3.7695-3.2109 0.13086-10.939zm11.242 94.525h11.414v3.1758h-7.3008v3.9258h6.6328v3.1641h-6.6328v6.7969h-4.1133zm84.307 8.1348-1.2285 0.31055-2.1308 5.0586-3.6504 6.4414-6.3887 0.45898-2.7402 3.2207 0.45898 9.8203-3.959 4.5996 0.45898 7.8203 3.3496 3.8301 3.9609-0.46094 3.959-2.9199-0.9082-4.5996 9.1289-15.801-1.8301-1.9902 1.8301-3.8301 1.9805 0.61132 0.60937-1.5312-1.8301-7.8184z" icao="F"/>
<path transform="translate(21.728)" d="m309 78.307-27.359 46.49 4.9805 6.5312 5.4785 0.25 3.9902 21.58-6.4805 4.5195 0.5 4.0195 2.4902 2.5098 0.5 2.5098-1 4.5215v5.0195l6.4805 6.0195 1.1699 4.7891 70.711 11.621 9.75 6.8301 5.4394 0.44922 5.0703 3.8711 2.4902 4.7793 3.9199 3.7695-6.9004 10.301 1.4902 2.0098 13.699-4.5195 10.211-7.0312h11.959l0.5-4.2695 5.2305-2.2598 1.7207 1 0.26953 8.5293 5.9805-2.0098-4.9805 5.0215 1 3.0098h3.4902l2.7402-4.0215 6.2285-0.25 3.2402-6.0195h-1.9902l-1.5 2.2598-2.9883 0.75-2.9902-2.0098-0.25-5.0195 1.7402-5.5195-1.25-1.5098-6.4805 1.25-5.2305 1.25 8.7207-6.7812 4.9785 0.25 9.9609 2.2598 4.7305-5.0195 9.959-2.5098-0.25-5.5195-8.9688-10.791-2.7402-17.82-9.7109 6.5312-3.9902-2.2598 2.2402-7.2812-5.2305-7.2793-9.959-3.5098-7.9707 15.561-0.5 8.7793-2.9902 5.7695-6.2285 0.25-0.5 10.041-3.9902 5.2695-2.9902-2.0098 0.25-3.2598 2.4902-11.541-11.461-5.0195-7.2188-7.2793-1.9902-5.0215-5.2305-2.0098 1-3.2598 7.7207-10.289 8.7188-6.7812 7.7207-1.7598 2.4902-4.0195-1-3.2598 9.459-2.0098 5.2305 2.5098 5.4805-3.0098 2.2402-10.291-5.4805-5.7695-6.4805 10.039-4.4805-1 3.4902-6.0195-2.4902-1.5098-4.2285 3.7598-0.5-17.57-2.7402-2.0098-5.9805 3.0098-0.75 3.2598 2.4902 4.0215-0.25 5.2695-4.4805 4.0195-2.2402 3.5098-0.5-3.5098 3.9902-7.0293-1.4902-4.0195-4.4805 2.7598-0.25 4.7695-2.4883 3.0098-3.7402-0.75-7.4707-3.5098-3.4902-5.2695-4.7305 1.25-0.75 7.5293-2.9883-0.5-0.25-5.0195-11.191-2.2598-1.25-1.25 2.9902-4.7715-5.7305-3.5098-8.7188-10.289-3.4902-0.25v3.5098h-3.4902l-1-8.2793-5.9805 2.5098-8.4688-0.75-2.9902-1.5098-3.4902 3.7598-4.9805-1.25-1-4.0215zm32.322 60.652c2.0703 0 3.7344 0.54688 4.9922 1.6406 1.2578 1.0859 1.9726 2.5859 2.1445 4.5h-4.1016c-0.0313-1.0391-0.29299-1.7852-0.78516-2.2383-0.49219-0.45313-1.2422-0.67969-2.25-0.67969-1.0234 0-1.7734 0.38281-2.25 1.1484-0.47657 0.76562-0.72657 1.9883-0.75 3.668v1.207c0 1.8203 0.22656 3.1211 0.67969 3.9023 0.46093 0.78125 1.25 1.1719 2.3672 1.1719 0.94532 0 1.668-0.22267 2.168-0.66797 0.5-0.44531 0.76562-1.1523 0.79688-2.1211h4.0898c-0.0547 1.1875-0.37498 2.2383-0.96094 3.1524-0.58593 0.90624-1.4102 1.6094-2.4726 2.1094-1.0547 0.5-2.2617 0.75-3.6211 0.75-2.2422 0-4.0078-0.73046-5.2969-2.1914-1.2891-1.4609-1.9336-3.5234-1.9336-6.1875v-0.84375c0-1.6719 0.28906-3.1328 0.86718-4.3828 0.58594-1.2578 1.4258-2.2266 2.5195-2.9062 1.0938-0.68749 2.3594-1.0312 3.7969-1.0312z" icao="C"/>
<path transform="translate(21.728)" d="m299.54 187.99-1 4.0195-3.4902-2.2598h-1.7402l-1 4.2695-12.211 27.359 3.2402 23.84 3.9902 2.0098 0.75 6.5312h8.2207l7.9687 6.0195 15.691 1.5098 1.7402 8.0293 2.4883 1.7617 3.4902-3.5117 2.7402 1.25 2.4902 11.541 4.2305 2.7598 3.4902-6.5293 10.709-7.7812 6.9707 3.2598 5.9805 0.5 0.25-3.7598 12.449 0.25 2.4902 2.7598 0.5 6.2715-1.4902 3.5098 1.7402 6.0195h3.7402l3.7402-5.7695-1.4902-2.7598-1.4902-6.0215 2.2402-6.7793 10.209-8.7793 7.7207-2.2598-1-7.2812 10.709-11.549 10.711-1.7598-1.7402-6.0117 10.461-6.0195v-8.0293l-1-0.5-3.7402 1.25-0.5 4.9199-12.43 0.15039-9.7402 6.4688-15.291 5-2.4395-2.9902 6.9395-10.5-3.4297-3.2695-2.3301-4.4394-4.8301-3.8809-5.25-0.43945-9.9199-6.7695zm29.443 34.178h4.1133v7.5234l1.4297-2.168 3.6797-5.3555h5.0859l-5.7656 7.5469 5.7656 9.5156h-4.875l-3.6328-6.3516-1.6875 1.8516v4.5h-4.1133z" icao="K"/>
<path transform="translate(21.728)" d="m532.55 57.707-5.1699 1.0898-1.0898 2.7207 5.4394 1.9004-5.7109 4.0801-4.0801-4.6211-5.709-1.6289-0.82031 4.3496h-5.709l-2.1816-4.6211-8.9687-1.3594-4.8906 2.4492-0.26953 3.2617-6.25-0.82031-3.8106 1.6289 0.26953 3.8105v1.9004l-7.0684 1.3594-3.2617-2.1699-2.1797 3.5293 3.2598 3.541 6.8008-0.82031 0.53907 2.1797-5.1699 2.4512-4.6094-2.2012-1.3594 2.1699 2.4492 2.4512-1.0898 2.4492 3.541 4.6211 4.3496-1.3613 5.709-0.53906 6.5312 7.0703 4.3496 11.689-3.5312 7.3398 4.8906-0.82031 2.7207 1.6309 0.26953 3.5391-5.9805 0.26953 3.2598 3.2617 4.0801 0.81836-8.9688 11.961-1.0898 7.3398 1.8984 5.9805-1.3594 3.5391 2.4512 7.6113 4.6191 5.1699 1.3594-0.27148 2.9902-0.82031 0.26953 4.3516 1.9004 2.7188 3.5312-0.26953 2.7188-10.061 8.1602-10.059 12.24-4.8906 7.6094-9.5195 3.5312 1.6289h7.3398l5.9805-5.9785 7.3398-2.9902 0.81836-4.6211-4.6191-4.0801-4.0801-1.3594-2.1797-5.7109 5.1699-2.9883 8.1602 4.3496 2.7188-2.9902-4.3496-2.4512 9.25-12.51-1.6289-5.4395-4.3496-0.26953 1.6289-4.8906 5.4394-2.4492 11.15-9.791-3.2598-3.5293-12.51 1.0898-6.5293 6.5293 3.8086-8.4297-4.3496-1.0898-2.4492 4.3496-3.5312-2.9902-9.7891 1.0898 2.7188-4.3496 16.041-0.53906-4.0801-5.4395-17.4-3.2617-7.0703 1.0898 0.27149 3.541-7.3398-2.4492zm-9.9805 36.078h6.1289c2.1953 0 3.8633 0.40234 5.0039 1.207 1.1484 0.80469 1.7227 1.9727 1.7227 3.5039 0 0.88281-0.20313 1.6367-0.60938 2.2617s-1.0039 1.0859-1.793 1.3828c0.89063 0.23438 1.5742 0.67188 2.0508 1.3125 0.47657 0.64063 0.71485 1.4219 0.71485 2.3438 0 1.6719-0.53125 2.9297-1.5938 3.7734-1.0547 0.83593-2.6211 1.2617-4.6992 1.2774h-6.9258zm4.1133 3.1758v3.9375h2.1445c0.89844-8e-3 1.5391-0.17186 1.9219-0.49219 0.38281-0.32031 0.57422-0.79297 0.57422-1.418 0-0.71875-0.20703-1.2344-0.62109-1.5469-0.41406-0.32031-1.082-0.48047-2.0039-0.48047zm0 6.6328v4.0898h2.6953c0.74219 0 1.3125-0.16796 1.7109-0.5039 0.39844-0.34375 0.59765-0.82422 0.59765-1.4414 0-1.4219-0.70702-2.1367-2.1211-2.1445zm28.496 42.254-2.6387 1.6699-2.2715 2.0996 0.0606 1.1699 2.9394 0.37109-0.17968 2.0996-1.0391 1.0488 0.25 0.68164 2.9394 0.18945v3.4004l4.2305 0.73829 2.5098 1.4219 2.8203 0.11914 4.8398-2.4102 3.7402-4.9395 0.0586-3.3398-2.2695-1.9199-1.9004-1.6113-0.85937 0.62109-1.2891 1.6699-1.4707-0.18945-1.4707-1.6113-1.8984 0.17969-2.7617 2.291-1.6602 1.7891-0.91992-0.79883-0.0586-1.9805 0.91993-0.61914-0.66016-1.0312z" icao="B"/>
<path transform="translate(21.728)" d="m402.45 329.22-13.619 11.23-1.4414 3.9512-1.8594 0.20898 0.83008 8.7305-4.75 11.65-5.3594 3.4492-0.33985 4.3594-0.95117 1.4316 2.9805 2.8594-4.0703 4.0391 0.13086 3.1309 16.939 30.879 17.59 11.342 0.46094 0.8496 3.2891 74.59 5.0391 2.8691-0.64844 14.33-3.2305 0.91015-0.51953 2.4805 2.459 1.8203 3.0996 1.2988 0.26172 4.4316-2.7207 3.5195 1.9394 3.3887 6.5996 9.5117 6.2109 3.5195 0.39062-4.1699 3.209-3.5508 0.40039-0.86914-2.3301-4.8203 4.4004-6.9102 2.5898-6.3808-4.791-3.9102 3.8809-12.379-1.5508-5.4707 6.4707-2.2188-1.1602-6.5098h4.1406l3.6191-1.5605 4.7793-8.3398-5.6895-6.9102 0.81055-0.45117 6.4394 1.8711 8.1895-8.2109 0.45117-0.70898 6.25-12.02 0.23047-10.102 11.66-7.5195h6.5293l5.1289-8.6894 0.93164-16.68-2.1016-4.4609 12.361-11.279 0.46875-12.451-16.789-8.2188-20.279-6.3398-9.5605-0.9414 2.5703-5.3984-0.70117-8.2207-2.0898-0.68945-0.86914-0.39062-5.8496-3.6504-0.91992-0.66016-2.8809-0.0898-3.1602 1.9609-2.0391-1.8711-0.86132-0.46875-7.2188-6.541-0.75-0.3789-3.4316-2.1504-4.5488-5.6113-6.6797 1.4004-7.8906-2.1504-3.4297-4.0195-3.4297 3.5508-1.1602-4.9902zm38.076 70.113c1.2266 0 2.3242 0.21875 3.293 0.65625 0.97656 0.4375 1.7344 1.0625 2.2734 1.875 0.53906 0.80468 0.8086 1.7266 0.8086 2.7656h-4.1016c0-0.69531-0.21485-1.2344-0.64454-1.6172-0.42187-0.38282-0.99609-0.57422-1.7226-0.57422-0.73438 0-1.3164 0.16406-1.7461 0.49218-0.42187 0.32032-0.63281 0.73047-0.63281 1.2305 0 0.4375 0.23438 0.83594 0.70313 1.1953 0.46875 0.35156 1.293 0.71875 2.4726 1.1016 1.1797 0.375 2.1484 0.78125 2.9062 1.2188 1.8438 1.0625 2.7656 2.5273 2.7656 4.3945 0 1.4922-0.5625 2.6641-1.6875 3.5156s-2.668 1.2774-4.6289 1.2774c-1.3828 0-2.6367-0.2461-3.7617-0.73828-1.1172-0.5-1.9609-1.1797-2.5312-2.0391-0.5625-0.86718-0.84375-1.8633-0.84375-2.9883h4.125c0 0.91406 0.23438 1.5898 0.70313 2.0274 0.47656 0.42968 1.2461 0.64453 2.3086 0.64453 0.67969 0 1.2148-0.14454 1.6055-0.4336 0.39844-0.29688 0.59766-0.71094 0.59766-1.2422 0-0.60156-0.21485-1.0703-0.64454-1.4062-0.42187-0.33594-1.168-0.6836-2.2383-1.043-1.0703-0.35937-1.9453-0.70703-2.625-1.043-2.2109-1.0859-3.3164-2.5781-3.3164-4.4766 0-0.94532 0.27344-1.7774 0.82031-2.4961 0.55469-0.72656 1.3359-1.2891 2.3438-1.6875 1.0078-0.40625 2.1406-0.60937 3.3984-0.60937z" icao="S"/>
<path transform="translate(21.728)" d="m295.83 254.69-7.5605 0.39062 4.8301 15.209-2.25 1.2598 0.25 3.0215 4.25 3.2695v6.0488l5.25 5.041-2.25-14.859-3-9.8301 0.75-6.8008 2.5 0.25 1 2.2695-1 5.791 13 25.439v9.0703l10.5 12.34 11.5 5.2891 4.75-2.7695 6.75 5.541 6.4902 4.8496 5.5391 2.75 2.041 0.95899 0.66015 0.56054 1.5293 3.5098 0.16016 0.82031v2.8711l4.7402 4.3398 2.9004 2.0391 0.75 0.46094 4.8184 1.25 2.9902 0.58984 0.50976-3.5312 3.2109-1.6191 2.8496 1.4707 1.1211 1.7891 1.3594-0.16016 1.0703-3.25-3.5606-1.4707-2.6992-1.4688-2.7012 1.8398-3.209 1.6191-4.3008-1.6191-0.68946-0.41015-1.1308-1.5-1.3887-2.7207 0.0684-0.66015 2.5508-7.2793-0.0703-4.4902-0.40039-0.85938-2.7402-3.2598-9.2383 0.34961-0.76171-0.34961-1.0195-1.541-0.41993-0.83984 2.8613-5.3398 0.35938-0.7793 5-8.8203-2.5-2.2695-9.75 2.2695-2.25 6.5508-5.75 1.0098-6.75-2.7715-3-9.5684 2.2695-12.07-4.6406-2.8906-2.209-11.59-1.8496-0.79101-3.3809 3.4316-3.8789-2.0703-1.5215-7.7305-15.369-1.6094zm19.623 29.895h4.502l3.1738 9.8926 3.1641-9.8926h4.5117v14.219h-3.4375v-3.3203l0.33204-6.7969-3.4375 10.117h-2.2656l-3.4473-10.127 0.33203 6.8066v3.3203h-3.4277zm62.865 9.6562-6.6895 2.3301v1.2695l5.3203 0.0996 2.5098-1.459 0.39063 1.0684 5.2188 1.2715 4.6406 4.1894-1.0606 1.459 0.19141 1.6602 3.8691 0.97071 3.8711-1.75 1.7383-1.75-2.5098-1.2695-12.949-7.5996zm23.32 10.789-1.6699 1.7012 1.9414 0.79882 0.25977 2.4004-4.2305 0.34961 0.43945 2.3106 1.2305 0.0898 0.70899-1.0703 4.0117 0.2207 0.92969-0.0508 0.87891 1.6895 1.1504-1.3301 3.3496-0.88867 2.9102 0.61914 0.33984-1.7793-5.2891-3.4609-2.5-0.84961-1.0195-0.39062zm-11.93 4.2109-3.4805 0.87891v0.9707l2.0312 1.1699h2.1289l1.3516-1.5605zm29.48 0.58008-2.1211 1.3301 1.0605 1.2383 3.6113 0.53125 0.0898-2.2109zm8.1894 3.1992-1.5 0.61914 0.53125 1.3301 1.7598-1.1484-0.35156-0.36133zm2.4707 1.5098-0.88086 1.8711 1.0605 1.4199 1.3203-1.1504z" icao="M"/>
<path transform="translate(21.728)" d="m979.02 410.77-10.289 2.8594-2.8398 8.2207-4.6094 1.0703-0.35156-5.7207-18.799 11.439 0.34961 4.291-2.8398 3.9297h-7.0996l-15.26 6.4297-5.3301 14.34-0.35157 25.381-3.8984 2.8594-0.35157 2.5 5.3203 3.5703 13.131-2.5h6.7402l2.4785-3.5801 14.9-2.8594 10.641 3.2188-0.71094 4.291 1.4199 4.2891 8.1602-1.4297 0.35156 2.1406-5.3203 3.9297 1.7695 1.4297 3.9004-1.4297-1.0605 11.801 7.4492 5.7188 4.2617-1.4297 2.1289 2.1406 12.42-1.791 11.711-18.949 4.2598-1.0703 8.5097-15.73 2.1289-13.58-5.3183-6.7891 2.1289-1.4297-4.2598-13.23-4.6093-3.2207 0.7089-17.869-4.2597-3.2207-1.0606-10.01h-2.1289l-7.0996 23.59-3.9004 0.35937-8.8711-8.9394 4.9707-13.23zm-18.375 39.926h4.418l3.1524 7.4062 3.1406-7.4062h4.4414l-5.4961 10.934v6.1289h-4.1719v-6.1289zm15.875 75.215-1.7695 7.1484 0.34961 5 5.3203-0.35937 6.0312-9.2891z" icao="Y"/>
<path transform="translate(21.728)" d="m899.99 170.32-2.4414 2.1191 3.0996 7.0996-1.0801 6.6602-3.8594 1.5996-2.1699-0.16993-0.91016-0.19922-7.6094-0.80078-5.5 5.6113-8.6895-0.4414-1.1406-1.9395-5.2305 0.21094-2.5391 1.8887-4.8613-0.12891-2.6894-4.4102-7.7598-2.7402-2.5996 3.6699 3.9492 2.9102-5.8203 5.3398-4.75-1.2695-6.9902-3.2305-5.8184 7.7207-0.76171 0.10937-2.6387-0.21093-3.4609 8.7012-4.7695-0.25-5.0293 11.01 4.2695 5.4395-8.8008 12.15-4.5195-0.75977-3.0195 3.8008 0.75 2.2793 3.5195 0.25 1.7598 4.0488 3.5195 0.76172 10.811 13.93v7.0898l5.2812 3.2891 5.7793-1.0098 7.2891 4.3008 8.8008 2.5293 4.2695-0.50976 4.7812-0.50977 10.049-6.5801 3.2695 0.50977 1.25 2.9707 2.7715 0.83008 3.7695 5.5703-2.5098 5.5684 1.5098 3.8008 4.2695 1.5195 0.75 4.5605 5.0293 0.50977 0.75-2.2793 7.291-3.8008 4.5195 0.25 5.2812 5.8203 3.5195-1.5195 2.2598 0.25 1.0098 2.7891 1.7598 0.25 2.5098-3.5391 10.051-3.8008 9.0488-10.891 3.0215-10.379-0.25-6.8398-3.7715-0.75976 2.2617-2.5312-0.5-4.0488-9.5508-9.6211v-4.8086l2.7598-3.541 2.7598-1.2695 0.25-2.791h-7.0391l-1.2598 3.8008-3.2715-0.75976-4.0195-4.3008 2.5098-6.5801 3.5215-3.7988 3.2695 0.25-0.5 5.8184 1.7598 1.5215 4.2695-4.3008 1.5098-0.25 0.75976 0.0606 1.8398 0.76953 0.56055 6.4394 3.6504 0.21094 3.4395-4.0293-1.1895-1.0605 0.14063-4.3203 3.1602-3.8203-1.6113-2.9004 1.0508-1.1992 0.58007-3-1.8301-0.83008-0.18946-0.83007 0.20899-3.4707-2-2.0996-0.16992-5.4805 3.8496-0.25-0.25-14.129-2.6992 1.6191-1.0098 3.6211-4.5098-0.01-13.07-7.3516-9.4414-11.379zm-29.727 54.416h13.254v2.1094l-8.0742 11.789h8.1562v3.1641h-13.289v-2.168l8.1328-11.719h-8.1797z" icao="Z"/>
<path transform="translate(21.728)" d="m934.17 342.51-3.0215 5.5703-0.5996 0.82032-2.8789 3.4883-0.7207 0.67187-8.4102 6.1699 0.2207 3.5684-3.8398-0.22852-1.0508-0.01-1.8203 0.5 3.4004 13.119 5.0898 0.57032 6.791 2.5703v2.5684l3.1094-0.56836 4.5293-6.2715v-5.1289l2.5508-5.1309 2.8301 0.57031-3.4004-7.1289-0.51954-4.5918 0.53907-0.79883 4.7207-3.4199-6.1211-4.4609zm-49 2.5391-1.6797 0.0508 2.0098 4.5098 0.44922 5.8594 2.6894 4.1699 6.4902 3.9414 2.4609 0.23047-0.45117-4.0605-2.1289-5.1797-3.1211-6.6309-0.25977 1.1602-3.7598-0.16993zm-11.91 2.1699-0.28125 2.2812 6.791 11.41h1.9805l14.148 23.67 5.6602 0.57032 2.8301-8.2715-4.5293-2.8496-0.84961-4.5605zm47.443 13.9h2.7266l1.3047 7.1328 1.5625-7.1328h2.3281l1.5859 7.1328 1.3047-7.1328h2.7188l-2.4141 11.375h-2.8438l-1.5234-6.4844-1.4922 6.4844h-2.8359zm38.096 0.0996-3.8301 2.9707h-2.459l-3.7305-1.7793-2.6504 0.0996-2.9492 4.75-1.8711 8.2207-1 3.2793 2.2598 2.7695-1.4688 4.1602v0.79102h3.3398l1.1797-10.4 1.0801 0.29883 1.9609 9.5 1.8691 0.5 1.7695-4.0586-1.7695-6.1406-1.4707-2.6699 4.6211-3.3711-1.0801-1.4883-4.4199 2.8691h-1.1797l-2.1602-3.1699 0.68945-1.3906 3.6406-1.7793 5.5 1.6797 1.6699-0.0996 4.1289-3.8594zm23.91 7.7715-4.1699 0.46875-2.6797 1.9609 1.1094 2.2402 4.541 0.83985v0.83984l-2.8711 2.3301 1.3906 4.8496 1.3906 0.0898 1.1992-4.7598h2.2207l0.92969 4.6602 10.83 8.959 0.27929 7 3.7012 4.0117 1.6699-0.0918 0.3672-24.719-6.2871-4.3809-5.9316 4.0098-2.1289 1.3105-3.5195-2.2402-0.0899-7.0898zm-78.76 18.979-2.75 1.8809 0.58984 1.5801 8.75 1.9805 4.4199 0.78907 1.8711 1.9805 5.0098 0.40039 2.3594 1.9805 2.1602-0.5 1.9707-1.7812-3.6406-1.6797-3.1406-2.6699-8.1602-1.9805z" icao="W"/>
<path transform="translate(21.728)" d="m1063.8 511.61 1.0586 11.801-1.42 5.3594-5.3183 3.9297 0.3496 4.6504v5l1.4199 1.7891 14.549-12.51v-2.8594h-3.5488l-4.9707-16.801zm-10.641 25.74-13.84 12.51-14.9 6.4297 0.711 2.8594 8.1601 3.9316 8.8691-8.2207 5.3204-0.71094 0.7089-3.9297 7.8106-7.5098zm21.279 8.668v17.062h4.1133v-10.617l6.0469 10.617h4.0898v-17.062h-4.1015v10.617l-6.0352-10.617z" icao="N"/>
<path transform="translate(21.728)" d="m1034.8 374.1-6.2578 17.062h4.3945l0.9844-3.1875h5.6367l0.9961 3.1875h4.418l-6.3047-17.062zm-31.258 3.8418-0.3711 24.439 3.5195-0.18945 4.6309-5.4102 3.8906 0.18946 2.5 2.2402 0.8301 6.9004 7.959 4.1992 2.041-0.75v-2.5195l-6.3906-5.3203-3.1504-7.2793 2.5-1.2109-1.8496-4.0098-3.6992-0.0898-0.9317-4.2891-9.8086-6.6211zm33.191 0.93945 1.8399 5.918h-3.668z" icao="A"/>
<path transform="translate(21.728)" d="m663.31 123.48-7.1484 0.73828-0.73047 3.1406-1.6504-0.54883-1.0996-1.8516-3.4902 0.17969-0.37109 3.5117-1.6484 0.73828-0.91992-1.8496-7.3398 5.9102 1.4688 1.6602-2.75 1.291-6.2402 12.379-2.1992 1.4805 0.17969 1.1094 2.1992 1.1113-0.54883 2.3984-3.6699-0.18945-1.0996-1.2891-2.3809 2.7695-1.4707 1.1094-0.36914 2.5898-1.2793 0.74023-3.3008 0.74024-1.6504 5.1797 1.0996 8.5 1.2812 3.8809 1.4688 1.4785 3.3008-0.17969 4.7695-4.6191 1.8301-3.1406 0.55078 4.6211 0.16992 1.2695 4.5898 7.0391 1.0996 5.541h2.0195l1.4707-3.1406 4.2207-1.4805-0.17969-7.9492 2.75-2.4004 1.8281-2.7695 0.37109-2.0293-4.7695-3.5117-0.17969-4.4394 2.75-4.6192 2.0195-0.17968 3.4902-4.8106v-3.5098l4.9492-3.5098 0.86914 0.0195 2.0703 0.91016 1.2812 2.4004-1.2812 1.6602-6.4199 7.0195-1.0996 3.6992 1.4707 5.3594 4.9492 3.7012 6.5996-3.1406 5.3203-0.74024 4.9512-7.9492-3.6699-8.6894-3.4902-8.3203 0.54883-5.3613-2.1992-0.36914-0.57032-3.9102 0.21094-1.0703 2.0195-1.4785-0.17969-1.6602-1.2812-0.74024 0.17968-2.0312h1.1016v-1.1094zm-25.885 17.094h10.469v2.8242h-6.8125v3.1973h5.75v2.7188h-5.75v3.6152h6.793v2.8125h-10.449zm25.525 32.535-3.5508 2.1699-0.0488 1.6094 2.2988 2.1719 0.35157 0.84961 0.14843 3.8301-0.55859 0.60938-2.1504-0.0508-2.9492 2.8203h-2.5l0.14844 3.5312-1.5 2.7695-0.4961 0.74609-2.4531-0.0469-0.44922-0.54883 0.69922-1.4102-1.75 0.19922-4.6992 1.5606-3.6016 3.1289-0.8086 0.0801-2.1211-1.8398-2.4102-0.67969-2.6992 1.1699-1.7305-0.18945-1.6406-1.6504-0.3789-0.83984-0.3711-4.0293 2.041-2.2812-0.041-1.7891-1.4394-3.7305-0.74023-0.11914-4.1504 4.5898-0.14843 2.9902 1.8887 4.9297 0.35156 0.76953v2.5195l-3.5703 0.58007-1.0508 0.39063-4.5293 2.2305 0.95899 0.86914 0.0996 2.2305-0.95898-0.18946-1.0606-1.6504-2.5293 4.0098-0.46094 0.75-0.63867 1.5996 6.8789 4.541 1.9805 0.46875 0.73047 0.26954 2.6992 1.8398 0.0996 3.2012 3.1797 0.7793 0.87109 1.9414h1.8301l0.86914-1.8418 3.5703-0.0996 3.8496-1.9395 0.29102-1.9394-4.1406-3.8809-0.39062-0.9707 4.6309-2.9082 2.791-0.39063 0.59961-0.32031 4.5996 2.4707 4.6992 3.3301 2.9004 0.85937 2.5508-0.96093 1.0488-0.0488 1.75 0.75976 1.3516-0.60937 1.5996-3.0801 0.69922-1.6113-0.19922-1.6602-0.84961-1.5586-0.54101-2.0703-0.30079-2.0703 0.70118-1.7598-1.877-2.875 0.91602-0.49609 3.5508-0.14844 3.4004-4.3301-0.20117-2.5703 0.61133-0.4707 2.5996-0.75977-0.15039-2.9199-2.0996-2.9199-0.0508-0.75-0.25-6.959zm-67.35 4.3398-4.041 2.9609-2.1992 7.3887 2.1992-0.17969-0.17969 4.25 1.0996 1.291 3.6699 0.17969 0.55079 5.7305-3.1192 0.36914-0.37109 2.9609-2.3789 3.5098 3.8496 0.36914 0.91993 0.55078-7.3398 4.25 2.5703 1.2891 7.709-3.5098 4.9512 0.55078 2.5684-1.1113 1.1016-1.4785-1.2812-0.74024 0.17969-0.91992 1.8301-1.1113 0.17969-2.0293-1.2793-2.2207-2.9297-1.1094-1.8301-4.25-2.3809-4.6191-0.72851-3.8809 1.0996-1.4805v-1.8496h-4.2207l-0.73047-1.1094 1.8301-2.7695zm-6.4004 13.67-3.3008 0.37109-0.77929-0.25976-1.5996 3.7598-3.4902-0.17969-0.17968 3.1387 1.0996 2.2207-4.0391 2.5898v1.1094l1.8301 1.291h2.5684l8.0703-2.9609 0.91016-6 0.01-0.82032 0.91992-1.6602z" icao="E"/>
<path transform="translate(21.728)" d="m641.92 207.48-2.8906 0.51953-3.9199 2.5195 4.0996 4 0.16016 0.75976-0.33985 2.3008-4.2598 2.0801-3.3594 0.10938-0.65039 1.3496-0.83984 0.56054-2.291-0.0605-1.1094-2.2695-2.8301-0.32032-0.48047-0.69922v-3.1211l-3.0996-1.7793-1.5898-0.26953-7.3398-4.8105-2.2109 0.53906-4.4199 4.8106-1.3301 0.0898-1.7695-1.25-1.1504 0.27148-0.87891 2.7598-6.4609 0.17969 0.17969 1.4297 4.7461 3.2012 4.8047 3.8379-0.0898 4.9004-2.7402 4.8105-0.7207 0.72071h-12.74l-2.5684-1.1602-1.2402 0.0898-1.5 3.1192 0.5293 3.2109 0.0898 0.97852-0.61914 8.6504-1.7715 1.5996 0.18164 0.98047 1.2402 2.0508-0.80078 2.5 1.3301 0.44922 3.0996-0.35938 0.71093-0.25976 3.4492 1.8691 3.9805 0.26953 7.959-1.959 3.8906-4.9004 0.0898-4.9902 6.9004-6.2402 0.45898-3.5898 1.8613-2.1387 3.7988 0.0898 1.0605 0.97852 3.8008-0.26953 1.9492-2.5 0.71094-0.41992 3.7598-0.12891 8.2988 9.6387 5.1797 1.5 3.0606 2.8906 0.73047 6.5898 1.6406-0.95898 1.4199-3.5918-0.35156-2.5781 2.4316-0.2207 0.17383-0.73047 0.17578-0.73047-6.8496-3.2793-6.5-6.3906-2.5918-3.8203-0.62891-3.6289 3.3106-0.79101 1 0.4707 0.0391 0.7793-0.42969 2.5215 1.6406 0.42969 0.81836-1.2207 1.291 1.1308 1.0293 3.5996 7.0703 3.3008 0.70117-0.80079 0.76953 0.45118 0.41993 1.2695 1.7402 0.32031 0.45899 0.68945v4.6094l1.3203 2.4902 0.94922-0.10937 0.42187 0.84961-0.11133 1.3301 5.7363 2.7539 1.1035 0.42578-1.1602 1.2207-2.5801 0.25976-0.36914 1.1699 0.89063 2.0098 2.8887 1.5391 1.2598 0.11133 0.16016-3.4512 1.8906-2.2793-5.1602-6.0996 0.67969-2.0703 1.2109-0.0508 1.8398 1.4805 1.1602-0.58008 0.36915-2.0703 5.4199 0.0508 0.21093-3.1797 0.2793-1.2012 2.791-1.1094-0.68164-3.1797 0.63086-1.7012 0.63085-0.55859 3.2598-3.7109-0.63086-1.8594-3.3106-0.84961-0.41992-0.77149 2.6309-4.4492-3.1602-3.9199-1.7891-0.74023-1.6309 1.5898-0.77929 0.2793-7.791-0.38867-1-0.43946-0.85937-0.43164-0.42969-0.54883-0.0898-2.4707-1.0801 0.48047-1.5508-0.83008-0.94922-0.041-2.5 1-3.4004-0.81836-0.70118-0.58985-4.2598-3.041zm-33.742 8.207h3.6562v12.354h6.3652v2.8125h-10.021zm81.152 22.201-5.5117 3.9004-5.1582 0.24023-0.4707 2.9512h-5.8594l-2.3398 2.1289v1.1797l1.4082 1.1797v1.3008l-0.58984 1.541 0.58984 1.2988 1.8809-0.93945 1.8809 2.0098-0.4707 1.4199-0.69922 0.94922 1.0488 1.1816 5.1602 1.0586 3.6308-1.5391v-2.2402l1.7598 0.34961 4.2188 2.4805 4.5703-0.71094 1.9902-1.8887 1.291 0.46875v2.1309h1.7598l1.5195-2.9512 13.359-1.4199 5.8301-0.70899-1.5391-2.0195-0.0312-2.7305 1.1699-1.4004-4.2598-3.4199 0.23047-2.9492h-2.3398l-3.8809-1.9004-2.2285 2.3594-8.2012-0.24024-4.9199-2.9492zm4.6602 21.602-2.8106 1.5391-2.7598 0.17969-0.17969 1.7715 1.3496 0.94921 1.8203 0.0605 3.8086-3.6113zm2.1094 8.2188-1.5801 5.0312 2.0488 6.0293 2.3516-8.8106v-1.8887z" icao="L"/>
<path transform="translate(21.728)" d="m967.21 193.09-1.5312 1.3496 0.77149 2.8906 1.3398 1.3496-0.10156 4.4297-1.7188 0.66992-1.3398 2.9902 3.9199 5.3906 2.5801-0.87109 0.47852-1.3496-2.7695-2.5 1.7207-2.2207 1.8203 0.29101 1.4297 1.5391 0.0996-3.1797 3.9199-3.1797 2.2012-0.58008-1.8203-3.0801-0.86133-1.3496-1.4297 0.95899-1.2402 1.541-2.6797-0.58007-2.7695-1.8301zm6.1094 19.93-1.2402 0.0996-2.5801 2.8906v2.4102l1.1504 1.3496 0.38086 6.3594-2.9609 3.6602-1.7207-1.0606-1.3398 2.9902-0.28906 2.791 1.0488 1.6387-0.66992 1.25-2.1992-1.8301h-1.5293l-1.3398 0.77148-1.0508 0.28906-4.8809 5.5898 0.86133 1.3496 2.3887 0.29101 4.4902-3.4707 3.1602-0.58008 2.8711 3.3711 2.1992-0.76953 0.85937-3.2812 4.1113-0.0996 4.0195-4.8203-2.0996-8-0.96094-4.2402 2.0996-1.7285zm-34.199 14.83-3.2305 3.8203 1.4688 0.66015 0.28125 1.2695-1.1894 0.91992 1.1191 3.0391 2.9492 6.3711 2.6016-0.14062 3.0195-3.4004 0.20898-2.6191-1.0488-4.8809zm23.689 14.949-2.7695 2.5996-0.10156 2.9902 0.66992 0.87109 3.7305-3.1797-0.28906-3.1816zm-8.8008 3.2695-1.6289 1.6406 0.66993 2.3106 1.4297 0.0996 0.95899 5.0098 1.1504 1.25 2.0098-1.8301 0.86133-3.2793-2.4902-3.5606zm12.264 6.6875v17.062h4.1133v-6.0215h2.2266l3.0117 6.0215h4.4062v-0.17579l-3.5625-6.877c1.0234-0.48438 1.7734-1.1172 2.25-1.8984 0.48438-0.78125 0.72657-1.7676 0.72657-2.9551 0-1.6406-0.57032-2.9082-1.7109-3.8066-1.1406-0.89844-2.7227-1.3496-4.7461-1.3496zm4.1133 3.1758h2.6016c0.77343 0 1.3594 0.21288 1.7578 0.63476 0.39844 0.41406 0.59765 0.98633 0.59765 1.7207s-0.19921 1.3106-0.59765 1.7246c-0.39063 0.40624-0.97657 0.60742-1.7578 0.60742h-2.6016zm-32.146 22.027-3.5391 2.7012-0.19141 5.1992 3.0606 3.5606 0.75976-0.66992zm3.9199 24.66-2.5801 1.8301-0.28906 5.7793 4.0195 7.8008 1.3398 1.0606 1.7207-1.1602 2.959 0.48047 0.57031 2.5996 2.1992 0.18946 1.0508-1.4395-1.3398-1.8301-1.6309-1.541-3.4394-0.37891-1.8203-2.9902 2.0996-3.1797 0.19141-2.791-1.4297-3.5586zm10.9 24.18-0.0996 4.4297 1.0488 1.7305 1.8203-2.1191-0.48047-3.8496zm4.6797 5.2012 0.38086 2.8887-3.3516 2.7012-2.7695 0.28906-2.959 3.1797 0.0996 1.4512 2.7695-0.87109 1.9102-1.25 1.6309 4.1406 2.8691 2.0195 1.1504-0.38868 1.0488-1.25-2.2891-2.3105 1.3398-1.0606 1.5293 1.25 1.0508-1.7305-1.0508-2.1191-0.18945-4.7207z" icao="R"/>
<path transform="translate(21.728)" d="m986.55 45.367-18.85 3.291-2.7598 1.5195v1.5195l4.0195 2.0312-0.5 4.8086-7.2891-3.0391-16.08 6.3301-2.7598-5.8203h-11.061l-5.0293 5.3203-17.842-4.0508-16.33 3.291-2.0098 5.0586 2.5098 0.75977-0.25 3.8008-15.828 1.7695 1.0098 5.0605-14.58-2.5293 3.5195-6.5801-14.83-0.75976 1.2598 6.8398-4.7695 2.2793-4.0195-3.8008-16.33 2.791-6.2812 5.8203-0.25 3.5391-4.0195 0.25-0.5-4.0488 12.82-11.141v-7.5996l-8.291-2.2812-10.809 3.541-4.5215-4.5605h-2.0098l-2.5098 5.0605 2.0098 2.2793-14.33 7.8496-12.309 9.3711-7.541 10.379v4.3008l8.041 3.291-4.0215 3.0391-8.5391-3.0391-3.5195 3.0391-5.2812-6.0801-1.0098 2.2793 5.7812 18.23 1.5098 0.50977 4.0195-2.0293 2.0098 1.5195v3.291l-3.7695-1.5215-2.2598 1.7715 1.5098 3.2891-1.2598 8.6094-7.791 0.76172-0.5-2.791 4.5195-2.7891 1.0117-7.6016-5.0312-6.5801-1.7598-11.389-8.0391-1.2695-0.75 4.0488 1.5098 2.0293-3.2715 2.791 1.2617 7.5996 4.7695 2.0312 1.0098 5.5684-4.7793-3.0391-12.311-2.2793-1.5098 4.0488-9.8008 3.541-1.5098-2.5312-12.82 7.0898-0.25 4.8106-5.0293 0.75976 1.5098-3.5391v-3.541l-5.0293-1.7695-3.2715 1.2695 2.7598 5.3203 2.0117 3.541v2.7891l-3.7715-0.75977-0.75-0.75977-3.7695 4.0488 2.0098 3.541-8.5391-0.25 2.7598 3.5488-0.75 1.5215h-4.5195l-3.2715-2.2812-0.75-6.3301-5.2793-2.0293v-2.5293l11.061 2.2793 6.0293 0.50976 2.5098-3.7988-2.2598-4.0508-16.08-6.3301-5.5488 1.3809-1.9004 1.6289 0.58985 3.75 2.3594 0.41016-0.54883 5.9004 7.2793 17.1-5.2598 8.3398-0.36132 1.8809 2.6719 1.8789-2.4102 1.5898-1.6016 0.0312 0.30078 7.3496 2.2109 3.1289 0.0293 3.041-0.2793 0.69922-2.7012 0.86133 0.0996 2.7188-3.75 4.7402-3.6992 0.0801 1.5 2.4707-0.59961 1.9688 0.0996 1.5606 0.55078 1.8711 0.45899 0.61914 0.7207 3.0801-2.6797 5.6504 0.0195 2.4902 1.2598 0.79883 8.0801 0.40039 2.2598-1.8691 2.4199 0.80859 3.4707 4.6309-2.541 4.5606 3.0195 0.8789 3.9512-4.5488 2.2598 0.40821 2.0996 1.4609-1.8496 2.4395 2.5 3.9004h2.6602l1.3691-2.5996 2.8203-0.57031 0.0801-2.1094-5.2402-0.81055 0.16016-2.2695h5.0801l4.3652-3.4961 0.36524 0.5957 0.78906 1.2793-3.7695 4.0508-1 3.7988 2.2598 3.291 7.291 2.5293 0.57031 0.60156 3.2695 4.2695 4.0801 1.8789 2.5098-0.01 0.40039 0.65039-0.23047 2.4805 4.2207 3.7793 3.3984 0.58985 1.4102-1.6504 0.58984-0.5293 1.6406-0.5293 2.6992 2.8301 1.1699-4.9609 2.9316 0.4707-0.12109-1.4199-4.8203-4.2207-0.59961-0.68945-4.0195-3.8008v-4.8106l-2.5098-0.75977 0.5-4.0488 4.0195-4.8105 0.68946-0.25 4.0996-1.75 4.5801-0.16016 0.32032 7h-2.6797l-2.0488 3.3398 2.6797 4.4512 3.9492 2.2285 0.35937 2.5508 1.4512-0.48046 1.3398-1.5898 2.209 0.48047 1.1113 2.2305-0.21094 0.66992-0.61914 2.6289h-4.1504v3.5605l4.459 2.9395-1.3789 4.0312v1.8594l1.8496 0.31055 2.4609-3.25 5.5391-1.2402 11.84 4.4902 0.15039 3.25 6.6094 0.61914 7.3809-7.75 0.92969 0.0195 3.0801 0.16016 0.58008 0.0605h1.5508l2.6191-0.90039-0.0625-1.6191 2.9805-2.4609 1.9609 1.9199-0.12109 3.1797 2.6797 0.18164 0.17969-2.5215 2.6816-0.35937 1.5488 0.11914 0.71094 1.4414 0.70898-0.0605 0.54102-1.1406-1.791-3.7793-3.5703-0.35937-0.59961-1.9199-0.26953-1.0606 3.4902-4.4004 4.3691 0.75977 5.2715-7.2988 0.36914-0.66016 2.5195-3.3398-4.2598-5.25 5.6797-12.4 4.5801 0.32031 3.1602-7.6309 0.24023-0.73047 3.2109 0.33985 6.2793-8.6094 8.0391 3.5508 4.2715 0.75977 4.2695-3.8008-3.7695-2.5293 3.2695-5.0606 9.2988 3.041 2.0117 4.0488 4.0195 0.25 2.5098-1.7695 6.7891-0.25 0.75 1.7695 7.791 0.50976 5.2793-5.5703 10.811 1.2715 3.2695-1.2715 1-6.0781-3.2695-7.3418 3.2695-2.7891h10.301l9.7988 11.65 12.561 7.0898h3.7695l0.5-3.041 4.5215-2.7891 0.5 16.459-4.0215 0.25v4.0508l2.2598 2.7891-0.41992 3.6211 1.6699 0.68946 1.0117-2.5293 1.5098 0.50976 1 1.0098 4.5195-1.0098 4.5195-13.17 0.5-16.461-5.7793-13.17-7.291-8.8594-3.5195 0.50976v2.791l-8.5391-3.291 3.2695-7.0898 2.7598-18.74 11.561-3.5391 5.5293-3.541h6.0293l-1.5098 2.0312 1.5098 2.5293 5.2812-5.5703 3.0195 0.25-0.5-3.2891-4.7793-1.0098 3.2695-11.9 4.3105-4.0801 1.7598 6.0801 3.5195 1.0098 3.5195-5.5703-2.0098-3.8008 0.75-3.2891h5.2812l-1.2617 2.5293 0.5 9.1211-7.5391 18.74 0.75 4.0488-0.25 6.8398 14.07 20.51 2.7598 0.76171 0.25-16.711 2.7617-2.5293-3.0215-6.5801 2.5098-2.791-5.5293-7.3398-3.0215 0.25-1-12.15 7.791-2.0293 0.5-3.5508 4.0215-1.0098 2.2578 2.0312 2.7618-11.141 4.7675-8.0996 3.7715-2.0312 3.2695 0.25v-3.7988l-5.2793-1.0098-7.291-6.0801 3.5196-4.0508-3.0196-6.8398 2.5098-2.5293 3.0195 4.0488 7.541 2.791 8.2891 0.75977 1.0117-3.541-4.2715-4.2988 4.7715-6.5801-10.81-3.8008-2.7598 5.5703-3.5215-4.5605zm-182.39 96.887h4.1367v11.332c0.0469 1.8672 0.91406 2.8008 2.6016 2.8008 0.85157 0 1.4961-0.23438 1.9336-0.70313 0.4375-0.46875 0.65626-1.2305 0.65626-2.2852v-11.145h4.1133v11.168c0 1.2656-0.26953 2.3633-0.8086 3.293-0.53906 0.92188-1.3125 1.625-2.3203 2.1094s-2.1992 0.72656-3.5742 0.72656c-2.0781 0-3.7148-0.53907-4.9102-1.6172-1.1953-1.0781-1.8047-2.5547-1.8281-4.4297z" icao="U"/>
<path transform="translate(21.728)" d="m631.22 254.75-5.5312 2.2285-1.0293 0.16016-4.0801-1.3691-16.98 3.1894-3.6992 2.8106 2.2598 11.67-6.75 0.26953-4.0606 6.5312-9.6699 2.3184 0.0312 4.75 31.85 24.352 2.7148 0.22852 0.38477 0.83984-1.1191 9.9707-9.4004 0.93945-4.7695 0.29101-10.361 7.9199-1.5996 5.1406-1.3496 0.42969-4.6211 0.11914-2.1992 0.34961 0.23047 5.1211-1.1602 0.46875-1.3906 2.5606 3.5801 4.1894 0.34961 6.1699 4.2812-3.0293 5.3203-0.92969 5.4297 1.1699 1.2793 0.30078 1.6211-0.0605 4.4199-2.5098 0.79882-0.44141 2.6797-1.5684 0.81055-0.1914h2.1191l0.74023-0.11914 3.9199 0.18945 4.7305 5.2695 2.3008 0.63086 1.7988-0.88086 2.7402-0.3789 0.92968-3.8203 3.7305-2.4492 4.041-0.1914 7.3984-13.609-0.11914-3.0703-3.4199-2.6289-0.35937-0.63085 2.5488-2.1895 0.1914-2.8809 4.7285-4.7695 1.25-10.529-3.1094-6.5215-7.9609-1.9394-0.58985-0.65039-1.8086-2.2793-3.4004-0.46094-2.041-3.4199v-14.148l0.58985-0.6914 1.3008-0.19922 0.19922-3.7402 1.1699 0.0703 2.9902-4.6504-3.709-1.3106-0.13086-1.0488 0.98047-1.6406v-3.5391l-0.84961-0.46093-0.13086-1.9707 0.84961-1.1094-0.0684-1.4395zm-24.084 22.979h5.4961c1.5078 0 2.8633 0.34375 4.0664 1.0312 1.2031 0.67969 2.1406 1.6445 2.8125 2.8945 0.67969 1.2422 1.0234 2.6367 1.0312 4.1836v0.78515c0 1.5625-0.33203 2.9648-0.99609 4.207-0.65625 1.2344-1.5859 2.2031-2.7891 2.9063-1.1953 0.69531-2.5312 1.0469-4.0078 1.0547h-5.6133zm4.1133 3.1758v10.723h1.4297c1.1797 0 2.0859-0.41797 2.7188-1.2539 0.63281-0.84374 0.94922-2.0937 0.94922-3.75v-0.73828c0-1.6484-0.31641-2.8906-0.94922-3.7266-0.63281-0.83594-1.5547-1.2539-2.7656-1.2539z" icao="D"/>
<path transform="translate(21.728)" d="m587.52 261.93-2.2598 5.0195-5.209 2.5098-4.3008 11.641-8.3789 5.0195-11.771 19.391 0.0801 0.79883 2.1797 2.8516-0.44922 12.318-0.44922 1.3516-0.90039 1.5996-0.2793 1.5996 1.4492 1.0391 0.43946 0.92187-0.0996 1.8789 1.2402 3.0098 0.57031 1.3008 1.4004 2.7695 0.41993 0.64062 3.0391 4.6797 0.4707 0.50976 5.6484 5.4609 0.5918 0.59961 10.979 7.3398-0.25976-5.5605-3.3203-3.9102 0.16016-1.6797 1.0801-2.0996 0.96094-0.54101-0.0703-4.6191 0.56055-0.8711 7.3691-0.30859 1.9297-5.4199 10.611-7.9199 13.75-1.25 1.1094-9.2812-2.9394-0.41992-23.012-17.539-8.1582-6.25-0.85547-1.7109 0.11523-5.0195 9.7402-2.2793 4.0801-6.6211 6.3398-0.23047-2.0508-10.719zm-9.7695 42.354c2.125 0 3.7734 0.48828 4.9453 1.4648 1.1797 0.96875 1.8672 2.418 2.0625 4.3477h-3.9609c-0.14063-0.95312-0.44531-1.6328-0.91406-2.0391s-1.1328-0.60938-1.9922-0.60938c-1.0312 0-1.8281 0.4375-2.3906 1.3125s-0.84765 2.125-0.85547 3.75v1.0312c0 1.7031 0.28907 2.9844 0.86719 3.8438 0.58594 0.85156 1.5039 1.2774 2.7539 1.2774 1.0703 0 1.8672-0.23829 2.3906-0.71485v-2.6484h-2.8594v-2.8242h6.9726v7.0078c-0.63281 0.70312-1.5586 1.2695-2.7773 1.6992-1.2188 0.42968-2.5547 0.64453-4.0078 0.64453-2.2344 0-4.0195-0.6836-5.3555-2.0508-1.3359-1.3672-2.0508-3.2695-2.1445-5.707l-0.0117-1.4766c0-1.6797 0.29688-3.1445 0.89063-4.3945 0.59375-1.2578 1.4414-2.2227 2.543-2.8945 1.1094-0.67969 2.3906-1.0195 3.8438-1.0195z" icao="G"/>
<path transform="translate(21.728)" d="m636.82 268.58-3.1895 5.2383h-0.78125l-0.45898 3.6016-1.5606 0.25976-0.0488 13.719 1.6895 3.0117 3.3203 0.45899 2.2793 3.0098 8.3906 2.0996 2.209-1.25 20.42 10.621 2.0215 0.89843-0.17969 11.83-3.7305 3.2109-0.15039 4.9394 2.6914 5.3106 2.9492 1.7402-0.17773 1.6035-0.15235 1.375-1.2305 0.74023 12.32 12.68 6.7109 0.38086 0.97852 1.4902 1.748 0.0312-0.0293 3.0488 1.0606 1.0195-0.16016 2.0918-6.8301 10.199 0.0605 3.9199-0.17969 2.0606 1.1992 3.2988 3.0938 10.721 0.99609 1.2383 4.7305 2.2207 3.7695 0.11133 0.75 5.5586 17.471-2.1387-3.9297-7.5996-0.21094-7.2812 1.2715-3.4805 0.63867-0.63868 4.9414-7.7598-2.5-2.0312-0.0508-10.219 3.1289-3.4199 1.2051-1.1465 6.4766-1.9941 9.4297-10.131 3.0605-2.459 0.8086-3.1309-1.1504-3.709-10.129 3.4805-1.2109 0.0586-4.0801-2.7793-0.80859 0.7207h-4.9707l0.44922-4.5918 0.6914-0.57813 1.6992-2.0918-9.3594-6.9688-1.9512-6.5195-1.0684-0.82031-0.45899-0.85156-7.9609-12.73-1.3105-0.46875-0.20118-4.9805-9.3691-11.6-1.1699-3.7402 0.12891-2.1602 1.7617 0.13086 1.9492 6.3594 1.6894 0.8496 0.98047-0.71875-0.55078-2.8906-2.6699-7.9102-3.8789 0.041-2.5996-1.4414h-1.4316l-3.0586 2.5606-2.4707-0.0703-5.1992-1.4395-2.6699-0.0703-0.83008-0.11914-4.5508-0.66016-2.1504-2.8808h-5.6602l-2.8594 2.4199-0.19922 1.1797 1.7598 1.7012 0.38867 1.6992-4.0293 1.7012-7.7402-3.541-2.1504-3.3398zm48.537 47.699h4.1133v6.7734h6.0586v-6.7734h4.0898v17.062h-4.0898v-7.125h-6.0586v7.125h-4.1133z" icao="H"/>
<path transform="translate(21.728)" d="m790.36 244.87-2.0996 1.9102 0.0606 1.75-3.1699 1.1992-5.8496-0.36914-7.5996 7.959-6.8008-0.61914-0.86914-0.50977-0.20117-3.1504-11.01-4.209-4.8809 1.0996-2.7285 3.3496-2.4199-0.16015-0.70117 0.58984-5.3887-0.34961-6.8008-4.9609-2.5293-2.7695-1.1602 0.28125-2.0898 2.3887-3.6914-0.69922-1.2188 1.2695 0.11914 2.0098 1.5195 2.1309-0.27929 0.87891-5.4805 0.79101-0.90039 0.01-12.789 1.3008-1.3496 2.959-2.5996-0.16993-0.35157 2.5391-0.11914 0.77148 0.0606 1.9492-0.82031 2.9609 2.8203 0.24023 0.79687 0.14258-0.0371 2.1562-0.1211 0.89062-2.459 8.5801 0.0293 2 0.59961 2.8438 13.75 16.836v4.5293l1.3809 2.0898 3.8008 1.7402 5.5391 9.0508 0.44921 0.77929 1.4414 4.2812v4.1797l3.459 3.1387 24.381-9.9297 0.23046-2.7305 0.63868-0.40821 5.0098-0.16992 10.891-16.031v-2.6094l-8.9902-4.7012-1.5098-2.3691-1.4102 0.82032-0.66992 6.6992-0.39063 0.64062-10.789-0.84961-1.0098-4.3809 0.3789-0.60937 1.4004-0.13086 0.51953-5.0488-1.209-0.87109-1.7305 0.87109-0.51953 4.0098-1.0996-0.0195-7.0098-9.7715-0.7207-1.1894 0.01-4.8809 0.66992-0.70899 0.75976-0.55078 3.1602 0.24024 2.4609 1.7695 0.11914 3.541 9.7305 5.6699h3.6289l2.2305-1.8906 2.8106-0.11914 1.6406 3.7793 10.51 1.4609 0.75977-0.0605h3.959l1.3613-1.1192h7.5391l6.8008 5.9785 0.86914-2.8691h5.0703l0.11914-3.6094-5.1894-4.9805 1.1094-2.7402 5.3203-0.36914 7.1699-14.951-3.959-3.1094-1.4805-5.2305 9.6406-0.86915-5.6914-8.1016-3.0293-0.81836-1.2402 1.5-0.92969 0.0684-0.48047-0.5-0.79883-1.1191-2.8906 0.17969-0.25977 2.6602-3.8809-0.0391-0.0703-3.5508zm-72.229 20.385c1.4453 0 2.7344 0.34375 3.8672 1.0312s2.0117 1.668 2.6367 2.9414c0.63281 1.2656 0.95312 2.7188 0.96094 4.3594v0.78516c0 1.6641-0.3086 3.1367-0.92578 4.418-0.61719 1.2812-1.4961 2.2695-2.6367 2.9648-1.1328 0.6875-2.4258 1.0312-3.8789 1.0312s-2.7422-0.33203-3.8672-0.99609c-1.125-0.67187-2.0039-1.6289-2.6367-2.8711-0.625-1.2422-0.95312-2.668-0.98437-4.2774v-0.96094c0-1.6719 0.30468-3.1445 0.91406-4.418 0.61719-1.2813 1.4961-2.2695 2.6367-2.9648 1.1484-0.69531 2.4531-1.043 3.9141-1.043zm0 3.2227c-2.0625 0-3.1523 1.5469-3.2695 4.6406l-0.0117 1.2539c0 1.6719 0.27735 2.957 0.83203 3.8555 0.55469 0.89844 1.3789 1.3477 2.4727 1.3477 1.0391 0 1.8398-0.44141 2.4023-1.3242 0.5625-0.88282 0.84766-2.1524 0.85547-3.8086v-0.78515c0-1.6953-0.28515-2.9805-0.85547-3.8555-0.5625-0.88281-1.3711-1.3242-2.4258-1.3242z" icao="O"/>
<path transform="translate(21.728)" d="m446.3 319.12a10.096 10.096 0 0 0-10.098 10.096 10.096 10.096 0 0 0 10.098 10.096 10.096 10.096 0 0 0 10.096-10.096 10.096 10.096 0 0 0-10.096-10.096zm-4.7539 4.8281h9.5078v2.1172h-3.4141v9.2578h-2.7422v-9.2578h-3.3516z" icao="T"/>
<path transform="translate(21.728)" d="m280.66 55.998-30.85 5.9688-1.2305 9.4512 6.6602 3.9785-2.4707 6.4707-8.8691-7.1992-8.3906 1.9902 1.7305 9.4492 9.1309 2.4902 0.49024 1.9902-13.57 4.2285-7.6504 12.682 2.709 13.43 4.4414 2.9805 3.459-3.2305 0.99023 1.9902-4.1992 4.9688-16.291 7.4609-10.369 2.4902-0.25 3.7285 23.939-6.959 9.8691-2.7402 9.1309-11.189 10.119-6.7109-5.1797 8.7012 5.6797 0.75 9.6309-4.2305 1.7305 6.959 6.6602 1.4902 6.9102 6.7109 0.49024 4.9688-0.99024 1.2402 1.2285 4.7207h1.7305l0.25-7.9609h1.9707l0.49023 19.641 4.9395-4.2305-3.4609-20.389h-5.1797l-5.6797-7.2109 27.891-47.25zm-74.529 281.91a18.27 18.27 0 0 0-18.27 18.27 18.27 18.27 0 0 0 18.27 18.271 18.27 18.27 0 0 0 18.27-18.271 18.27 18.27 0 0 0-18.27-18.27zm-6.0117 9.7383h6.8086c1.3047 0 2.457 0.24218 3.457 0.72656 1.0078 0.47656 1.7851 1.1602 2.332 2.0508 0.5547 0.8828 0.83204 1.8867 0.83204 3.0117 0 1.6641-0.59767 2.9961-1.793 3.9961-1.1875 0.99219-2.8202 1.4883-4.8984 1.4883h-2.625v5.7891h-4.1133zm4.1133 3.1777v4.9199h2.6953c0.7969 0 1.4024-0.19922 1.8164-0.59766 0.4219-0.39843 0.63281-0.96093 0.63281-1.6875 0-0.79687-0.21483-1.4336-0.64453-1.9102-0.4296-0.47657-1.0156-0.71681-1.7578-0.72461z" icao="P"/>
<path transform="translate(21.728)" d="m661.58 517.36a28.635 28.635 0 0 0-28.637 28.635 28.635 28.635 0 0 0 28.637 28.635 28.635 28.635 0 0 0 28.635-28.635 28.635 28.635 0 0 0-28.635-28.635zm-6.6602 20.6c2.7691 0 4.9831 1.3566 6.6445 4.0684 0.79253-1.3273 1.7582-2.3359 2.8945-3.0234 1.1363-0.69705 2.3906-1.0449 3.7656-1.0449 2.2726 0 4.0977 0.74067 5.4727 2.2207 1.3845 1.48 2.0762 3.4607 2.0762 5.9434 0 1.5182-0.31511 2.8891-0.94531 4.1113-0.63021 1.2127-1.5224 2.1478-2.6777 2.8066s-2.4731 0.98828-3.9531 0.98828c-1.375 0-2.6313-0.36827-3.7676-1.1035s-2.0918-1.785-2.8652-3.1504c-0.82118 1.4036-1.7891 2.4635-2.9062 3.1797-1.1172 0.71615-2.355 1.0742-3.7109 1.0742-2.2726 0-4.0998-0.73459-5.4844-2.2051-1.3845-1.4705-2.0781-3.4531-2.0781-5.9453 0-1.5182 0.3151-2.883 0.94531-4.0957 0.63021-1.2222 1.5141-2.1634 2.6504-2.8223 1.1458-0.6684 2.4594-1.002 3.9395-1.002zm0.31445 3.8672c-0.95486 0-1.7242 0.3724-2.3066 1.1172-0.58247 0.73524-0.87305 1.7951-0.87305 3.1797 0 1.2318 0.29058 2.2159 0.87305 2.9512 0.58246 0.7257 1.362 1.0879 2.3359 1.0879 1.3177 0 2.4288-0.84506 3.3359-2.5352 0.3533-0.6684 0.5497-1.2025 0.58789-1.6035v-0.33007c-0.0477-0.42969-0.2667-0.97809-0.6582-1.6465-0.87847-1.48-1.9772-2.2207-3.2949-2.2207zm12.676 0c-1.3177 0-2.4164 0.74067-3.2949 2.2207-0.3915 0.6684-0.61047 1.2168-0.65821 1.6465v0.33007c0.0477 0.48698 0.29123 1.1111 0.73047 1.875 0.43924 0.75434 0.93034 1.3231 1.4746 1.7051 0.54427 0.37239 1.1172 0.5586 1.7188 0.5586 0.97396 0 1.7535-0.36828 2.3359-1.1035 0.58246-0.73524 0.87305-1.7951 0.87305-3.1797 0-1.1936-0.28647-2.1675-0.85938-2.9219s-1.3464-1.1309-2.3203-1.1309z"/>
</svg>
