<?xml version="1.0" encoding="UTF-8"?>
<svg version="1.1" viewBox="0 0 26.458 26.458" xmlns="http://www.w3.org/2000/svg">
<path d="m10.583 1.3229 5.17e-4 2.3502a9.9219 9.9219 0 0 0-6.9106 6.9116v-0.00155h-2.3502v5.2916h2.3502v-0.00155a9.9219 9.9219 0 0 0 6.9127 6.9122h-0.002067v2.3502h5.2916v-2.3502h-0.002584a9.9219 9.9219 0 0 0 6.9127-6.9106h2.3502v-5.2916h-2.3445a9.9219 9.9219 0 0 0-6.9158-6.9158v-2.3445h-5.2921zm2.6463 5.2916a6.6146 6.6146 0 0 1 6.6145 6.6145 6.6146 6.6146 0 0 1-6.6145 6.6145 6.6146 6.6146 0 0 1-6.6145-6.6145 6.6146 6.6146 0 0 1 6.6145-6.6145zm0 1.3229a5.2917 5.2917 0 0 0-5.2916 5.2916 5.2917 5.2917 0 0 0 5.2916 5.2916 5.2917 5.2917 0 0 0 5.2916-5.2916 5.2917 5.2917 0 0 0-5.2916-5.2916zm0 1.7637a3.5278 3.5278 0 0 1 3.5279 3.5279 3.5278 3.5278 0 0 1-3.5279 3.5279 3.5278 3.5278 0 0 1-3.5279-3.5279 3.5278 3.5278 0 0 1 3.5279-3.5279z" fill="#2e313b"/>
</svg>