<?xml version="1.0" encoding="UTF-8"?>
<svg version="1.1" viewBox="0 0 63.5 63.5" xmlns="http://www.w3.org/2000/svg">
<path d="m31.993 5.534a1.8234 1.8234 0 0 0-1.8237 1.8237 1.8234 1.8234 0 0 0 1.8237 1.8231 1.8234 1.8234 0 0 0 1.8231-1.8231 1.8234 1.8234 0 0 0-1.8231-1.8237zm-6.3712 0.84388a1.8234 1.8234 0 0 0-1.8231 1.8237 1.8234 1.8234 0 0 0 1.8231 1.8231 1.8234 1.8234 0 0 0 1.8237-1.8231 1.8234 1.8234 0 0 0-1.8237-1.8237zm12.739 0.0051676a1.8234 1.8234 0 0 0-1.8237 1.8231 1.8234 1.8234 0 0 0 1.8237 1.8237 1.8234 1.8234 0 0 0 1.8231-1.8237 1.8234 1.8234 0 0 0-1.8231-1.8231zm-18.681 2.4557a1.8234 1.8234 0 0 0-1.8231 1.8237 1.8234 1.8234 0 0 0 1.8231 1.8231 1.8234 1.8234 0 0 0 1.8237-1.8231 1.8234 1.8234 0 0 0-1.8237-1.8237zm24.627 0.013953a1.8234 1.8234 0 0 0-1.8237 1.8231 1.8234 1.8234 0 0 0 1.8237 1.8237 1.8234 1.8234 0 0 0 1.8231-1.8237 1.8234 1.8234 0 0 0-1.8231-1.8231zm-13.921 2.9259a1.8234 1.8234 0 0 0-1.8231 1.8231 1.8234 1.8234 0 0 0 1.8231 1.8237 1.8234 1.8234 0 0 0 1.8237-1.8237 1.8234 1.8234 0 0 0-1.8237-1.8231zm6.3893 0.55346a1.8234 1.8234 0 0 0-1.8231 1.8231 1.8234 1.8234 0 0 0 1.8231 1.8237 1.8234 1.8234 0 0 0 1.8231-1.8237 1.8234 1.8234 0 0 0-1.8231-1.8231zm-22.198 0.42168a1.8234 1.8234 0 0 0-1.8237 1.8237 1.8234 1.8234 0 0 0 1.8237 1.8231 1.8234 1.8234 0 0 0 1.8231-1.8231 1.8234 1.8234 0 0 0-1.8231-1.8237zm34.836 0.007235a1.8234 1.8234 0 0 0-1.8237 1.8237 1.8234 1.8234 0 0 0 1.8237 1.8231 1.8234 1.8234 0 0 0 1.8231-1.8231 1.8234 1.8234 0 0 0-1.8231-1.8237zm-25.223 0.66766a1.8234 1.8234 0 0 0-1.8237 1.8231 1.8234 1.8234 0 0 0 1.8237 1.8231 1.8234 1.8234 0 0 0 1.8231-1.8231 1.8234 1.8234 0 0 0-1.8231-1.8231zm18.405 1.6102a1.8234 1.8234 0 0 0-1.8237 1.8231 1.8234 1.8234 0 0 0 1.8237 1.8237 1.8234 1.8234 0 0 0 1.8231-1.8237 1.8234 1.8234 0 0 0-1.8231-1.8231zm-23.666 2.0702a1.8234 1.8234 0 0 0-1.8237 1.8237 1.8234 1.8234 0 0 0 1.8237 1.8231 1.8234 1.8234 0 0 0 1.8231-1.8231 1.8234 1.8234 0 0 0-1.8231-1.8237zm13.067 0.74207a1.8234 1.8234 0 0 0-1.8237 1.8237 1.8234 1.8234 0 0 0 1.8237 1.8231 1.8234 1.8234 0 0 0 1.8231-1.8231 1.8234 1.8234 0 0 0-1.8231-1.8237zm-21.334 0.004651a1.8234 1.8234 0 0 0-1.8231 1.8231 1.8234 1.8234 0 0 0 1.8231 1.8237 1.8234 1.8234 0 0 0 1.8237-1.8237 1.8234 1.8234 0 0 0-1.8237-1.8231zm42.669 0a1.8234 1.8234 0 0 0-1.8231 1.8237 1.8234 1.8234 0 0 0 1.8231 1.8231 1.8234 1.8234 0 0 0 1.8237-1.8231 1.8234 1.8234 0 0 0-1.8237-1.8237zm-27.497 1.6516a1.8234 1.8234 0 0 0-1.8231 1.8237 1.8234 1.8234 0 0 0 1.8231 1.8231 1.8234 1.8234 0 0 0 1.8237-1.8231 1.8234 1.8234 0 0 0-1.8237-1.8237zm12.31 0.012403a1.8234 1.8234 0 0 0-1.8231 1.8237 1.8234 1.8234 0 0 0 1.8231 1.8231 1.8234 1.8234 0 0 0 1.8237-1.8231 1.8234 1.8234 0 0 0-1.8237-1.8237zm8.987 0.056327a1.8234 1.8234 0 0 0-1.8231 1.8231 1.8234 1.8234 0 0 0 1.8231 1.8237 1.8234 1.8234 0 0 0 1.8237-1.8237 1.8234 1.8234 0 0 0-1.8237-1.8231zm-31.88 2.789a1.8234 1.8234 0 0 0-1.8237 1.8237 1.8234 1.8234 0 0 0 1.8237 1.8231 1.8234 1.8234 0 0 0 1.8231-1.8231 1.8234 1.8234 0 0 0-1.8231-1.8237zm40.541 1.433a1.8234 1.8234 0 0 0-1.8231 1.8231 1.8234 1.8234 0 0 0 1.8231 1.8237 1.8234 1.8234 0 0 0 1.8237-1.8237 1.8234 1.8234 0 0 0-1.8237-1.8231zm-47.592 0.012402a1.8234 1.8234 0 0 0-1.8231 1.8231 1.8234 1.8234 0 0 0 1.8231 1.8237 1.8234 1.8234 0 0 0 1.8237-1.8237 1.8234 1.8234 0 0 0-1.8237-1.8231zm34.462 0.2036a1.8234 1.8234 0 0 0-1.8231 1.8231 1.8234 1.8234 0 0 0 1.8231 1.8237 1.8234 1.8234 0 0 0 1.8237-1.8237 1.8234 1.8234 0 0 0-1.8237-1.8231zm-21.344 0.009819a1.8234 1.8234 0 0 0-1.8231 1.8237 1.8234 1.8234 0 0 0 1.8231 1.8231 1.8234 1.8234 0 0 0 1.8237-1.8231 1.8234 1.8234 0 0 0-1.8237-1.8237zm28.521 1.3653a1.8234 1.8234 0 0 0-1.8231 1.8237 1.8234 1.8234 0 0 0 1.8231 1.8231 1.8234 1.8234 0 0 0 1.8237-1.8231 1.8234 1.8234 0 0 0-1.8237-1.8237zm-17.845 0.71262a5.9002 5.9002 0 0 0-5.9004 5.8999 5.9002 5.9002 0 0 0 5.9004 5.9004 5.9002 5.9002 0 0 0 5.8999-5.9004 5.9002 5.9002 0 0 0-5.8999-5.8999zm-18.4 2.4629a1.8234 1.8234 0 0 0-1.8231 1.8231 1.8234 1.8234 0 0 0 1.8231 1.8237 1.8234 1.8234 0 0 0 1.8237-1.8237 1.8234 1.8234 0 0 0-1.8237-1.8231zm30.707 1.6061a1.8234 1.8234 0 0 0-1.8231 1.8237 1.8234 1.8234 0 0 0 1.8231 1.8231 1.8234 1.8234 0 0 0 1.8237-1.8231 1.8234 1.8234 0 0 0-1.8237-1.8237zm-24.628 0.001551a1.8234 1.8234 0 0 0-1.8237 1.8237 1.8234 1.8234 0 0 0 1.8237 1.8231 1.8234 1.8234 0 0 0 1.8231-1.8231 1.8234 1.8234 0 0 0-1.8231-1.8237zm36.945 0.00155a1.8234 1.8234 0 0 0-1.8231 1.8237 1.8234 1.8234 0 0 0 1.8231 1.8231 1.8234 1.8234 0 0 0 1.8237-1.8231 1.8234 1.8234 0 0 0-1.8237-1.8237zm-49.262 0.004651a1.8234 1.8234 0 0 0-1.8237 1.8231 1.8234 1.8234 0 0 0 1.8237 1.8237 1.8234 1.8234 0 0 0 1.8231-1.8237 1.8234 1.8234 0 0 0-1.8231-1.8231zm43.044 1.6061a1.8234 1.8234 0 0 0-1.8237 1.8231 1.8234 1.8234 0 0 0 1.8237 1.8237 1.8234 1.8234 0 0 0 1.8231-1.8237 1.8234 1.8234 0 0 0-1.8231-1.8231zm-36.249 3.1672a1.8234 1.8234 0 0 0-1.8237 1.8231 1.8234 1.8234 0 0 0 1.8237 1.8237 1.8234 1.8234 0 0 0 1.8231-1.8237 1.8234 1.8234 0 0 0-1.8231-1.8231zm28.508 1.3911a1.8234 1.8234 0 0 0-1.8231 1.8237 1.8234 1.8234 0 0 0 1.8231 1.8231 1.8234 1.8234 0 0 0 1.8237-1.8231 1.8234 1.8234 0 0 0-1.8237-1.8237zm-21.337 0.001034a1.8234 1.8234 0 0 0-1.8237 1.8231 1.8234 1.8234 0 0 0 1.8237 1.8237 1.8234 1.8234 0 0 0 1.8231-1.8237 1.8234 1.8234 0 0 0-1.8231-1.8231zm-13.122 0.20257a1.8234 1.8234 0 0 0-1.8237 1.8237 1.8234 1.8234 0 0 0 1.8237 1.8231 1.8234 1.8234 0 0 0 1.8231-1.8231 1.8234 1.8234 0 0 0-1.8231-1.8237zm47.592 0.009302a1.8234 1.8234 0 0 0-1.8231 1.8231 1.8234 1.8234 0 0 0 1.8231 1.8237 1.8234 1.8234 0 0 0 1.8237-1.8237 1.8234 1.8234 0 0 0-1.8237-1.8231zm-7.0502 1.4268a1.8234 1.8234 0 0 0-1.8231 1.8231 1.8234 1.8234 0 0 0 1.8231 1.8231 1.8234 1.8234 0 0 0 1.8237-1.8231 1.8234 1.8234 0 0 0-1.8237-1.8231zm-31.881 2.7885a1.8234 1.8234 0 0 0-1.8231 1.8237 1.8234 1.8234 0 0 0 1.8231 1.8231 1.8234 1.8234 0 0 0 1.8237-1.8231 1.8234 1.8234 0 0 0-1.8237-1.8237zm21.293 0.066146a1.8234 1.8234 0 0 0-1.8237 1.8231 1.8234 1.8234 0 0 0 1.8237 1.8237 1.8234 1.8234 0 0 0 1.8231-1.8237 1.8234 1.8234 0 0 0-1.8231-1.8231zm-12.325 0.012402a1.8234 1.8234 0 0 0-1.8231 1.8231 1.8234 1.8234 0 0 0 1.8231 1.8237 1.8234 1.8234 0 0 0 1.8237-1.8237 1.8234 1.8234 0 0 0-1.8237-1.8231zm6.1655 1.6299a1.8234 1.8234 0 0 0-1.8237 1.8231 1.8234 1.8234 0 0 0 1.8237 1.8237 1.8234 1.8234 0 0 0 1.8231-1.8237 1.8234 1.8234 0 0 0-1.8231-1.8231zm-21.334 0.021704a1.8234 1.8234 0 0 0-1.8231 1.8237 1.8234 1.8234 0 0 0 1.8231 1.8231 1.8234 1.8234 0 0 0 1.8237-1.8231 1.8234 1.8234 0 0 0-1.8237-1.8237zm42.662 0a1.8234 1.8234 0 0 0-1.8237 1.8231 1.8234 1.8234 0 0 0 1.8237 1.8237 1.8234 1.8234 0 0 0 1.8231-1.8237 1.8234 1.8234 0 0 0-1.8231-1.8231zm-8.2693 0.73329a1.8234 1.8234 0 0 0-1.8237 1.8231 1.8234 1.8234 0 0 0 1.8237 1.8237 1.8234 1.8234 0 0 0 1.8231-1.8237 1.8234 1.8234 0 0 0-1.8231-1.8231zm-23.655 2.0743a1.8234 1.8234 0 0 0-1.8231 1.8231 1.8234 1.8234 0 0 0 1.8231 1.8237 1.8234 1.8234 0 0 0 1.8237-1.8237 1.8234 1.8234 0 0 0-1.8237-1.8231zm18.408 1.6108a1.8234 1.8234 0 0 0-1.8237 1.8231 1.8234 1.8234 0 0 0 1.8237 1.8237 1.8234 1.8234 0 0 0 1.8231-1.8237 1.8234 1.8234 0 0 0-1.8231-1.8231zm9.6103 0.67386a1.8234 1.8234 0 0 0-1.8237 1.8237 1.8234 1.8234 0 0 0 1.8237 1.8231 1.8234 1.8234 0 0 0 1.8231-1.8231 1.8234 1.8234 0 0 0-1.8231-1.8237zm-34.84 0.003101a1.8234 1.8234 0 0 0-1.8231 1.8231 1.8234 1.8234 0 0 0 1.8231 1.8237 1.8234 1.8234 0 0 0 1.8237-1.8237 1.8234 1.8234 0 0 0-1.8237-1.8231zm12.635 0.42375a1.8234 1.8234 0 0 0-1.8237 1.8237 1.8234 1.8234 0 0 0 1.8237 1.8231 1.8234 1.8234 0 0 0 1.8231-1.8231 1.8234 1.8234 0 0 0-1.8231-1.8237zm6.3929 0.56379a1.8234 1.8234 0 0 0-1.8231 1.8237 1.8234 1.8234 0 0 0 1.8231 1.8231 1.8234 1.8234 0 0 0 1.8237-1.8231 1.8234 1.8234 0 0 0-1.8237-1.8237zm10.709 2.9244a1.8234 1.8234 0 0 0-1.8237 1.8237 1.8234 1.8234 0 0 0 1.8237 1.8231 1.8234 1.8234 0 0 0 1.8231-1.8231 1.8234 1.8234 0 0 0-1.8231-1.8237zm-24.637 0.008268a1.8234 1.8234 0 0 0-1.8237 1.8237 1.8234 1.8234 0 0 0 1.8237 1.8231 1.8234 1.8234 0 0 0 1.8231-1.8231 1.8234 1.8234 0 0 0-1.8231-1.8237zm5.9407 2.4526a1.8234 1.8234 0 0 0-1.8237 1.8237 1.8234 1.8234 0 0 0 1.8237 1.8231 1.8234 1.8234 0 0 0 1.8231-1.8231 1.8234 1.8234 0 0 0-1.8231-1.8237zm12.745 0.001033a1.8234 1.8234 0 0 0-1.8231 1.8231 1.8234 1.8234 0 0 0 1.8231 1.8231 1.8234 1.8234 0 0 0 1.8237-1.8231 1.8234 1.8234 0 0 0-1.8237-1.8231zm-6.3671 0.82631a1.8234 1.8234 0 0 0-1.8237 1.8231 1.8234 1.8234 0 0 0 1.8237 1.8237 1.8234 1.8234 0 0 0 1.8231-1.8237 1.8234 1.8234 0 0 0-1.8231-1.8231z" fill="#2e313b"/>
</svg>