<?xml version="1.0" encoding="UTF-8"?>
<svg version="1.1" viewBox="0 0 63.5 63.5" xmlns="http://www.w3.org/2000/svg">
<path transform="matrix(-.22234 .22258 -.22234 -.22258 11.94 74.051)" d="m-133.57 176.02 0.00348-0.00348a4.0532 4.0488 45 0 0 5.7249 0.00425l113.82-113.82a4.0532 4.0488 45 0 0 3.94e-4 -5.7296l-131.3-131.3a4.0532 4.0488 45 0 0-5.733-0.003092l-56.551 56.551a4.2054 4.2054 0 0 0-0.71857 0.71857l-56.554 56.554a4.0532 4.0488 45 0 0 0.00774 5.7284l131.3 131.3zm2.8607-8.5969-125.57-125.57 64.823-64.823-0.00348 0.00116 43.278-43.278 0.00117 0.001163 125.57 125.57 0.002324 0.002325-43.689 43.689 0.001159-0.0058-64.413 64.413zm-23.06-102.75a20.122 20.091 45 0 0 28.435 0.022308 20.122 20.091 45 0 0-0.02231-28.435 20.122 20.091 45 0 0-28.435-0.022307 20.122 20.091 45 0 0 0.02231 28.435z" fill="#2e313b"/>
</svg>