<?xml version="1.0" encoding="UTF-8"?>
<svg width="240" height="240" version="1.1" viewBox="0 0 63.5 63.5" xmlns="http://www.w3.org/2000/svg">
<g transform="matrix(1.0096 0 0 1.0096 -.062983 -.062983)" stroke="#000" stroke-linecap="square" stroke-width="2.0966">
<g stroke-width="2.0966">
<path d="m36.53 31.75a4.7798 4.7798 0 0 1-4.7798 4.7798 4.7798 4.7798 0 0 1-4.7798-4.7798 4.7798 4.7798 0 0 1 4.7798-4.7798 4.7798 4.7798 0 0 1 4.7798 4.7798z" fill="#2e313b" stroke="#2e313b"/>
<circle cx="31.755" cy="31.755" r="0"/>
<g transform="matrix(1.22,0,0,1.22,-59.749,-120.75)" fill="#2e313b" stroke="#2e313b" stroke-width="6.8742">
<path transform="matrix(.25 0 0 .25 63.125 88.125)" d="m50 107.5a2.5 2.5 0 0 1-2.5 2.5 2.5 2.5 0 0 1-2.5-2.5 2.5 2.5 0 0 1 2.5-2.5 2.5 2.5 0 0 1 2.5 2.5z"/>
<path transform="matrix(.25 0 0 .25 63.125 108.12)" d="m50 107.5a2.5 2.5 0 0 1-2.5 2.5 2.5 2.5 0 0 1-2.5-2.5 2.5 2.5 0 0 1 2.5-2.5 2.5 2.5 0 0 1 2.5 2.5z"/>
</g>
<g transform="matrix(1.0566 -.61002 .61002 1.0566 -123.74 -54.567)" fill="#2e313b" stroke="#2e313b" stroke-width="6.8739">
<path transform="matrix(.25 0 0 .25 63.125 88.125)" d="m50 107.5a2.5 2.5 0 0 1-2.5 2.5 2.5 2.5 0 0 1-2.5-2.5 2.5 2.5 0 0 1 2.5-2.5 2.5 2.5 0 0 1 2.5 2.5z"/>
<path transform="matrix(.25 0 0 .25 63.125 108.12)" d="m50 107.5a2.5 2.5 0 0 1-2.5 2.5 2.5 2.5 0 0 1-2.5-2.5 2.5 2.5 0 0 1 2.5-2.5 2.5 2.5 0 0 1 2.5 2.5z"/>
</g>
<g transform="matrix(.61002 -1.0566 1.0566 .61002 -146.07 34.746)" fill="#2e313b" stroke="#2e313b" stroke-width="6.8739">
<path transform="matrix(.25 0 0 .25 63.125 88.125)" d="m50 107.5a2.5 2.5 0 0 1-2.5 2.5 2.5 2.5 0 0 1-2.5-2.5 2.5 2.5 0 0 1 2.5-2.5 2.5 2.5 0 0 1 2.5 2.5z"/>
<path transform="matrix(.25 0 0 .25 63.125 108.12)" d="m50 107.5a2.5 2.5 0 0 1-2.5 2.5 2.5 2.5 0 0 1-2.5-2.5 2.5 2.5 0 0 1 2.5-2.5 2.5 2.5 0 0 1 2.5 2.5z"/>
</g>
<g transform="matrix(0,-1.22,1.22,0,-120.75,123.26)" fill="#2e313b" stroke="#2e313b" stroke-width="6.8742">
<path transform="matrix(.25 0 0 .25 63.125 88.125)" d="m50 107.5a2.5 2.5 0 0 1-2.5 2.5 2.5 2.5 0 0 1-2.5-2.5 2.5 2.5 0 0 1 2.5-2.5 2.5 2.5 0 0 1 2.5 2.5z"/>
<path transform="matrix(.25 0 0 .25 63.125 108.12)" d="m50 107.5a2.5 2.5 0 0 1-2.5 2.5 2.5 2.5 0 0 1-2.5-2.5 2.5 2.5 0 0 1 2.5-2.5 2.5 2.5 0 0 1 2.5 2.5z"/>
</g>
<path transform="rotate(240)" d="m-42.615-0.57719a0.76254 0.76254 0 0 1-0.76254 0.76254 0.76254 0.76254 0 0 1-0.76254-0.76254 0.76254 0.76254 0 0 1 0.76254-0.76254 0.76254 0.76254 0 0 1 0.76254 0.76254z" fill="#2e313b" stroke="#2e313b"/>
<path transform="rotate(240)" d="m-42.615 23.824a0.76254 0.76254 0 0 1-0.76254 0.76254 0.76254 0.76254 0 0 1-0.76254-0.76254 0.76254 0.76254 0 0 1 0.76254-0.76254 0.76254 0.76254 0 0 1 0.76254 0.76254z" fill="#2e313b" stroke="#2e313b"/>
</g>
<g transform="matrix(-1.0566 -.61002 .61002 -1.0566 34.746 209.59)" fill="#2e313b" stroke="#2e313b" stroke-width="6.8739">
<path transform="matrix(.25 0 0 .25 63.125 88.125)" d="m50 107.5a2.5 2.5 0 0 1-2.5 2.5 2.5 2.5 0 0 1-2.5-2.5 2.5 2.5 0 0 1 2.5-2.5 2.5 2.5 0 0 1 2.5 2.5z"/>
<path transform="matrix(.25 0 0 .25 63.125 108.12)" d="m50 107.5a2.5 2.5 0 0 1-2.5 2.5 2.5 2.5 0 0 1-2.5-2.5 2.5 2.5 0 0 1 2.5-2.5 2.5 2.5 0 0 1 2.5 2.5z"/>
</g>
<path transform="rotate(-25)" d="m16.123 23.9a0.76254 0.76254 0 0 1-0.76254 0.76254 0.76254 0.76254 0 0 1-0.76254-0.76254 0.76254 0.76254 0 0 1 0.76254-0.76254 0.76254 0.76254 0 0 1 0.76254 0.76254z" fill="#2e313b" stroke="#2e313b"/>
<path transform="rotate(-25)" d="m16.123 60.502a0.76254 0.76254 0 0 1-0.76254 0.76254 0.76254 0.76254 0 0 1-0.76254-0.76254 0.76254 0.76254 0 0 1 0.76254-0.76254 0.76254 0.76254 0 0 1 0.76254 0.76254z" fill="#2e313b" stroke="#2e313b"/>
<g transform="matrix(.86271 -.86271 .86271 .86271 -140.79 -11.38)" fill="#2e313b" stroke="#2e313b" stroke-width="6.8738">
<path transform="matrix(.25 0 0 .25 63.125 83.125)" d="m50 107.5a2.5 2.5 0 0 1-2.5 2.5 2.5 2.5 0 0 1-2.5-2.5 2.5 2.5 0 0 1 2.5-2.5 2.5 2.5 0 0 1 2.5 2.5z"/>
<path transform="matrix(.25 0 0 .25 63.125 113.12)" d="m50 107.5a2.5 2.5 0 0 1-2.5 2.5 2.5 2.5 0 0 1-2.5-2.5 2.5 2.5 0 0 1 2.5-2.5 2.5 2.5 0 0 1 2.5 2.5z"/>
</g>
<path transform="rotate(-65)" d="m-14.597 23.9a0.76254 0.76254 0 0 1-0.76254 0.76254 0.76254 0.76254 0 0 1-0.76254-0.76254 0.76254 0.76254 0 0 1 0.76254-0.76254 0.76254 0.76254 0 0 1 0.76254 0.76254z" fill="#2e313b" stroke="#2e313b"/>
<path transform="rotate(-65)" d="m-14.597 60.502a0.76254 0.76254 0 0 1-0.76254 0.76254 0.76254 0.76254 0 0 1-0.76254-0.76254 0.76254 0.76254 0 0 1 0.76254-0.76254 0.76254 0.76254 0 0 1 0.76254 0.76254z" fill="#2e313b" stroke="#2e313b"/>
<g transform="matrix(.10633 -1.2154 1.2154 .10633 -128.14 109.62)" fill="#2e313b" stroke="#2e313b" stroke-width="6.8739">
<path transform="matrix(.25 0 0 .25 63.125 83.125)" d="m50 107.5a2.5 2.5 0 0 1-2.5 2.5 2.5 2.5 0 0 1-2.5-2.5 2.5 2.5 0 0 1 2.5-2.5 2.5 2.5 0 0 1 2.5 2.5z"/>
<path transform="matrix(.25 0 0 .25 63.125 113.12)" d="m50 107.5a2.5 2.5 0 0 1-2.5 2.5 2.5 2.5 0 0 1-2.5-2.5 2.5 2.5 0 0 1 2.5-2.5 2.5 2.5 0 0 1 2.5 2.5z"/>
</g>
<g transform="matrix(-.31577 -1.1785 1.1785 -.31577 -91.872 159.61)" fill="#2e313b" stroke="#2e313b" stroke-width="6.8738">
<path transform="matrix(.25 0 0 .25 63.125 83.125)" d="m50 107.5a2.5 2.5 0 0 1-2.5 2.5 2.5 2.5 0 0 1-2.5-2.5 2.5 2.5 0 0 1 2.5-2.5 2.5 2.5 0 0 1 2.5 2.5z"/>
<path transform="matrix(.25 0 0 .25 63.125 113.12)" d="m50 107.5a2.5 2.5 0 0 1-2.5 2.5 2.5 2.5 0 0 1-2.5-2.5 2.5 2.5 0 0 1 2.5-2.5 2.5 2.5 0 0 1 2.5 2.5z"/>
</g>
<g transform="matrix(.93941 0 0 .93941 1.9292 1.9292)" fill="#2e313b" stroke="#2e313b" stroke-width="2.2318">
<path transform="rotate(235)" d="m-43.407-11.684a0.81172 0.81172 0 0 1-0.81172 0.81172 0.81172 0.81172 0 0 1-0.81172-0.81172 0.81172 0.81172 0 0 1 0.81172-0.81172 0.81172 0.81172 0 0 1 0.81172 0.81172z"/>
<path transform="rotate(235)" d="m-43.407 27.278a0.81172 0.81172 0 0 1-0.81172 0.81172 0.81172 0.81172 0 0 1-0.81172-0.81172 0.81172 0.81172 0 0 1 0.81172-0.81172 0.81172 0.81172 0 0 1 0.81172 0.81172z"/>
<path transform="rotate(215)" d="m-43.407-27.278a0.81172 0.81172 0 0 1-0.81172 0.81172 0.81172 0.81172 0 0 1-0.81172-0.81172 0.81172 0.81172 0 0 1 0.81172-0.81172 0.81172 0.81172 0 0 1 0.81172 0.81172z"/>
<path transform="rotate(215)" d="m-43.407 11.684a0.81172 0.81172 0 0 1-0.81172 0.81172 0.81172 0.81172 0 0 1-0.81172-0.81172 0.81172 0.81172 0 0 1 0.81172-0.81172 0.81172 0.81172 0 0 1 0.81172 0.81172z"/>
</g>
<g transform="matrix(-1.1785 -.31577 .31577 -1.1785 80.669 202.75)" fill="#2e313b" stroke="#2e313b" stroke-width="6.8738">
<path transform="matrix(.25 0 0 .25 63.125 83.125)" d="m50 107.5a2.5 2.5 0 0 1-2.5 2.5 2.5 2.5 0 0 1-2.5-2.5 2.5 2.5 0 0 1 2.5-2.5 2.5 2.5 0 0 1 2.5 2.5z"/>
<path transform="matrix(.25 0 0 .25 63.125 113.12)" d="m50 107.5a2.5 2.5 0 0 1-2.5 2.5 2.5 2.5 0 0 1-2.5-2.5 2.5 2.5 0 0 1 2.5-2.5 2.5 2.5 0 0 1 2.5 2.5z"/>
</g>
<g transform="matrix(-1.2154 .10633 -.10633 -1.2154 136.2 175.71)" fill="#2e313b" stroke="#2e313b" stroke-width="6.8739">
<path transform="matrix(.25 0 0 .25 63.125 83.125)" d="m50 107.5a2.5 2.5 0 0 1-2.5 2.5 2.5 2.5 0 0 1-2.5-2.5 2.5 2.5 0 0 1 2.5-2.5 2.5 2.5 0 0 1 2.5 2.5z"/>
<path transform="matrix(.25 0 0 .25 63.125 113.12)" d="m50 107.5a2.5 2.5 0 0 1-2.5 2.5 2.5 2.5 0 0 1-2.5-2.5 2.5 2.5 0 0 1 2.5-2.5 2.5 2.5 0 0 1 2.5 2.5z"/>
</g>
<g transform="matrix(1.22,0,0,1.22,-59.749,-120.75)" fill="#2e313b" stroke="#2e313b" stroke-width="6.8742">
<path transform="matrix(.25 0 0 .25 63.125 118.12)" d="m50 107.5a2.5 2.5 0 0 1-2.5 2.5 2.5 2.5 0 0 1-2.5-2.5 2.5 2.5 0 0 1 2.5-2.5 2.5 2.5 0 0 1 2.5 2.5z"/>
<path transform="matrix(.25 0 0 .25 63.125 78.125)" d="m50 107.5a2.5 2.5 0 0 1-2.5 2.5 2.5 2.5 0 0 1-2.5-2.5 2.5 2.5 0 0 1 2.5-2.5 2.5 2.5 0 0 1 2.5 2.5z"/>
</g>
<g transform="matrix(.93941 0 0 .93941 1.9292 1.9292)" fill="#2e313b" stroke="#2e313b" stroke-width="2.2318">
<path transform="rotate(-15)" d="m23.263 64.861a0.81172 0.81172 0 0 1-0.81172 0.81172 0.81172 0.81172 0 0 1-0.81172-0.81172 0.81172 0.81172 0 0 1 0.81172-0.81172 0.81172 0.81172 0 0 1 0.81172 0.81172z"/>
<path transform="rotate(-15)" d="m23.263 12.911a0.81172 0.81172 0 0 1-0.81172 0.81172 0.81172 0.81172 0 0 1-0.81172-0.81172 0.81172 0.81172 0 0 1 0.81172-0.81172 0.81172 0.81172 0 0 1 0.81172 0.81172z"/>
<path transform="rotate(-30)" d="m12.433 69.346a0.81172 0.81172 0 0 1-0.81172 0.81172 0.81172 0.81172 0 0 1-0.81172-0.81172 0.81172 0.81172 0 0 1 0.81172-0.81172 0.81172 0.81172 0 0 1 0.81172 0.81172z"/>
<path transform="rotate(-30)" d="m12.433 17.396a0.81172 0.81172 0 0 1-0.81172 0.81172 0.81172 0.81172 0 0 1-0.81172-0.81172 0.81172 0.81172 0 0 1 0.81172-0.81172 0.81172 0.81172 0 0 1 0.81172 0.81172z"/>
<path transform="rotate(-45)" d="m0.81172 70.876a0.81172 0.81172 0 0 1-0.81172 0.81172 0.81172 0.81172 0 0 1-0.81172-0.81172 0.81172 0.81172 0 0 1 0.81172-0.81172 0.81172 0.81172 0 0 1 0.81172 0.81172z"/>
<path transform="rotate(-45)" d="m0.81172 18.926a0.81172 0.81172 0 0 1-0.81172 0.81172 0.81172 0.81172 0 0 1-0.81172-0.81172 0.81172 0.81172 0 0 1 0.81172-0.81172 0.81172 0.81172 0 0 1 0.81172 0.81172z"/>
<path transform="rotate(-60)" d="m-10.809 69.346a0.81172 0.81172 0 0 1-0.81172 0.81172 0.81172 0.81172 0 0 1-0.81172-0.81172 0.81172 0.81172 0 0 1 0.81172-0.81172 0.81172 0.81172 0 0 1 0.81172 0.81172z"/>
<path transform="rotate(-60)" d="m-10.809 17.396a0.81172 0.81172 0 0 1-0.81172 0.81172 0.81172 0.81172 0 0 1-0.81172-0.81172 0.81172 0.81172 0 0 1 0.81172-0.81172 0.81172 0.81172 0 0 1 0.81172 0.81172z"/>
<path transform="rotate(-75)" d="m-21.639 64.861a0.81172 0.81172 0 0 1-0.81172 0.81172 0.81172 0.81172 0 0 1-0.81172-0.81172 0.81172 0.81172 0 0 1 0.81172-0.81172 0.81172 0.81172 0 0 1 0.81172 0.81172z"/>
<path transform="rotate(-75)" d="m-21.639 12.911a0.81172 0.81172 0 0 1-0.81172 0.81172 0.81172 0.81172 0 0 1-0.81172-0.81172 0.81172 0.81172 0 0 1 0.81172-0.81172 0.81172 0.81172 0 0 1 0.81172 0.81172z"/>
</g>
<g transform="matrix(0,-1.22,1.22,0,-120.75,123.26)" fill="#2e313b" stroke="#2e313b" stroke-width="6.8742">
<path transform="matrix(.25 0 0 .25 63.125 118.12)" d="m50 107.5a2.5 2.5 0 0 1-2.5 2.5 2.5 2.5 0 0 1-2.5-2.5 2.5 2.5 0 0 1 2.5-2.5 2.5 2.5 0 0 1 2.5 2.5z"/>
<path transform="matrix(.25 0 0 .25 63.125 78.125)" d="m50 107.5a2.5 2.5 0 0 1-2.5 2.5 2.5 2.5 0 0 1-2.5-2.5 2.5 2.5 0 0 1 2.5-2.5 2.5 2.5 0 0 1 2.5 2.5z"/>
</g>
<g transform="matrix(.93941 0 0 .93941 1.9292 1.9292)" fill="#2e313b" stroke="#2e313b" stroke-width="2.2318">
<path transform="rotate(255)" d="m-38.074 48.426a0.81172 0.81172 0 0 1-0.81172 0.81172 0.81172 0.81172 0 0 1-0.81172-0.81172 0.81172 0.81172 0 0 1 0.81172-0.81172 0.81172 0.81172 0 0 1 0.81172 0.81172z"/>
<path transform="rotate(255)" d="m-38.074-3.5243a0.81172 0.81172 0 0 1-0.81172 0.81172 0.81172 0.81172 0 0 1-0.81172-0.81172 0.81172 0.81172 0 0 1 0.81172-0.81172 0.81172 0.81172 0 0 1 0.81172 0.81172z"/>
<path transform="rotate(240)" d="m-42.559 37.596a0.81172 0.81172 0 0 1-0.81172 0.81172 0.81172 0.81172 0 0 1-0.81172-0.81172 0.81172 0.81172 0 0 1 0.81172-0.81172 0.81172 0.81172 0 0 1 0.81172 0.81172z"/>
<path transform="rotate(240)" d="m-42.559-14.354a0.81172 0.81172 0 0 1-0.81172 0.81172 0.81172 0.81172 0 0 1-0.81172-0.81172 0.81172 0.81172 0 0 1 0.81172-0.81172 0.81172 0.81172 0 0 1 0.81172 0.81172z"/>
</g>
<g transform="matrix(-.86271 -.86271 .86271 -.86271 -11.38 204.3)" fill="#2e313b" stroke="#2e313b" stroke-width="6.8738">
<path transform="matrix(.25 0 0 .25 63.125 118.12)" d="m50 107.5a2.5 2.5 0 0 1-2.5 2.5 2.5 2.5 0 0 1-2.5-2.5 2.5 2.5 0 0 1 2.5-2.5 2.5 2.5 0 0 1 2.5 2.5z"/>
<path transform="matrix(.25 0 0 .25 63.125 78.125)" d="m50 107.5a2.5 2.5 0 0 1-2.5 2.5 2.5 2.5 0 0 1-2.5-2.5 2.5 2.5 0 0 1 2.5-2.5 2.5 2.5 0 0 1 2.5 2.5z"/>
</g>
<g transform="matrix(-1.0566 -.61002 .61002 -1.0566 34.746 209.59)" fill="#2e313b" stroke="#2e313b" stroke-width="6.8739">
<path transform="matrix(.25 0 0 .25 63.125 118.12)" d="m50 107.5a2.5 2.5 0 0 1-2.5 2.5 2.5 2.5 0 0 1-2.5-2.5 2.5 2.5 0 0 1 2.5-2.5 2.5 2.5 0 0 1 2.5 2.5z"/>
<path transform="matrix(.25 0 0 .25 63.125 78.125)" d="m50 107.5a2.5 2.5 0 0 1-2.5 2.5 2.5 2.5 0 0 1-2.5-2.5 2.5 2.5 0 0 1 2.5-2.5 2.5 2.5 0 0 1 2.5 2.5z"/>
</g>
<g transform="matrix(-1.1785 -.31577 .31577 -1.1785 80.669 202.75)" fill="#2e313b" stroke="#2e313b" stroke-width="6.8738">
<path transform="matrix(.25 0 0 .25 63.125 118.12)" d="m50 107.5a2.5 2.5 0 0 1-2.5 2.5 2.5 2.5 0 0 1-2.5-2.5 2.5 2.5 0 0 1 2.5-2.5 2.5 2.5 0 0 1 2.5 2.5z"/>
<path transform="matrix(.25 0 0 .25 63.125 78.125)" d="m50 107.5a2.5 2.5 0 0 1-2.5 2.5 2.5 2.5 0 0 1-2.5-2.5 2.5 2.5 0 0 1 2.5-2.5 2.5 2.5 0 0 1 2.5 2.5z"/>
</g>
</g>
</svg>
