<?xml version="1.0" encoding="UTF-8"?>
<svg width="63.5mm" height="63.5mm" version="1.1" viewBox="0 0 63.5 63.5" xmlns="http://www.w3.org/2000/svg">
<path transform="matrix(-.22234 .22258 -.22234 -.22258 11.94 74.051)" d="m-133.57 176.02a4.0532 4.0488 45 0 0 5.7249 0.00425l113.82-113.82a4.0532 4.0488 45 0 0 3.94e-4 -5.7296l-131.3-131.3a4.0532 4.0488 45 0 0-5.733-0.003092l-56.551 56.551a4.2054 4.2054 0 0 0-0.71856 0.71857l-56.554 56.554a4.0532 4.0488 45 0 0 0.00774 5.7284l131.3 131.3zm2.8572-8.5934-25.222-25.222 68.907-18.463-43.685 43.685zm-100.58-100.58-24.986-24.986 43.279-43.279-18.292 68.265zm69.029 68.351-62.018-62.02 22.7-84.716 84.719-22.702 62.018 62.02-22.7 84.719-84.719 22.7zm8.4918-70.516a20.122 20.091 45 0 0 28.435 0.022308 20.122 20.091 45 0 0-0.02231-28.435 20.122 20.091 45 0 0-28.435-0.022307 20.122 20.091 45 0 0 0.02231 28.435zm87.472 38.338 18.465-68.912 25.223 25.223-43.689 43.689zm-125.16-125.98 43.278-43.278 24.986 24.986-68.264 18.291z" color="#000000" fill="#2e313b" stroke-linecap="round" stroke-linejoin="round"/>
</svg>
