<?xml version="1.0" encoding="UTF-8"?>
<svg data-name="Layer 1" version="1.1" viewBox="0 0 32 32" xmlns="http://www.w3.org/2000/svg">
<defs>
<style>.cls-1 {
        fill: none;
      }</style>
</defs>
<circle cx="16" cy="14.5" r="2" fill="#2e313b"/>
<path d="m20 28.5h-8a1 1 0 0 1-1-1v-5.7344l-3.7388-6.5425-4.7758-2.8657a1 1 0 0 1-0.3536-1.3535l4-7a1 1 0 0 1 1.3828-0.3613l4.7623 2.8574h7.4462l4.7623-2.8574a1 1 0 0 1 1.3828 0.3613l4 7a1 1 0 0 1-0.3536 1.3535l-4.7758 2.8657-3.7388 6.5425v5.7344a1 1 0 0 1-1 1zm-7-2h6v-5.2654l4.2616-7.4578 4.3844-2.6306-3.0073-5.2631-4.3617 2.6169h-8.554l-4.3617-2.6169-3.0073 5.2631 4.3844 2.6306 4.2616 7.4578z" fill="#2e313b"/>
</svg>
