<?xml version="1.0" encoding="UTF-8"?>
<svg width="63.5mm" height="63.5mm" version="1.1" viewBox="0 0 63.5 63.5" xmlns="http://www.w3.org/2000/svg">
<path transform="matrix(-.22234 .22258 -.22234 -.22258 11.94 74.051)" d="m-166.5 142.86a4.2054 4.2054 0 0 0 4.0623 1.0905l89.409-23.957a4.2054 4.2054 0 0 0 2.9718-2.9741l23.957-89.409a4.2054 4.2054 0 0 0-1.0882-4.0599l-65.453-65.453a4.2054 4.2054 0 0 0-4.06-1.0882l-89.409 23.957a4.2054 4.2054 0 0 0-2.9718 2.9741l-23.957 89.407a4.2054 4.2054 0 0 0 1.0882 4.0623l65.451 65.451zm4.2306-7.6611-62.018-62.02 22.7-84.716 84.719-22.702 62.018 62.02-22.7 84.719-84.719 22.7zm8.4918-70.516a20.122 20.091 45 0 0 28.435 0.022308 20.122 20.091 45 0 0-0.02231-28.435 20.122 20.091 45 0 0-28.435-0.022307 20.122 20.091 45 0 0 0.02231 28.435z" color="#000000" fill="#2e313b" stroke-linecap="round" stroke-linejoin="round"/>
</svg>
