<?xml version="1.0" encoding="UTF-8"?>
<svg version="1.1" viewBox="0 0 63.5 63.5" xmlns="http://www.w3.org/2000/svg">
<path d="m2.7879 5.3795v0.0015503c-0.70317 3.887e-4 -1.2727 0.57015-1.2733 1.2733l-5.167e-4 50.668c-5.035e-4 0.70397 0.56985 1.275 1.2738 1.2754h58.387c0.70458 4.98e-4 1.2759-0.5708 1.2754-1.2754v-25.174c0.012916-0.10623 0.012916-0.21364 0-0.31988v-25.176c-6.91e-4 -0.70375-0.57162-1.2738-1.2754-1.2733h-58.387zm1.2754 2.5502h11.216 33.51 11.111v19.266 9.5906l5.16e-4 -0.001033v19.265h-5.16e-4 -11.11-23.436-10.075-11.215-0.0010336v-19.448l0.0010336 0.00155v-9.2273-19.447zm15.617 0.90899c-1.007 1.657e-4 -1.8233 0.81663-1.8231 1.8237 1.66e-4 1.0068 0.81634 1.823 1.8231 1.8231 1.007 1.65e-4 1.8235-0.81611 1.8237-1.8231 1.66e-4 -1.0073-0.81639-1.8238-1.8237-1.8237zm24.627 0.013953c-1.007-1.657e-4 -1.8235 0.81611-1.8237 1.8231-1.66e-4 1.0073 0.81639 1.8238 1.8237 1.8237 1.007-1.66e-4 1.8233-0.81663 1.8231-1.8237-1.66e-4 -1.0068-0.81634-1.823-1.8231-1.8231zm-13.921 2.9259c-1.0068 1.65e-4 -1.823 0.81634-1.8231 1.8231-1.66e-4 1.007 0.81611 1.8235 1.8231 1.8237 1.0073 1.65e-4 1.8238-0.81639 1.8237-1.8237-1.66e-4 -1.007-0.81663-1.8233-1.8237-1.8231zm6.3893 0.55346c-1.0068 1.65e-4 -1.823 0.81634-1.8231 1.8231-1.66e-4 1.007 0.81611 1.8235 1.8231 1.8237 1.007-1.66e-4 1.8233-0.81663 1.8231-1.8237-1.66e-4 -1.0068-0.81634-1.823-1.8231-1.8231zm-22.198 0.42168c-1.0073-1.66e-4 -1.8238 0.81639-1.8237 1.8237 1.66e-4 1.007 0.81663 1.8233 1.8237 1.8231 1.0068-1.66e-4 1.823-0.81634 1.8231-1.8231 1.66e-4 -1.007-0.81611-1.8235-1.8231-1.8237zm34.836 0.007235c-1.0073-1.66e-4 -1.8238 0.81639-1.8237 1.8237 1.66e-4 1.007 0.81663 1.8233 1.8237 1.8231 1.0068-1.66e-4 1.823-0.81634 1.8231-1.8231 1.66e-4 -1.007-0.81611-1.8235-1.8231-1.8237zm-25.223 0.66766c-1.007-1.66e-4 -1.8235 0.81611-1.8237 1.8231 1.66e-4 1.007 0.81663 1.8233 1.8237 1.8231 1.0068-1.66e-4 1.823-0.81634 1.8231-1.8231-1.66e-4 -1.0068-0.81634-1.823-1.8231-1.8231zm18.405 1.6102c-1.007-1.66e-4 -1.824 0.81611-1.8242 1.8231-1.66e-4 1.0073 0.81691 1.8238 1.8242 1.8237 1.007-1.66e-4 1.8228-0.81663 1.8226-1.8237-1.66e-4 -1.0068-0.81583-1.823-1.8226-1.8231zm-23.666 2.0702c-1.0073-1.66e-4 -1.8238 0.81639-1.8237 1.8237 1.66e-4 1.007 0.81663 1.8233 1.8237 1.8231 1.0068-1.66e-4 1.823-0.81634 1.8231-1.8231 1.66e-4 -1.007-0.81611-1.8235-1.8231-1.8237zm13.067 0.74207c-1.0073-1.66e-4 -1.8238 0.81639-1.8237 1.8237 1.66e-4 1.007 0.81663 1.8233 1.8237 1.8231 1.0068-1.66e-4 1.823-0.81634 1.8231-1.8231 1.66e-4 -1.007-0.81611-1.8235-1.8231-1.8237zm-21.334 0.004651c-1.0068 1.65e-4 -1.8225 0.81634-1.8226 1.8231-1.657e-4 1.007 0.81559 1.8235 1.8226 1.8237 1.0073 1.65e-4 1.8238-0.81639 1.8237-1.8237-1.66e-4 -1.007-0.81663-1.8233-1.8237-1.8231zm42.669 0c-1.007 1.65e-4 -1.8233 0.81663-1.8231 1.8237 1.66e-4 1.0068 0.81634 1.823 1.8231 1.8231 1.007 1.65e-4 1.8235-0.81611 1.8237-1.8231 1.66e-4 -1.0073-0.81639-1.8238-1.8237-1.8237zm-27.497 1.6516c-1.007 1.65e-4 -1.8233 0.81663-1.8231 1.8237 1.65e-4 1.0068 0.81634 1.823 1.8231 1.8231 1.007 1.65e-4 1.8235-0.81611 1.8237-1.8231 1.66e-4 -1.0073-0.81639-1.8238-1.8237-1.8237zm12.31 0.012403c-1.007 1.65e-4 -1.8233 0.81663-1.8231 1.8237 1.66e-4 1.0068 0.81634 1.823 1.8231 1.8231 1.007 1.65e-4 1.8235-0.81611 1.8237-1.8231 1.66e-4 -1.0073-0.81639-1.8238-1.8237-1.8237zm8.987 0.056327c-1.0068 1.65e-4 -1.823 0.81634-1.8231 1.8231-1.66e-4 1.007 0.81611 1.8235 1.8231 1.8237 1.0073 1.65e-4 1.8238-0.81639 1.8237-1.8237-1.66e-4 -1.007-0.81663-1.8233-1.8237-1.8231zm-31.88 2.789c-1.0073-1.66e-4 -1.8238 0.81639-1.8237 1.8237 1.66e-4 1.007 0.81663 1.8233 1.8237 1.8231 1.0068-1.66e-4 1.823-0.81634 1.8231-1.8231 1.66e-4 -1.007-0.81611-1.8235-1.8231-1.8237zm40.541 1.433c-1.0068 1.65e-4 -1.823 0.81634-1.8231 1.8231-1.66e-4 1.007 0.81611 1.8235 1.8231 1.8237 1.0073 1.65e-4 1.8238-0.81639 1.8237-1.8237-1.66e-4 -1.007-0.81663-1.8233-1.8237-1.8231zm-47.592 0.012402c-1.0068 1.65e-4 -1.823 0.81634-1.8231 1.8231-1.657e-4 1.007 0.81611 1.8235 1.8231 1.8237 1.0073 1.65e-4 1.8238-0.81639 1.8237-1.8237-1.66e-4 -1.007-0.81663-1.8233-1.8237-1.8231zm34.462 0.2036c-1.0068 1.65e-4 -1.823 0.81634-1.8231 1.8231-1.66e-4 1.007 0.81611 1.8235 1.8231 1.8237 1.0073 1.65e-4 1.8238-0.81639 1.8237-1.8237-1.66e-4 -1.007-0.81663-1.8233-1.8237-1.8231zm-21.344 0.009819c-1.007 1.65e-4 -1.8233 0.81663-1.8231 1.8237 1.66e-4 1.0068 0.81634 1.823 1.8231 1.8231 1.007 1.65e-4 1.8235-0.81611 1.8237-1.8231 1.66e-4 -1.0073-0.81639-1.8238-1.8237-1.8237zm28.521 1.3653c-1.007 1.65e-4 -1.8233 0.81663-1.8231 1.8237 1.66e-4 1.0068 0.81634 1.823 1.8231 1.8231 1.007 1.65e-4 1.8235-0.81611 1.8237-1.8231 1.66e-4 -1.0073-0.81639-1.8238-1.8237-1.8237zm-17.805 0.27699c-3.4944-9.8e-5 -6.3273 2.8314-6.3273 6.3242-4e-6 3.4928 2.8328 6.3243 6.3273 6.3242 3.4944 9.8e-5 6.3273-2.8314 6.3273-6.3242 3e-6 -3.4928-2.8328-6.3243-6.3273-6.3242zm-18.441 2.8985c-1.0068 1.65e-4 -1.823 0.81634-1.8231 1.8231-1.66e-4 1.007 0.81611 1.8235 1.8231 1.8237 1.0073 1.65e-4 1.8238-0.81639 1.8237-1.8237-1.66e-4 -1.007-0.81663-1.8233-1.8237-1.8231zm30.707 1.6061c-1.007 1.65e-4 -1.8233 0.81663-1.8231 1.8237 1.66e-4 1.0068 0.81634 1.823 1.8231 1.8231 1.007 1.65e-4 1.8235-0.81611 1.8237-1.8231 1.66e-4 -1.0073-0.81639-1.8238-1.8237-1.8237zm-24.628 0.001551c-1.0073-1.66e-4 -1.8238 0.81639-1.8237 1.8237 1.66e-4 1.007 0.81663 1.8233 1.8237 1.8231 1.0068-1.66e-4 1.823-0.81634 1.8231-1.8231 1.66e-4 -1.007-0.81611-1.8235-1.8231-1.8237zm36.945 0.00155c-1.007 1.65e-4 -1.8233 0.81663-1.8231 1.8237 1.66e-4 1.0068 0.81634 1.823 1.8231 1.8231 1.007 1.65e-4 1.8235-0.81611 1.8237-1.8231 1.66e-4 -1.0073-0.81639-1.8238-1.8237-1.8237zm-49.262 0.004651c-1.007-1.66e-4 -1.8235 0.81611-1.8237 1.8231-1.657e-4 1.0073 0.81639 1.8238 1.8237 1.8237 1.007-1.66e-4 1.8233-0.81663 1.8231-1.8237-1.656e-4 -1.0068-0.81634-1.823-1.8231-1.8231zm43.044 1.6061c-1.007-1.66e-4 -1.8235 0.81611-1.8237 1.8231-1.66e-4 1.0073 0.81639 1.8238 1.8237 1.8237 1.007-1.66e-4 1.8233-0.81663 1.8231-1.8237-1.66e-4 -1.0068-0.81634-1.823-1.8231-1.8231zm-36.249 3.1672c-1.007-1.66e-4 -1.8235 0.81611-1.8237 1.8231-1.66e-4 1.0073 0.81639 1.8238 1.8237 1.8237 1.007-1.66e-4 1.8233-0.81663 1.8231-1.8237-1.66e-4 -1.0068-0.81634-1.823-1.8231-1.8231zm28.508 1.3911c-1.007 1.65e-4 -1.8233 0.81663-1.8231 1.8237 1.66e-4 1.0068 0.81634 1.823 1.8231 1.8231 1.007 1.65e-4 1.8235-0.81611 1.8237-1.8231 1.66e-4 -1.0073-0.81639-1.8238-1.8237-1.8237zm-21.337 0.001034c-1.007-1.66e-4 -1.8235 0.81611-1.8237 1.8231-1.66e-4 1.0073 0.81639 1.8238 1.8237 1.8237 1.007-1.66e-4 1.8233-0.81663 1.8231-1.8237-1.66e-4 -1.0068-0.81634-1.823-1.8231-1.8231zm-13.122 0.20257c-1.0073-1.66e-4 -1.8238 0.81639-1.8237 1.8237 1.657e-4 1.007 0.81663 1.8233 1.8237 1.8231 1.0068-1.66e-4 1.823-0.81634 1.8231-1.8231 1.66e-4 -1.007-0.81611-1.8235-1.8231-1.8237zm47.592 0.009302c-1.0068 1.65e-4 -1.823 0.81634-1.8231 1.8231-1.66e-4 1.007 0.81611 1.8235 1.8231 1.8237 1.0073 1.65e-4 1.8238-0.81639 1.8237-1.8237-1.66e-4 -1.007-0.81663-1.8233-1.8237-1.8231zm-7.0502 1.4268c-1.0068 1.65e-4 -1.823 0.81634-1.8231 1.8231 1.66e-4 1.0068 0.81634 1.823 1.8231 1.8231 1.007 1.65e-4 1.8235-0.81611 1.8237-1.8231-1.66e-4 -1.007-0.81663-1.8233-1.8237-1.8231zm-31.881 2.7885c-1.007 1.65e-4 -1.8233 0.81663-1.8231 1.8237 1.66e-4 1.0068 0.81634 1.823 1.8231 1.8231 1.007 1.65e-4 1.8235-0.81611 1.8237-1.8231 1.66e-4 -1.0073-0.81639-1.8238-1.8237-1.8237zm21.293 0.066146c-1.007-1.66e-4 -1.8235 0.81611-1.8237 1.8231-1.66e-4 1.0073 0.81639 1.8238 1.8237 1.8237 1.007-1.66e-4 1.8233-0.81663 1.8231-1.8237-1.66e-4 -1.0068-0.81634-1.823-1.8231-1.8231zm-12.325 0.012402c-1.0068 1.65e-4 -1.823 0.81634-1.8231 1.8231-1.66e-4 1.007 0.81611 1.8235 1.8231 1.8237 1.0073 1.65e-4 1.8238-0.81639 1.8237-1.8237-1.66e-4 -1.007-0.81663-1.8233-1.8237-1.8231zm6.1655 1.6299c-1.007-1.66e-4 -1.8235 0.81611-1.8237 1.8231-1.66e-4 1.0073 0.81639 1.8238 1.8237 1.8237 1.007-1.66e-4 1.8233-0.81663 1.8231-1.8237-1.66e-4 -1.0068-0.81634-1.823-1.8231-1.8231zm-21.334 0.021704c-1.007 1.65e-4 -1.8233 0.81663-1.8231 1.8237 1.656e-4 1.0068 0.81634 1.823 1.8231 1.8231 1.007 1.65e-4 1.8235-0.81611 1.8237-1.8231 1.66e-4 -1.0073-0.81639-1.8238-1.8237-1.8237zm42.662 0c-1.007-1.66e-4 -1.8235 0.81611-1.8237 1.8231-1.66e-4 1.0073 0.81639 1.8238 1.8237 1.8237 1.007-1.66e-4 1.8233-0.81663 1.8231-1.8237-1.66e-4 -1.0068-0.81634-1.823-1.8231-1.8231zm-8.2693 0.73329c-1.007-1.66e-4 -1.8235 0.81611-1.8237 1.8231-1.66e-4 1.0073 0.81639 1.8238 1.8237 1.8237 1.007-1.66e-4 1.8233-0.81663 1.8231-1.8237-1.66e-4 -1.0068-0.81634-1.823-1.8231-1.8231zm-23.655 2.0743c-1.0068 1.65e-4 -1.823 0.81634-1.8231 1.8231-1.66e-4 1.007 0.81611 1.8235 1.8231 1.8237 1.0073 1.65e-4 1.8238-0.81639 1.8237-1.8237-1.66e-4 -1.007-0.81663-1.8233-1.8237-1.8231zm18.408 1.6108c-1.007-1.66e-4 -1.824 0.81611-1.8242 1.8231-1.66e-4 1.0073 0.81691 1.8238 1.8242 1.8237 1.007-1.66e-4 1.8228-0.81663 1.8226-1.8237-1.66e-4 -1.0068-0.81583-1.823-1.8226-1.8231zm9.6103 0.67386c-1.0073-1.66e-4 -1.8243 0.81639-1.8242 1.8237 1.66e-4 1.007 0.81714 1.8233 1.8242 1.8231 1.0068-1.66e-4 1.8225-0.81634 1.8226-1.8231 1.66e-4 -1.007-0.81559-1.8235-1.8226-1.8237zm-34.84 0.003101c-1.0068 1.65e-4 -1.823 0.81634-1.8231 1.8231-1.66e-4 1.007 0.81611 1.8235 1.8231 1.8237 1.0073 1.65e-4 1.8238-0.81639 1.8237-1.8237-1.66e-4 -1.007-0.81663-1.8233-1.8237-1.8231zm12.635 0.42375c-1.0073-1.66e-4 -1.8238 0.81639-1.8237 1.8237 1.66e-4 1.007 0.81663 1.8233 1.8237 1.8231 1.0068-1.66e-4 1.823-0.81634 1.8231-1.8231 1.66e-4 -1.007-0.81611-1.8235-1.8231-1.8237zm6.3929 0.56379c-1.007 1.65e-4 -1.8233 0.81663-1.8231 1.8237 1.66e-4 1.0068 0.81634 1.823 1.8231 1.8231 1.007 1.65e-4 1.8235-0.81611 1.8237-1.8231 1.66e-4 -1.0073-0.81639-1.8238-1.8237-1.8237zm10.709 2.9244c-1.0073-1.66e-4 -1.8238 0.81691-1.8237 1.8242 1.66e-4 1.007 0.81663 1.8228 1.8237 1.8226 1.0068-1.66e-4 1.823-0.81583 1.8231-1.8226 1.66e-4 -1.007-0.81611-1.824-1.8231-1.8242zm-24.637 0.008785c-1.0073-1.66e-4 -1.8238 0.81639-1.8237 1.8237 1.66e-4 1.007 0.81663 1.8233 1.8237 1.8231 1.0068-1.66e-4 1.823-0.81634 1.8231-1.8231 1.66e-4 -1.007-0.81611-1.8235-1.8231-1.8237z" fill="#2e313b"/>
</svg>