<?xml version="1.0" encoding="UTF-8"?>
<svg version="1.1" viewBox="0 0 32 32" xmlns="http://www.w3.org/2000/svg">
<path d="M7.01 3.5a1 1 0 0 0-.88.504l-4 7a1 1 0 0 0 .356 1.353l4.776 2.866L11 21.766V27.5a1 1 0 0 0 1 1h8a1 1 0 0 0 1-1v-5.734l3.738-6.543 4.776-2.866a1 1 0 0 0 .355-1.353l-4-7a1 1 0 0 0-1.383-.361L19.723 6.5h-7.446L7.514 3.643A1 1 0 0 0 7.01 3.5zm.351 2.383L11.723 8.5h8.554l4.362-2.617 3.007 5.263-4.384 2.631L19 21.234V26.5h-6v-5.266l-4.262-7.457-4.384-2.63zM16 12.5a2 2 0 0 0-2 2 2 2 0 0 0 2 2 2 2 0 0 0 2-2 2 2 0 0 0-2-2z" fill="#2e313b"/>
</svg>