<?xml version="1.0" encoding="UTF-8"?>
<svg data-name="Layer 1" version="1.1" viewBox="0 0 32 32" xmlns="http://www.w3.org/2000/svg">
<path d="M7.01 3a1 1 0 0 0-.88.504l-4 7a1 1 0 0 0 .356 1.353l4.776 2.866L11 21.266V27a1 1 0 0 0 1 1h8a1 1 0 0 0 1-1v-5.734l3.738-6.543 4.776-2.866a1 1 0 0 0 .355-1.353l-4-7a1 1 0 0 0-1.383-.361L19.723 6h-7.446L7.514 3.143A1 1 0 0 0 7.01 3zm4.418 5h9.144l2.852 4.992L18.848 21h-5.696l-4.576-8.008zM16 12a2 2 0 0 0-2 2 2 2 0 0 0 2 2 2 2 0 0 0 2-2 2 2 0 0 0-2-2z" fill="#2e313b"/>
</svg>
