<?xml version="1.0" encoding="UTF-8"?>
<svg version="1.1" viewBox="0 0 100 100" xmlns="http://www.w3.org/2000/svg">
<path d="m83.269 61.776c-0.65591-0.5651-26.819-19.542-26.819-19.542-0.03645-0.03647-0.07288-0.07292-0.09109-0.09115-1.0021-1.0208-0.94742-1.8958-1.0203-3.4271 0 0-0.16398-12.578-0.40083-16.771-0.23686-4.1927-2.4232-6.9453-4.974-6.9453-2.5508 0-4.7189 2.7344-4.9558 6.9271-0.23686 4.1927-0.40083 16.771-0.40083 16.771-0.07288 1.5313-0.01822 2.4063-1.0203 3.4271-0.03645 0.03646-0.07287 0.0729-0.09109 0.09114 0 0-26.145 18.977-26.819 19.542-0.67413 0.5651-1.6762 1.4219-1.6762 3.3177 0 2.224 0.65591 2.4974 1.9313 2.1146 0 0 25.544-7.2005 26.491-7.4375 0.94742-0.23698 1.4394 0.10938 1.5122 1.3672 0.07288 1.2578 0.14576 8.4583 0.16398 9.2969 0.01822 0.83854-0.10932 0.85677-0.52837 1.349l-5.8303 7.4375c-0.30974 0.36458-0.49193 0.82031-0.49193 1.3307v2.2604c0 1.1484 0.51015 1.3307 1.494 0.89323 0.98386-0.4375 5.9396-3.1719 5.9396-3.1719 0.12754-0.05469 0.8381-0.34635 1.1661-0.34635 0.76523 0 1.4576-0.01824 1.6033 1.1302 0.23686 2.0781 0.89276 3.7005 1.5487 3.7005s1.3118-1.6224 1.5487-3.7005c0.12754-1.1484 0.8381-1.1302 1.6033-1.1302 0.32795 0 1.0385 0.29167 1.1661 0.34635 0 0 4.9558 2.7344 5.9396 3.1719 0.98386 0.4375 1.494 0.25521 1.494-0.89323v-2.2604c0-0.51042-0.1822-0.98437-0.49193-1.3307l-5.8303-7.4375c-0.41905-0.49219-0.52837-0.52865-0.52837-1.349 0-0.82031 0.09109-8.0391 0.16398-9.2969 0.07287-1.2578 0.56481-1.6042 1.5122-1.3672 0.94742 0.23698 26.491 7.4375 26.491 7.4375 1.2936 0.38281 1.9313 0.10938 1.9313-2.1146-0.05467-1.8776-1.0567-2.7344-1.7309-3.2995z" fill="#fa6464"/>
</svg>