<?xml version="1.0" encoding="UTF-8"?>
<svg width="100" height="100" version="1.1" viewBox="0 0 26.458 26.458" xmlns="http://www.w3.org/2000/svg">
<path d="m13.229 3.3073c-5.4797-2e-7 -9.9219 4.4422-9.9219 9.9219 0 5.4797 4.4422 9.9219 9.9219 9.9219 5.4797 0 9.9219-4.4422 9.9219-9.9219 0-5.4797-4.4422-9.9219-9.9219-9.9219zm0 1.4552c4.676 1e-7 8.4667 3.7907 8.4667 8.4667 0 4.676-3.7907 8.4667-8.4667 8.4667-4.676 0-8.4667-3.7907-8.4667-8.4667-4e-7 -4.676 3.7907-8.4667 8.4667-8.4667zm-3.8804 3.5212v9.8909h1.7828v-4.0649h2.5068l1.5363 4.0649h1.8841l-1.7322-4.3692c1.1884-0.47824 1.7828-1.3526 1.7828-2.6231 0-0.85503-0.28042-1.551-0.84078-2.0872-0.56036-0.54104-1.4371-0.81132-2.6303-0.81132h-4.2897zm1.7828 1.4201h2.3621c0.55553 0 0.98791 0.13566 1.2971 0.40618 0.30916 0.26569 0.46354 0.61582 0.46354 1.0506 0 0.47341-0.15678 0.84518-0.47077 1.1157-0.314 0.27052-0.79257 0.40566-1.4351 0.40566h-2.2169v-0.51108-2.467z" fill="#2e313b" stroke-linejoin="bevel" stroke-width=".2018" style="paint-order:fill markers stroke"/>
</svg>
