<?xml version="1.0" encoding="UTF-8"?>
<svg version="1.1" viewBox="0 0 100 100" xml:space="preserve" xmlns="http://www.w3.org/2000/svg"><g transform="translate(-209.13 -234.5)"><path d="m259.79 329.46 1.593-9.1045h8.9063l1.3501 0.58688-1.0897-4.0616h-8.9102l0.15793-4.6918h8.492v-3.4457h-8.3785l0.51761-15.143 3.902-13.385 22.798 22.461v-3.2548l-22.281-23.765 8.9103-1.3487v-4.7942l-8.6389-3.7964 22.01-23.222v-2.8446l-0.27284-0.14651-22.009 21.947-1.8234-12.593h-1.5919s-2.5667-6.4211-4.4915-6.4211c-1.9206 0-4.489 6.4211-4.489 6.4211h-1.5794l-1.8197 12.593-21.924-21.845v3.2699l21.648 22.841-8.6351 3.7964v4.7942l8.91 1.3487-21.923 23.383v3.2835l22.424-22.108 3.9184 13.385 0.54337 15.143h-8.6218v3.4457h8.7523l0.17185 4.7209h-8.9242l-1.0774 4.0761 1.3486-0.58709h8.925l1.5772 9.1047z" fill="#fa6464"/></g></svg>
