<?xml version="1.0" encoding="UTF-8"?>
<svg version="1.1" viewBox="0 0 1200 200" xmlns="http://www.w3.org/2000/svg">
<path d="m0 0h1200v200h-1200z" color="#2e313b" style="paint-order:fill markers stroke"/>
<path d="m16 16v8h40v-8h-40zm1128 0v8h40v-8h-40zm-874 12v8h60v-8h-60zm600 0v8h60v-8h-60zm-854 8v8h40v-8h-40zm1128 0v8h40v-8h-40zm-874 8v8h60v-8h-60zm600 0v8h60v-8h-60zm-854 12v8h40v-8h-40zm1128 0v8h40v-8h-40zm-874 4v8h60v-8h-60zm600 0v8h60v-8h-60zm-854 16v8h40v-8h-40zm1128 0v8h40v-8h-40zm-939 19v10h70v-10h-70zm120 0v10h70v-10h-70zm120 0v10h70v-10h-70zm120 0v10h70v-10h-70zm120 0v10h70v-10h-70zm120 0v10h70v-10h-70zm120 0v10h70v-10h-70zm-909 1v8h40v-8h-40zm1128 0v8h40v-8h-40zm-1128 20v8h40v-8h-40zm1128 0v8h40v-8h-40zm-874 16v8h60v-8h-60zm600 0v8h60v-8h-60zm-854 4v8h40v-8h-40zm1128 0v8h40v-8h-40zm-874 12v8h60v-8h-60zm600 0v8h60v-8h-60zm-854 8v8h40v-8h-40zm1128 0v8h40v-8h-40zm-874 8v8h60v-8h-60zm600 0v8h60v-8h-60zm-854 12v8h40v-8h-40zm1128 0v8h40v-8h-40z" fill="#fff" style="paint-order:fill markers stroke"/>
<text transform="rotate(90)" x="47.243473" y="-102" fill="#ffffff" font-family="Roboto" font-size="82.667px" font-weight="900" stroke-linejoin="round" stroke-width="4.656" style="font-variant-caps:normal;font-variant-east-asian:normal;font-variant-ligatures:normal;font-variant-numeric:normal;paint-order:fill markers stroke" xml:space="preserve"><tspan x="47.243473" y="-102" class="name-left">XX</tspan></text>
<text transform="rotate(-90)" x="-152.75655" y="1097.761" fill="#ffffff" font-family="Roboto" font-size="82.667px" font-weight="900" stroke-linejoin="round" stroke-width="4.656" style="font-variant-caps:normal;font-variant-east-asian:normal;font-variant-ligatures:normal;font-variant-numeric:normal;paint-order:fill markers stroke" xml:space="preserve"><tspan x="-152.75655" y="1097.761" class="name-right">XX</tspan></text>
</svg>
