<?xml version="1.0" encoding="UTF-8"?>
<svg version="1.1" viewBox="0 0 26.458 26.458" xmlns="http://www.w3.org/2000/svg">
<path d="m13.229 3.3073a9.9219 9.9219 0 0 0-9.9219 9.9219 9.9219 9.9219 0 0 0 9.9219 9.9219 9.9219 9.9219 0 0 0 9.9219-9.9219 9.9219 9.9219 0 0 0-9.9219-9.9219zm0 1.4552a8.4667 8.4667 0 0 1 8.4667 8.4667 8.4667 8.4667 0 0 1-8.4667 8.4667 8.4667 8.4667 0 0 1-8.4667-8.4667 8.4667 8.4667 0 0 1 8.4667-8.4667zm0 2.62a2.3398 2.3398 0 0 0-0.58446 4.6039v5.8782c-2.1153-0.26485-3.7929-1.9504-4.0566-4.0762h1.7177l-2.1652-3.4825c-0.48234 0.85418-0.75809 1.8415-0.75809 2.8939 0 3.2448 2.6176 5.8761 5.8467 5.8761 3.229 0 5.8467-2.6313 5.8467-5.8761a5.8705 5.8705 0 0 0-0.75809-2.8939l-2.1652 3.4825h1.7177c-0.26368 2.1258-1.9407 3.8114-4.0566 4.0762v-5.8782a2.3386 2.3386 0 0 0-0.58446-4.6039zm0 1.1694a1.1694 1.1694 0 0 1 0 2.3389 1.1694 1.1694 0 0 1 0-2.3389z" fill="#2e313b"/>
</svg>