<?xml version="1.0" encoding="UTF-8"?>
<svg viewBox="0 0 48 48" xmlns="http://www.w3.org/2000/svg">
<path d="m42 12.429c-1.323 0.586-2.746 0.977-4.247 1.162 1.526-0.906 2.7-2.351 3.251-4.058-1.428 0.837-3.01 1.452-4.693 1.776-1.344-1.425-3.261-2.309-5.385-2.309-4.08 0-7.387 3.278-7.387 7.32 0 0.572 0.067 1.129 0.193 1.67-6.138-0.308-11.582-3.226-15.224-7.654-0.64 1.082-1 2.349-1 3.686 0 2.541 1.301 4.778 3.285 6.096-1.211-0.037-2.351-0.374-3.349-0.914v0.086c0 3.551 2.547 6.508 5.923 7.181-0.617 0.169-1.269 0.263-1.941 0.263-0.477 0-0.942-0.054-1.392-0.135 0.94 2.902 3.667 5.023 6.898 5.086-2.528 1.96-5.712 3.134-9.174 3.134-0.598 0-1.183-0.034-1.761-0.104 3.271 2.071 7.155 3.285 11.324 3.285 13.585 0 21.017-11.156 21.017-20.834 0-0.317-0.01-0.633-0.025-0.945 1.45-1.024 2.7-2.316 3.687-3.792" fill="#03A9F4"/>
</svg>
