<?xml version="1.0" encoding="UTF-8"?>
<svg width="100" height="100" version="1.1" viewBox="0 0 26.458 26.458" xmlns="http://www.w3.org/2000/svg">
<path d="m12.955 0a13.229 13.229 0 0 1-12.955 12.955v0.54209a13.229 13.229 0 0 1 12.961 12.961h0.54209a13.229 13.229 0 0 1 12.955-12.955v-0.5488a13.229 13.229 0 0 1-12.955-12.955h-0.5488zm0.2744 7.9375a5.2917 5.2917 0 0 1 5.2917 5.2917 5.2917 5.2917 0 0 1-5.2917 5.2917 5.2917 5.2917 0 0 1-5.2917-5.2917 5.2917 5.2917 0 0 1 5.2917-5.2917z" fill="#1b1d23"/>
</svg>