<?xml version="1.0" encoding="UTF-8"?>
<svg version="1.1" viewBox="0 0 220 220" xmlns="http://www.w3.org/2000/svg">
<g transform="translate(0 -3.034)">
<path d="m86.387 98.928a50 50 0 0 0-26.387 44.02 50 50 0 0 0 50 50 50 50 0 0 0 50-50 50 50 0 0 0-25.111-43.357l1.7305 9.1348-51.357-5.332z" fill="#ecedf1" style="paint-order:fill markers stroke"/>
<path d="m110 151.36c4.4322 0 8.1228-3.6953 8.2341-8.1919 9e-3 -0.63491-0.0542-1.2671-0.1886-1.8845 4.6157-1.9194 10.228-4.1912 15.809-6.1191 5.2307-1.8071 9.3585-2.8739 9.3585-2.8739 0.57165-0.14991 0.8887-0.66234 0.76023-1.2305-0.84315-3.7376-1.8309-8.113-2.8564-12.802-0.94488-4.3206-1.686-7.8578-1.686-7.8578-0.82307-3.9468-1.7385-8.4513-2.6947-13.487-0.87209-4.5923-1.5346-8.3816-1.5346-8.3816-0.7419-4.2443-1.5411-9.0457-2.365-14.499-0.74875-4.9559-1.3026-9.0651-1.3026-9.0651-4e-3 -0.03106-0.01-0.06223-0.0158-0.0933-0.66371-3.5385-1.3686-7.444-2.1291-11.933-0.68702-4.0552-1.2142-7.3879-1.2142-7.3879-0.0196-0.12067-0.0496-0.23979-0.0898-0.35487-1.1991-3.4753-3.59-10.483-3.59-10.483-0.18345-0.53896-0.56685-0.91195-1.0027-0.96863-3.3463-0.43199-6.9123-0.63101-11.089-0.62606-3.7429 0.0044-6.7963 0.14806-6.7963 0.14806-0.45294 0.01716-0.88812 0.33038-1.1347 0.81186-1.5957 3.1478-4.8585 9.0757-4.8585 9.0757-0.05384 0.09636-0.09784 0.19839-0.13098 0.30402-1.855 5.9434-5.5574 16.787-5.5574 16.787-0.0095 0.02695-0.01824 0.05421-0.02603 0.08171-0.93433 3.4124-2.7988 10.111-3.7331 13.523-1.2358 4.4926-2.2109 8.1233-2.2109 8.1233-1.102 4.1409-2.2769 8.6209-3.5791 13.815-1.1726 4.6767-2.0872 8.5082-2.0872 8.5082-1.8221 7.6629-5.3723 23.506-5.3723 23.506-0.14876 0.67035 0.16001 1.3602 0.73716 1.6465 8.4118 4.1778 24.971 11.71 24.971 11.71-0.16975 0.62726-0.27013 1.2709-0.29899 1.9172-0.15876 4.5936 3.2499 8.282 7.675 8.282zm7.0872-12.601c-1.4003-2.3658-3.8845-3.8515-6.58-3.8983-2.7014-0.0454-5.2498 1.3604-6.7841 3.7458-3.3531-1.5287-7.7082-3.5282-11.862-5.4733-3.9577-1.8534-7.1377-3.3882-7.1377-3.3882 8.691 0.18598 21.623 0.27194 32.331 0.66734 10.702 0.39519 19.226 1.211 19.226 1.211-6.2756 1.9467-12.795 4.4837-19.193 7.1358zm19.532-30.034c-9.7924-2.3582-19.709-3.4319-31.839-4.1912-10.737-0.67215-19.518-1.1413-19.518-1.1413 1.6169-6.6817 4.9466-19.625 4.9466-19.625 7.3461 0.57149 18.158 1.1345 26.961 2.3416 8.8132 1.2086 15.783 3.2699 15.783 3.2699 1.162 6.6474 2.3856 13.037 3.6664 19.346zm-7.8103-45.7c-5.9848-1.6483-12.228-2.5169-19.726-3.023-6.6757-0.45054-12.178-0.59771-12.178-0.59771 0.84513-2.4857 1.8807-5.5896 2.9064-8.758 0.96175-2.971 1.7243-5.4221 1.7243-5.4221 4.5039 0.0067 10.097 0.01856 15.447 0.47875 5.058 0.43503 9.0393 1.2929 9.0393 1.2929 0.89307 5.4889 1.8115 10.79 2.786 16.029z" color="#000000" fill="#2e313b" stroke-linejoin="round" stroke-width=".66667" style="paint-order:fill markers stroke"/>
</g>
</svg>
