<?xml version="1.0" encoding="UTF-8"?>
<svg version="1.1" viewBox="0 0 220 220" xmlns="http://www.w3.org/2000/svg">
<path d="m69.998 143.32a40 40 0 0 1 40-40 40 40 0 0 1 40 40 40 40 0 0 1-40 40 40 40 0 0 1-40-40z" fill="#ecedf1" stroke-linejoin="round" stroke-width="1.5058" style="paint-order:fill markers stroke"/>
<path d="m142.67 129.5-13.723-66.534-4.5742-16.633h-28.75l-4.5755 16.633-13.723 66.534z" fill="#fff" stroke-width=".66667" style="paint-order:fill markers stroke"/>
<path d="m110 151.36a8 8 0 0 0 8-8 8 8 0 0 0-0.23568-1.8451l25.429-10.789c0.58458-0.24811 0.91307-0.87407 0.78513-1.4961l-4.5742-22.179-4.5742-22.177-4.5742-22.179c-6e-3 -0.028-0.0131-0.0558-0.0208-0.08333l-4.5729-16.634c-0.0281-0.10067-0.0678-0.19769-0.11849-0.28907l-4.5729-8.3167c-0.2347-0.42609-0.6828-0.69053-1.1693-0.69013h-19.603c-0.48599 1.4e-5 -0.93347 0.26442-1.168 0.69013l-4.5742 8.3167c-0.0502 0.09144-0.08957 0.18846-0.11719 0.28907l-4.5742 16.634c-0.0078 0.02753-0.0148 0.05533-0.0208 0.08333l-4.5742 22.179-4.5729 22.177-4.5742 22.179c-0.12793 0.62204 0.20057 1.248 0.78513 1.4961l25.429 10.789a8 8 0 0 0-0.23568 1.8451 8 8 0 0 0 8 8zm6.7393-12.307a8 8 0 0 0-6.7393-3.6927 8 8 0 0 0-6.7393 3.6927l-19.376-8.22h52.231zm19.721-33.065h-52.923l4.0235-19.511h44.876zm-9.262-44.355h-34.4l3.8411-13.966h26.719z" color="#000000" fill="#2e313b" stroke-linejoin="round" stroke-width=".66667" style="paint-order:fill markers stroke"/>
<path d="m58.762 36.68-9.2324 15.91h6.7324v57.766h5v-57.766h6.7324c-3.0773-5.3029-6.1541-10.608-9.2324-15.91zm102.47 0c-3.0783 5.3023-6.1551 10.607-9.2324 15.91h6.7324v57.766h5v-57.766h6.7324l-9.2324-15.91zm-128.21 57.768-9.2324 15.908h6.7324v57.768h5v-57.768h6.7324c-3.0773-5.3029-6.1541-10.606-9.2324-15.908zm153.94 0c-3.0783 5.3023-6.1551 10.605-9.2324 15.908h6.7324v57.768h5v-57.768h6.7324l-9.2324-15.908z" color="#000000" fill="#c4e3f6" fill-rule="evenodd"/>
</svg>
