<?xml version="1.0" encoding="UTF-8"?>
<svg width="400" height="400" version="1.1" viewBox="0 0 105.83 105.83" xml:space="preserve" xmlns="http://www.w3.org/2000/svg"><path d="m55.562 52.916a2.6458 2.6458 0 0 1-2.6458 2.6458 2.6458 2.6458 0 0 1-2.6458-2.6458 2.6458 2.6458 0 0 1 2.6458-2.6458 2.6458 2.6458 0 0 1 2.6458 2.6458z" stroke-linejoin="round" stroke-width=".48467" style="paint-order:fill markers stroke"/><g transform="matrix(1.0583 0 0 1.0583 37.318 41.298)" fill="none" stroke="#000" stroke-width="2"><g transform="translate(11.931 -8.4221)" fill="none" stroke="#000" stroke-width="2"><g transform="translate(9.124 -1.0528)" fill="none" stroke="#000" stroke-width="2"><g transform="translate(-1.7546 1.2282)" fill="none" stroke="#000" stroke-width="2"><g transform="translate(2.6319 -.70184)" fill="none" stroke="#000" stroke-width="2"><g transform="translate(-1.4037 2.4565)" fill="none" stroke="#000" stroke-width="2"><g transform="translate(1.4037 -1.0528)" fill="none" stroke="#000" stroke-width="2"><g transform="translate(4.6351 -1.0688)"><g transform="translate(-16.142)"><g transform="translate(17.195 .54247)"><g transform="translate(-10.703 -1.0528)"><g transform="translate(-.35092 .68576)"><g transform="translate(2.8074 -1.2282)"><g fill="#000" stroke="none" stroke-width="0"><path d="m12.614-20.856-17.25-5h-1v44h2v-19.252l7.7812-2.2886-0.5625-1.918-7.2188 2.123v-2.9541l16.25-4.71c-5.4167-1.57-10.833-3.14-16.25-4.71v-0.58008z"/></g></g></g></g></g></g></g></g></g></g></g></g></g></g></svg>
