<?xml version="1.0" encoding="UTF-8"?>
<svg width="400" height="400" version="1.1" viewBox="0 0 105.83 105.83" xml:space="preserve" xmlns="http://www.w3.org/2000/svg"><path d="m55.562 52.916a2.6458 2.6458 0 0 1-2.6458 2.6458 2.6458 2.6458 0 0 1-2.6458-2.6458 2.6458 2.6458 0 0 1 2.6458-2.6458 2.6458 2.6458 0 0 1 2.6458 2.6458z" stroke-linejoin="round" stroke-width=".48467" style="paint-order:fill markers stroke"/><g transform="matrix(1.0583 0 0 1.0583 37.318 41.298)" fill="none" stroke="#000" stroke-width="2"><g transform="translate(11.931 -8.4221)" fill="none" stroke="#000" stroke-width="2"><g transform="translate(9.124 -1.0528)" fill="none" stroke="#000" stroke-width="2"><g transform="translate(-1.7546 1.2282)" fill="none" stroke="#000" stroke-width="2"><g transform="translate(2.6319 -.70184)" fill="none" stroke="#000" stroke-width="2"><path d="m10.087-26.615-0.5625-1.918-17.719 5.2109v40.748h2v-24.252l7.7812-2.2886-0.5625-1.918-7.2188 2.123v-2.9165l16.281-4.7886-0.5625-1.918-15.719 4.623v-2.9165l16.281-4.7886-0.5625-1.918-15.719 4.623v-2.916z" color="#000000" fill="#000" stroke="none" style="-inkscape-stroke:none"/></g></g></g></g></g></svg>
