<?xml version="1.0" encoding="UTF-8"?>
<svg width="400" height="400" version="1.1" viewBox="0 0 105.83 105.83" xml:space="preserve" xmlns="http://www.w3.org/2000/svg"><path d="m55.562 52.916a2.6458 2.6458 0 0 1-2.6458 2.6458 2.6458 2.6458 0 0 1-2.6458-2.6458 2.6458 2.6458 0 0 1 2.6458-2.6458 2.6458 2.6458 0 0 1 2.6458 2.6458z" stroke-linejoin="round" stroke-width=".48467" style="paint-order:fill markers stroke"/><g transform="matrix(1.0583 0 0 1.0583 37.318 41.298)" fill="none" stroke="#000" stroke-width="2"><g transform="translate(11.931 -8.4221)" fill="none" stroke="#000" stroke-width="2"><g transform="translate(9.124 -1.0528)" fill="none" stroke="#000" stroke-width="2"><g transform="translate(-1.7546 1.2282)" fill="none" stroke="#000" stroke-width="2"><g transform="translate(2.6319 -.70184)" fill="none" stroke="#000" stroke-width="2"><g transform="translate(-1.4037 2.4565)" fill="none" stroke="#000" stroke-width="2"><g transform="translate(1.4037 -1.0528)" fill="none" stroke="#000" stroke-width="2"><g transform="translate(4.6351 -1.0688)"><path d="m5.4204-21.909-17.25-5h-1v44h2v-34.29z" fill="#000" stroke="none"/></g></g></g></g></g></g></g></g></svg>
